G04 #@! TF.GenerationSoftware,KiCad,Pcbnew,(5.0.0)*
G04 #@! TF.CreationDate,2018-10-27T22:55:32-07:00*
G04 #@! TF.ProjectId,LPC1114_LED_Cube,4C5043313131345F4C45445F43756265,rev?*
G04 #@! TF.SameCoordinates,Original*
G04 #@! TF.FileFunction,Legend,Bot*
G04 #@! TF.FilePolarity,Positive*
%FSLAX46Y46*%
G04 Gerber Fmt 4.6, Leading zero omitted, Abs format (unit mm)*
G04 Created by KiCad (PCBNEW (5.0.0)) date 10/27/18 22:55:32*
%MOMM*%
%LPD*%
G01*
G04 APERTURE LIST*
%ADD10C,0.200000*%
%ADD11C,0.120000*%
%ADD12C,0.150000*%
%ADD13O,2.100000X2.100000*%
%ADD14R,2.100000X2.100000*%
%ADD15C,2.100000*%
%ADD16R,2.000000X2.000000*%
%ADD17C,2.000000*%
%ADD18R,2.400000X2.000000*%
%ADD19R,2.000000X2.400000*%
%ADD20O,3.900000X3.900000*%
%ADD21R,2.200000X2.200000*%
%ADD22O,2.200000X2.200000*%
%ADD23R,3.900000X3.900000*%
%ADD24R,1.400000X1.400000*%
%ADD25O,1.400000X1.400000*%
%ADD26C,1.920000*%
%ADD27C,3.100000*%
%ADD28C,1.900000*%
%ADD29C,1.797000*%
%ADD30O,2.000000X2.000000*%
G04 APERTURE END LIST*
D10*
X152273000Y-105029000D02*
X154305000Y-105029000D01*
X152400000Y-104013000D02*
X154305000Y-104013000D01*
X164044380Y-97798142D02*
X164044380Y-97893380D01*
X164092000Y-97988619D01*
X164139619Y-98036238D01*
X164234857Y-98083857D01*
X164425333Y-98131476D01*
X164663428Y-98131476D01*
X164853904Y-98083857D01*
X164949142Y-98036238D01*
X164996761Y-97988619D01*
X165044380Y-97893380D01*
X165044380Y-97798142D01*
X164996761Y-97702904D01*
X164949142Y-97655285D01*
X164853904Y-97607666D01*
X164663428Y-97560047D01*
X164425333Y-97560047D01*
X164234857Y-97607666D01*
X164139619Y-97655285D01*
X164092000Y-97702904D01*
X164044380Y-97798142D01*
X164949142Y-98560047D02*
X164996761Y-98607666D01*
X165044380Y-98560047D01*
X164996761Y-98512428D01*
X164949142Y-98560047D01*
X165044380Y-98560047D01*
X165044380Y-99560047D02*
X165044380Y-98988619D01*
X165044380Y-99274333D02*
X164044380Y-99274333D01*
X164187238Y-99179095D01*
X164282476Y-99083857D01*
X164330095Y-98988619D01*
X164377714Y-100417190D02*
X165044380Y-100417190D01*
X164377714Y-99988619D02*
X164901523Y-99988619D01*
X164996761Y-100036238D01*
X165044380Y-100131476D01*
X165044380Y-100274333D01*
X164996761Y-100369571D01*
X164949142Y-100417190D01*
X164520571Y-101226714D02*
X164520571Y-100893380D01*
X165044380Y-100893380D02*
X164044380Y-100893380D01*
X164044380Y-101369571D01*
X152058476Y-103084380D02*
X151439428Y-103084380D01*
X151772761Y-103465333D01*
X151629904Y-103465333D01*
X151534666Y-103512952D01*
X151487047Y-103560571D01*
X151439428Y-103655809D01*
X151439428Y-103893904D01*
X151487047Y-103989142D01*
X151534666Y-104036761D01*
X151629904Y-104084380D01*
X151915619Y-104084380D01*
X152010857Y-104036761D01*
X152058476Y-103989142D01*
X150963238Y-104084380D02*
X150772761Y-104084380D01*
X150677523Y-104036761D01*
X150629904Y-103989142D01*
X150534666Y-103846285D01*
X150487047Y-103655809D01*
X150487047Y-103274857D01*
X150534666Y-103179619D01*
X150582285Y-103132000D01*
X150677523Y-103084380D01*
X150868000Y-103084380D01*
X150963238Y-103132000D01*
X151010857Y-103179619D01*
X151058476Y-103274857D01*
X151058476Y-103512952D01*
X151010857Y-103608190D01*
X150963238Y-103655809D01*
X150868000Y-103703428D01*
X150677523Y-103703428D01*
X150582285Y-103655809D01*
X150534666Y-103608190D01*
X150487047Y-103512952D01*
X150058476Y-103417714D02*
X150058476Y-104417714D01*
X150058476Y-103465333D02*
X149963238Y-103417714D01*
X149772761Y-103417714D01*
X149677523Y-103465333D01*
X149629904Y-103512952D01*
X149582285Y-103608190D01*
X149582285Y-103893904D01*
X149629904Y-103989142D01*
X149677523Y-104036761D01*
X149772761Y-104084380D01*
X149963238Y-104084380D01*
X150058476Y-104036761D01*
X148820380Y-103560571D02*
X149153714Y-103560571D01*
X149153714Y-104084380D02*
X149153714Y-103084380D01*
X148677523Y-103084380D01*
X152058476Y-104862380D02*
X151439428Y-104862380D01*
X151772761Y-105243333D01*
X151629904Y-105243333D01*
X151534666Y-105290952D01*
X151487047Y-105338571D01*
X151439428Y-105433809D01*
X151439428Y-105671904D01*
X151487047Y-105767142D01*
X151534666Y-105814761D01*
X151629904Y-105862380D01*
X151915619Y-105862380D01*
X152010857Y-105814761D01*
X152058476Y-105767142D01*
X150963238Y-105862380D02*
X150772761Y-105862380D01*
X150677523Y-105814761D01*
X150629904Y-105767142D01*
X150534666Y-105624285D01*
X150487047Y-105433809D01*
X150487047Y-105052857D01*
X150534666Y-104957619D01*
X150582285Y-104910000D01*
X150677523Y-104862380D01*
X150868000Y-104862380D01*
X150963238Y-104910000D01*
X151010857Y-104957619D01*
X151058476Y-105052857D01*
X151058476Y-105290952D01*
X151010857Y-105386190D01*
X150963238Y-105433809D01*
X150868000Y-105481428D01*
X150677523Y-105481428D01*
X150582285Y-105433809D01*
X150534666Y-105386190D01*
X150487047Y-105290952D01*
X150058476Y-105195714D02*
X150058476Y-106195714D01*
X150058476Y-105243333D02*
X149963238Y-105195714D01*
X149772761Y-105195714D01*
X149677523Y-105243333D01*
X149629904Y-105290952D01*
X149582285Y-105386190D01*
X149582285Y-105671904D01*
X149629904Y-105767142D01*
X149677523Y-105814761D01*
X149772761Y-105862380D01*
X149963238Y-105862380D01*
X150058476Y-105814761D01*
X148820380Y-105338571D02*
X149153714Y-105338571D01*
X149153714Y-105862380D02*
X149153714Y-104862380D01*
X148677523Y-104862380D01*
X112831619Y-135517142D02*
X112784000Y-135564761D01*
X112736380Y-135660000D01*
X112736380Y-135898095D01*
X112784000Y-135993333D01*
X112831619Y-136040952D01*
X112926857Y-136088571D01*
X113022095Y-136088571D01*
X113164952Y-136040952D01*
X113736380Y-135469523D01*
X113736380Y-136088571D01*
X112831619Y-136469523D02*
X112784000Y-136517142D01*
X112736380Y-136612380D01*
X112736380Y-136850476D01*
X112784000Y-136945714D01*
X112831619Y-136993333D01*
X112926857Y-137040952D01*
X113022095Y-137040952D01*
X113164952Y-136993333D01*
X113736380Y-136421904D01*
X113736380Y-137040952D01*
X113069714Y-137469523D02*
X114069714Y-137469523D01*
X113117333Y-137469523D02*
X113069714Y-137564761D01*
X113069714Y-137755238D01*
X113117333Y-137850476D01*
X113164952Y-137898095D01*
X113260190Y-137945714D01*
X113545904Y-137945714D01*
X113641142Y-137898095D01*
X113688761Y-137850476D01*
X113736380Y-137755238D01*
X113736380Y-137564761D01*
X113688761Y-137469523D01*
X113212571Y-138707619D02*
X113212571Y-138374285D01*
X113736380Y-138374285D02*
X112736380Y-138374285D01*
X112736380Y-138850476D01*
X114799857Y-130897380D02*
X114704619Y-130897380D01*
X114609380Y-130945000D01*
X114561761Y-130992619D01*
X114514142Y-131087857D01*
X114466523Y-131278333D01*
X114466523Y-131516428D01*
X114514142Y-131706904D01*
X114561761Y-131802142D01*
X114609380Y-131849761D01*
X114704619Y-131897380D01*
X114799857Y-131897380D01*
X114895095Y-131849761D01*
X114942714Y-131802142D01*
X114990333Y-131706904D01*
X115037952Y-131516428D01*
X115037952Y-131278333D01*
X114990333Y-131087857D01*
X114942714Y-130992619D01*
X114895095Y-130945000D01*
X114799857Y-130897380D01*
X114037952Y-131802142D02*
X113990333Y-131849761D01*
X114037952Y-131897380D01*
X114085571Y-131849761D01*
X114037952Y-131802142D01*
X114037952Y-131897380D01*
X113037952Y-131897380D02*
X113609380Y-131897380D01*
X113323666Y-131897380D02*
X113323666Y-130897380D01*
X113418904Y-131040238D01*
X113514142Y-131135476D01*
X113609380Y-131183095D01*
X112180809Y-131230714D02*
X112180809Y-131897380D01*
X112609380Y-131230714D02*
X112609380Y-131754523D01*
X112561761Y-131849761D01*
X112466523Y-131897380D01*
X112323666Y-131897380D01*
X112228428Y-131849761D01*
X112180809Y-131802142D01*
X111371285Y-131373571D02*
X111704619Y-131373571D01*
X111704619Y-131897380D02*
X111704619Y-130897380D01*
X111228428Y-130897380D01*
X121340619Y-137803142D02*
X121293000Y-137850761D01*
X121245380Y-137946000D01*
X121245380Y-138184095D01*
X121293000Y-138279333D01*
X121340619Y-138326952D01*
X121435857Y-138374571D01*
X121531095Y-138374571D01*
X121673952Y-138326952D01*
X122245380Y-137755523D01*
X122245380Y-138374571D01*
X121340619Y-138755523D02*
X121293000Y-138803142D01*
X121245380Y-138898380D01*
X121245380Y-139136476D01*
X121293000Y-139231714D01*
X121340619Y-139279333D01*
X121435857Y-139326952D01*
X121531095Y-139326952D01*
X121673952Y-139279333D01*
X122245380Y-138707904D01*
X122245380Y-139326952D01*
X121578714Y-139755523D02*
X122578714Y-139755523D01*
X121626333Y-139755523D02*
X121578714Y-139850761D01*
X121578714Y-140041238D01*
X121626333Y-140136476D01*
X121673952Y-140184095D01*
X121769190Y-140231714D01*
X122054904Y-140231714D01*
X122150142Y-140184095D01*
X122197761Y-140136476D01*
X122245380Y-140041238D01*
X122245380Y-139850761D01*
X122197761Y-139755523D01*
X121721571Y-140993619D02*
X121721571Y-140660285D01*
X122245380Y-140660285D02*
X121245380Y-140660285D01*
X121245380Y-141136476D01*
X170933857Y-88733380D02*
X170838619Y-88733380D01*
X170743380Y-88781000D01*
X170695761Y-88828619D01*
X170648142Y-88923857D01*
X170600523Y-89114333D01*
X170600523Y-89352428D01*
X170648142Y-89542904D01*
X170695761Y-89638142D01*
X170743380Y-89685761D01*
X170838619Y-89733380D01*
X170933857Y-89733380D01*
X171029095Y-89685761D01*
X171076714Y-89638142D01*
X171124333Y-89542904D01*
X171171952Y-89352428D01*
X171171952Y-89114333D01*
X171124333Y-88923857D01*
X171076714Y-88828619D01*
X171029095Y-88781000D01*
X170933857Y-88733380D01*
X170171952Y-89638142D02*
X170124333Y-89685761D01*
X170171952Y-89733380D01*
X170219571Y-89685761D01*
X170171952Y-89638142D01*
X170171952Y-89733380D01*
X169171952Y-89733380D02*
X169743380Y-89733380D01*
X169457666Y-89733380D02*
X169457666Y-88733380D01*
X169552904Y-88876238D01*
X169648142Y-88971476D01*
X169743380Y-89019095D01*
X168314809Y-89066714D02*
X168314809Y-89733380D01*
X168743380Y-89066714D02*
X168743380Y-89590523D01*
X168695761Y-89685761D01*
X168600523Y-89733380D01*
X168457666Y-89733380D01*
X168362428Y-89685761D01*
X168314809Y-89638142D01*
X167505285Y-89209571D02*
X167838619Y-89209571D01*
X167838619Y-89733380D02*
X167838619Y-88733380D01*
X167362428Y-88733380D01*
X157725857Y-88733380D02*
X157630619Y-88733380D01*
X157535380Y-88781000D01*
X157487761Y-88828619D01*
X157440142Y-88923857D01*
X157392523Y-89114333D01*
X157392523Y-89352428D01*
X157440142Y-89542904D01*
X157487761Y-89638142D01*
X157535380Y-89685761D01*
X157630619Y-89733380D01*
X157725857Y-89733380D01*
X157821095Y-89685761D01*
X157868714Y-89638142D01*
X157916333Y-89542904D01*
X157963952Y-89352428D01*
X157963952Y-89114333D01*
X157916333Y-88923857D01*
X157868714Y-88828619D01*
X157821095Y-88781000D01*
X157725857Y-88733380D01*
X156963952Y-89638142D02*
X156916333Y-89685761D01*
X156963952Y-89733380D01*
X157011571Y-89685761D01*
X156963952Y-89638142D01*
X156963952Y-89733380D01*
X155963952Y-89733380D02*
X156535380Y-89733380D01*
X156249666Y-89733380D02*
X156249666Y-88733380D01*
X156344904Y-88876238D01*
X156440142Y-88971476D01*
X156535380Y-89019095D01*
X155106809Y-89066714D02*
X155106809Y-89733380D01*
X155535380Y-89066714D02*
X155535380Y-89590523D01*
X155487761Y-89685761D01*
X155392523Y-89733380D01*
X155249666Y-89733380D01*
X155154428Y-89685761D01*
X155106809Y-89638142D01*
X154297285Y-89209571D02*
X154630619Y-89209571D01*
X154630619Y-89733380D02*
X154630619Y-88733380D01*
X154154428Y-88733380D01*
X144263857Y-88733380D02*
X144168619Y-88733380D01*
X144073380Y-88781000D01*
X144025761Y-88828619D01*
X143978142Y-88923857D01*
X143930523Y-89114333D01*
X143930523Y-89352428D01*
X143978142Y-89542904D01*
X144025761Y-89638142D01*
X144073380Y-89685761D01*
X144168619Y-89733380D01*
X144263857Y-89733380D01*
X144359095Y-89685761D01*
X144406714Y-89638142D01*
X144454333Y-89542904D01*
X144501952Y-89352428D01*
X144501952Y-89114333D01*
X144454333Y-88923857D01*
X144406714Y-88828619D01*
X144359095Y-88781000D01*
X144263857Y-88733380D01*
X143501952Y-89638142D02*
X143454333Y-89685761D01*
X143501952Y-89733380D01*
X143549571Y-89685761D01*
X143501952Y-89638142D01*
X143501952Y-89733380D01*
X142501952Y-89733380D02*
X143073380Y-89733380D01*
X142787666Y-89733380D02*
X142787666Y-88733380D01*
X142882904Y-88876238D01*
X142978142Y-88971476D01*
X143073380Y-89019095D01*
X141644809Y-89066714D02*
X141644809Y-89733380D01*
X142073380Y-89066714D02*
X142073380Y-89590523D01*
X142025761Y-89685761D01*
X141930523Y-89733380D01*
X141787666Y-89733380D01*
X141692428Y-89685761D01*
X141644809Y-89638142D01*
X140835285Y-89209571D02*
X141168619Y-89209571D01*
X141168619Y-89733380D02*
X141168619Y-88733380D01*
X140692428Y-88733380D01*
X130928857Y-88860380D02*
X130833619Y-88860380D01*
X130738380Y-88908000D01*
X130690761Y-88955619D01*
X130643142Y-89050857D01*
X130595523Y-89241333D01*
X130595523Y-89479428D01*
X130643142Y-89669904D01*
X130690761Y-89765142D01*
X130738380Y-89812761D01*
X130833619Y-89860380D01*
X130928857Y-89860380D01*
X131024095Y-89812761D01*
X131071714Y-89765142D01*
X131119333Y-89669904D01*
X131166952Y-89479428D01*
X131166952Y-89241333D01*
X131119333Y-89050857D01*
X131071714Y-88955619D01*
X131024095Y-88908000D01*
X130928857Y-88860380D01*
X130166952Y-89765142D02*
X130119333Y-89812761D01*
X130166952Y-89860380D01*
X130214571Y-89812761D01*
X130166952Y-89765142D01*
X130166952Y-89860380D01*
X129166952Y-89860380D02*
X129738380Y-89860380D01*
X129452666Y-89860380D02*
X129452666Y-88860380D01*
X129547904Y-89003238D01*
X129643142Y-89098476D01*
X129738380Y-89146095D01*
X128309809Y-89193714D02*
X128309809Y-89860380D01*
X128738380Y-89193714D02*
X128738380Y-89717523D01*
X128690761Y-89812761D01*
X128595523Y-89860380D01*
X128452666Y-89860380D01*
X128357428Y-89812761D01*
X128309809Y-89765142D01*
X127500285Y-89336571D02*
X127833619Y-89336571D01*
X127833619Y-89860380D02*
X127833619Y-88860380D01*
X127357428Y-88860380D01*
D11*
G04 #@! TO.C,C102*
X114157000Y-134751000D02*
X112157000Y-134751000D01*
X112157000Y-132711000D02*
X114157000Y-132711000D01*
G04 #@! TO.C,C103*
X116590000Y-137335000D02*
X116590000Y-139335000D01*
X114550000Y-139335000D02*
X114550000Y-137335000D01*
G04 #@! TO.C,C104*
X161540000Y-100881787D02*
X161540000Y-98881787D01*
X163580000Y-98881787D02*
X163580000Y-100881787D01*
G04 #@! TO.C,C105*
X119130000Y-137335000D02*
X119130000Y-139335000D01*
X117090000Y-139335000D02*
X117090000Y-137335000D01*
G04 #@! TO.C,C106*
X159076464Y-106838787D02*
X157076464Y-106838787D01*
X157076464Y-104798787D02*
X159076464Y-104798787D01*
G04 #@! TO.C,C107*
X159076464Y-104679787D02*
X157076464Y-104679787D01*
X157076464Y-102639787D02*
X159076464Y-102639787D01*
G04 #@! TO.C,C108*
X170233277Y-86702081D02*
X168233277Y-86702081D01*
X168233277Y-84662081D02*
X170233277Y-84662081D01*
G04 #@! TO.C,C109*
X156962277Y-86702081D02*
X154962277Y-86702081D01*
X154962277Y-84662081D02*
X156962277Y-84662081D01*
G04 #@! TO.C,C112*
X130260277Y-86829081D02*
X128260277Y-86829081D01*
X128260277Y-84789081D02*
X130260277Y-84789081D01*
G04 #@! TO.C,C113*
X143595277Y-86702081D02*
X141595277Y-86702081D01*
X141595277Y-84662081D02*
X143595277Y-84662081D01*
G04 #@! TO.C,LD33V_0*
X107830000Y-120055000D02*
X107830000Y-109815000D01*
X123720000Y-120055000D02*
X123720000Y-109815000D01*
X123720000Y-120055000D02*
X107830000Y-120055000D01*
X123720000Y-109815000D02*
X107830000Y-109815000D01*
X107830000Y-117475000D02*
X105190000Y-117475000D01*
X107830000Y-114935000D02*
X105206000Y-114935000D01*
X107830000Y-112395000D02*
X105206000Y-112395000D01*
G04 #@! TO.C,C102*
D12*
X110895307Y-135919482D02*
X110942926Y-135967101D01*
X111085783Y-136014720D01*
X111181021Y-136014720D01*
X111323879Y-135967101D01*
X111419117Y-135871863D01*
X111466736Y-135776625D01*
X111514355Y-135586149D01*
X111514355Y-135443292D01*
X111466736Y-135252816D01*
X111419117Y-135157578D01*
X111323879Y-135062340D01*
X111181021Y-135014720D01*
X111085783Y-135014720D01*
X110942926Y-135062340D01*
X110895307Y-135109959D01*
X109942926Y-136014720D02*
X110514355Y-136014720D01*
X110228640Y-136014720D02*
X110228640Y-135014720D01*
X110323879Y-135157578D01*
X110419117Y-135252816D01*
X110514355Y-135300435D01*
X109323879Y-135014720D02*
X109228640Y-135014720D01*
X109133402Y-135062340D01*
X109085783Y-135109959D01*
X109038164Y-135205197D01*
X108990545Y-135395673D01*
X108990545Y-135633768D01*
X109038164Y-135824244D01*
X109085783Y-135919482D01*
X109133402Y-135967101D01*
X109228640Y-136014720D01*
X109323879Y-136014720D01*
X109419117Y-135967101D01*
X109466736Y-135919482D01*
X109514355Y-135824244D01*
X109561974Y-135633768D01*
X109561974Y-135395673D01*
X109514355Y-135205197D01*
X109466736Y-135109959D01*
X109419117Y-135062340D01*
X109323879Y-135014720D01*
X108609593Y-135109959D02*
X108561974Y-135062340D01*
X108466736Y-135014720D01*
X108228640Y-135014720D01*
X108133402Y-135062340D01*
X108085783Y-135109959D01*
X108038164Y-135205197D01*
X108038164Y-135300435D01*
X108085783Y-135443292D01*
X108657212Y-136014720D01*
X108038164Y-136014720D01*
G04 #@! TO.C,C103*
X118147007Y-143140702D02*
X118194626Y-143188321D01*
X118337483Y-143235940D01*
X118432721Y-143235940D01*
X118575579Y-143188321D01*
X118670817Y-143093083D01*
X118718436Y-142997845D01*
X118766055Y-142807369D01*
X118766055Y-142664512D01*
X118718436Y-142474036D01*
X118670817Y-142378798D01*
X118575579Y-142283560D01*
X118432721Y-142235940D01*
X118337483Y-142235940D01*
X118194626Y-142283560D01*
X118147007Y-142331179D01*
X117194626Y-143235940D02*
X117766055Y-143235940D01*
X117480340Y-143235940D02*
X117480340Y-142235940D01*
X117575579Y-142378798D01*
X117670817Y-142474036D01*
X117766055Y-142521655D01*
X116575579Y-142235940D02*
X116480340Y-142235940D01*
X116385102Y-142283560D01*
X116337483Y-142331179D01*
X116289864Y-142426417D01*
X116242245Y-142616893D01*
X116242245Y-142854988D01*
X116289864Y-143045464D01*
X116337483Y-143140702D01*
X116385102Y-143188321D01*
X116480340Y-143235940D01*
X116575579Y-143235940D01*
X116670817Y-143188321D01*
X116718436Y-143140702D01*
X116766055Y-143045464D01*
X116813674Y-142854988D01*
X116813674Y-142616893D01*
X116766055Y-142426417D01*
X116718436Y-142331179D01*
X116670817Y-142283560D01*
X116575579Y-142235940D01*
X115908912Y-142235940D02*
X115289864Y-142235940D01*
X115623198Y-142616893D01*
X115480340Y-142616893D01*
X115385102Y-142664512D01*
X115337483Y-142712131D01*
X115289864Y-142807369D01*
X115289864Y-143045464D01*
X115337483Y-143140702D01*
X115385102Y-143188321D01*
X115480340Y-143235940D01*
X115766055Y-143235940D01*
X115861293Y-143188321D01*
X115908912Y-143140702D01*
G04 #@! TO.C,C104*
X161167142Y-98762739D02*
X161214761Y-98715120D01*
X161262380Y-98572263D01*
X161262380Y-98477025D01*
X161214761Y-98334167D01*
X161119523Y-98238929D01*
X161024285Y-98191310D01*
X160833809Y-98143691D01*
X160690952Y-98143691D01*
X160500476Y-98191310D01*
X160405238Y-98238929D01*
X160310000Y-98334167D01*
X160262380Y-98477025D01*
X160262380Y-98572263D01*
X160310000Y-98715120D01*
X160357619Y-98762739D01*
X161262380Y-99715120D02*
X161262380Y-99143691D01*
X161262380Y-99429406D02*
X160262380Y-99429406D01*
X160405238Y-99334167D01*
X160500476Y-99238929D01*
X160548095Y-99143691D01*
X160262380Y-100334167D02*
X160262380Y-100429406D01*
X160310000Y-100524644D01*
X160357619Y-100572263D01*
X160452857Y-100619882D01*
X160643333Y-100667501D01*
X160881428Y-100667501D01*
X161071904Y-100619882D01*
X161167142Y-100572263D01*
X161214761Y-100524644D01*
X161262380Y-100429406D01*
X161262380Y-100334167D01*
X161214761Y-100238929D01*
X161167142Y-100191310D01*
X161071904Y-100143691D01*
X160881428Y-100096072D01*
X160643333Y-100096072D01*
X160452857Y-100143691D01*
X160357619Y-100191310D01*
X160310000Y-100238929D01*
X160262380Y-100334167D01*
X160595714Y-101524644D02*
X161262380Y-101524644D01*
X160214761Y-101286548D02*
X160929047Y-101048453D01*
X160929047Y-101667501D01*
G04 #@! TO.C,C105*
X120725202Y-138352352D02*
X120772821Y-138304733D01*
X120820440Y-138161876D01*
X120820440Y-138066638D01*
X120772821Y-137923780D01*
X120677583Y-137828542D01*
X120582345Y-137780923D01*
X120391869Y-137733304D01*
X120249012Y-137733304D01*
X120058536Y-137780923D01*
X119963298Y-137828542D01*
X119868060Y-137923780D01*
X119820440Y-138066638D01*
X119820440Y-138161876D01*
X119868060Y-138304733D01*
X119915679Y-138352352D01*
X120820440Y-139304733D02*
X120820440Y-138733304D01*
X120820440Y-139019019D02*
X119820440Y-139019019D01*
X119963298Y-138923780D01*
X120058536Y-138828542D01*
X120106155Y-138733304D01*
X119820440Y-139923780D02*
X119820440Y-140019019D01*
X119868060Y-140114257D01*
X119915679Y-140161876D01*
X120010917Y-140209495D01*
X120201393Y-140257114D01*
X120439488Y-140257114D01*
X120629964Y-140209495D01*
X120725202Y-140161876D01*
X120772821Y-140114257D01*
X120820440Y-140019019D01*
X120820440Y-139923780D01*
X120772821Y-139828542D01*
X120725202Y-139780923D01*
X120629964Y-139733304D01*
X120439488Y-139685685D01*
X120201393Y-139685685D01*
X120010917Y-139733304D01*
X119915679Y-139780923D01*
X119868060Y-139828542D01*
X119820440Y-139923780D01*
X119820440Y-141161876D02*
X119820440Y-140685685D01*
X120296631Y-140638066D01*
X120249012Y-140685685D01*
X120201393Y-140780923D01*
X120201393Y-141019019D01*
X120249012Y-141114257D01*
X120296631Y-141161876D01*
X120391869Y-141209495D01*
X120629964Y-141209495D01*
X120725202Y-141161876D01*
X120772821Y-141114257D01*
X120820440Y-141019019D01*
X120820440Y-140780923D01*
X120772821Y-140685685D01*
X120725202Y-140638066D01*
G04 #@! TO.C,C106*
X158593967Y-108307142D02*
X158641586Y-108354761D01*
X158784443Y-108402380D01*
X158879681Y-108402380D01*
X159022539Y-108354761D01*
X159117777Y-108259523D01*
X159165396Y-108164285D01*
X159213015Y-107973809D01*
X159213015Y-107830952D01*
X159165396Y-107640476D01*
X159117777Y-107545238D01*
X159022539Y-107450000D01*
X158879681Y-107402380D01*
X158784443Y-107402380D01*
X158641586Y-107450000D01*
X158593967Y-107497619D01*
X157641586Y-108402380D02*
X158213015Y-108402380D01*
X157927300Y-108402380D02*
X157927300Y-107402380D01*
X158022539Y-107545238D01*
X158117777Y-107640476D01*
X158213015Y-107688095D01*
X157022539Y-107402380D02*
X156927300Y-107402380D01*
X156832062Y-107450000D01*
X156784443Y-107497619D01*
X156736824Y-107592857D01*
X156689205Y-107783333D01*
X156689205Y-108021428D01*
X156736824Y-108211904D01*
X156784443Y-108307142D01*
X156832062Y-108354761D01*
X156927300Y-108402380D01*
X157022539Y-108402380D01*
X157117777Y-108354761D01*
X157165396Y-108307142D01*
X157213015Y-108211904D01*
X157260634Y-108021428D01*
X157260634Y-107783333D01*
X157213015Y-107592857D01*
X157165396Y-107497619D01*
X157117777Y-107450000D01*
X157022539Y-107402380D01*
X155832062Y-107402380D02*
X156022539Y-107402380D01*
X156117777Y-107450000D01*
X156165396Y-107497619D01*
X156260634Y-107640476D01*
X156308253Y-107830952D01*
X156308253Y-108211904D01*
X156260634Y-108307142D01*
X156213015Y-108354761D01*
X156117777Y-108402380D01*
X155927300Y-108402380D01*
X155832062Y-108354761D01*
X155784443Y-108307142D01*
X155736824Y-108211904D01*
X155736824Y-107973809D01*
X155784443Y-107878571D01*
X155832062Y-107830952D01*
X155927300Y-107783333D01*
X156117777Y-107783333D01*
X156213015Y-107830952D01*
X156260634Y-107878571D01*
X156308253Y-107973809D01*
G04 #@! TO.C,C107*
X159226427Y-102203522D02*
X159274046Y-102251141D01*
X159416903Y-102298760D01*
X159512141Y-102298760D01*
X159654999Y-102251141D01*
X159750237Y-102155903D01*
X159797856Y-102060665D01*
X159845475Y-101870189D01*
X159845475Y-101727332D01*
X159797856Y-101536856D01*
X159750237Y-101441618D01*
X159654999Y-101346380D01*
X159512141Y-101298760D01*
X159416903Y-101298760D01*
X159274046Y-101346380D01*
X159226427Y-101393999D01*
X158274046Y-102298760D02*
X158845475Y-102298760D01*
X158559760Y-102298760D02*
X158559760Y-101298760D01*
X158654999Y-101441618D01*
X158750237Y-101536856D01*
X158845475Y-101584475D01*
X157654999Y-101298760D02*
X157559760Y-101298760D01*
X157464522Y-101346380D01*
X157416903Y-101393999D01*
X157369284Y-101489237D01*
X157321665Y-101679713D01*
X157321665Y-101917808D01*
X157369284Y-102108284D01*
X157416903Y-102203522D01*
X157464522Y-102251141D01*
X157559760Y-102298760D01*
X157654999Y-102298760D01*
X157750237Y-102251141D01*
X157797856Y-102203522D01*
X157845475Y-102108284D01*
X157893094Y-101917808D01*
X157893094Y-101679713D01*
X157845475Y-101489237D01*
X157797856Y-101393999D01*
X157750237Y-101346380D01*
X157654999Y-101298760D01*
X156988332Y-101298760D02*
X156321665Y-101298760D01*
X156750237Y-102298760D01*
G04 #@! TO.C,C108*
X170352324Y-87789223D02*
X170399943Y-87836842D01*
X170542800Y-87884461D01*
X170638038Y-87884461D01*
X170780896Y-87836842D01*
X170876134Y-87741604D01*
X170923753Y-87646366D01*
X170971372Y-87455890D01*
X170971372Y-87313033D01*
X170923753Y-87122557D01*
X170876134Y-87027319D01*
X170780896Y-86932081D01*
X170638038Y-86884461D01*
X170542800Y-86884461D01*
X170399943Y-86932081D01*
X170352324Y-86979700D01*
X169399943Y-87884461D02*
X169971372Y-87884461D01*
X169685657Y-87884461D02*
X169685657Y-86884461D01*
X169780896Y-87027319D01*
X169876134Y-87122557D01*
X169971372Y-87170176D01*
X168780896Y-86884461D02*
X168685657Y-86884461D01*
X168590419Y-86932081D01*
X168542800Y-86979700D01*
X168495181Y-87074938D01*
X168447562Y-87265414D01*
X168447562Y-87503509D01*
X168495181Y-87693985D01*
X168542800Y-87789223D01*
X168590419Y-87836842D01*
X168685657Y-87884461D01*
X168780896Y-87884461D01*
X168876134Y-87836842D01*
X168923753Y-87789223D01*
X168971372Y-87693985D01*
X169018991Y-87503509D01*
X169018991Y-87265414D01*
X168971372Y-87074938D01*
X168923753Y-86979700D01*
X168876134Y-86932081D01*
X168780896Y-86884461D01*
X167876134Y-87313033D02*
X167971372Y-87265414D01*
X168018991Y-87217795D01*
X168066610Y-87122557D01*
X168066610Y-87074938D01*
X168018991Y-86979700D01*
X167971372Y-86932081D01*
X167876134Y-86884461D01*
X167685657Y-86884461D01*
X167590419Y-86932081D01*
X167542800Y-86979700D01*
X167495181Y-87074938D01*
X167495181Y-87122557D01*
X167542800Y-87217795D01*
X167590419Y-87265414D01*
X167685657Y-87313033D01*
X167876134Y-87313033D01*
X167971372Y-87360652D01*
X168018991Y-87408271D01*
X168066610Y-87503509D01*
X168066610Y-87693985D01*
X168018991Y-87789223D01*
X167971372Y-87836842D01*
X167876134Y-87884461D01*
X167685657Y-87884461D01*
X167590419Y-87836842D01*
X167542800Y-87789223D01*
X167495181Y-87693985D01*
X167495181Y-87503509D01*
X167542800Y-87408271D01*
X167590419Y-87360652D01*
X167685657Y-87313033D01*
G04 #@! TO.C,C109*
X157081324Y-87789223D02*
X157128943Y-87836842D01*
X157271800Y-87884461D01*
X157367038Y-87884461D01*
X157509896Y-87836842D01*
X157605134Y-87741604D01*
X157652753Y-87646366D01*
X157700372Y-87455890D01*
X157700372Y-87313033D01*
X157652753Y-87122557D01*
X157605134Y-87027319D01*
X157509896Y-86932081D01*
X157367038Y-86884461D01*
X157271800Y-86884461D01*
X157128943Y-86932081D01*
X157081324Y-86979700D01*
X156128943Y-87884461D02*
X156700372Y-87884461D01*
X156414657Y-87884461D02*
X156414657Y-86884461D01*
X156509896Y-87027319D01*
X156605134Y-87122557D01*
X156700372Y-87170176D01*
X155509896Y-86884461D02*
X155414657Y-86884461D01*
X155319419Y-86932081D01*
X155271800Y-86979700D01*
X155224181Y-87074938D01*
X155176562Y-87265414D01*
X155176562Y-87503509D01*
X155224181Y-87693985D01*
X155271800Y-87789223D01*
X155319419Y-87836842D01*
X155414657Y-87884461D01*
X155509896Y-87884461D01*
X155605134Y-87836842D01*
X155652753Y-87789223D01*
X155700372Y-87693985D01*
X155747991Y-87503509D01*
X155747991Y-87265414D01*
X155700372Y-87074938D01*
X155652753Y-86979700D01*
X155605134Y-86932081D01*
X155509896Y-86884461D01*
X154700372Y-87884461D02*
X154509896Y-87884461D01*
X154414657Y-87836842D01*
X154367038Y-87789223D01*
X154271800Y-87646366D01*
X154224181Y-87455890D01*
X154224181Y-87074938D01*
X154271800Y-86979700D01*
X154319419Y-86932081D01*
X154414657Y-86884461D01*
X154605134Y-86884461D01*
X154700372Y-86932081D01*
X154747991Y-86979700D01*
X154795610Y-87074938D01*
X154795610Y-87313033D01*
X154747991Y-87408271D01*
X154700372Y-87455890D01*
X154605134Y-87503509D01*
X154414657Y-87503509D01*
X154319419Y-87455890D01*
X154271800Y-87408271D01*
X154224181Y-87313033D01*
G04 #@! TO.C,C112*
X130379324Y-87916223D02*
X130426943Y-87963842D01*
X130569800Y-88011461D01*
X130665038Y-88011461D01*
X130807896Y-87963842D01*
X130903134Y-87868604D01*
X130950753Y-87773366D01*
X130998372Y-87582890D01*
X130998372Y-87440033D01*
X130950753Y-87249557D01*
X130903134Y-87154319D01*
X130807896Y-87059081D01*
X130665038Y-87011461D01*
X130569800Y-87011461D01*
X130426943Y-87059081D01*
X130379324Y-87106700D01*
X129426943Y-88011461D02*
X129998372Y-88011461D01*
X129712657Y-88011461D02*
X129712657Y-87011461D01*
X129807896Y-87154319D01*
X129903134Y-87249557D01*
X129998372Y-87297176D01*
X128474562Y-88011461D02*
X129045991Y-88011461D01*
X128760277Y-88011461D02*
X128760277Y-87011461D01*
X128855515Y-87154319D01*
X128950753Y-87249557D01*
X129045991Y-87297176D01*
X128093610Y-87106700D02*
X128045991Y-87059081D01*
X127950753Y-87011461D01*
X127712657Y-87011461D01*
X127617419Y-87059081D01*
X127569800Y-87106700D01*
X127522181Y-87201938D01*
X127522181Y-87297176D01*
X127569800Y-87440033D01*
X128141229Y-88011461D01*
X127522181Y-88011461D01*
G04 #@! TO.C,C113*
X143714324Y-87789223D02*
X143761943Y-87836842D01*
X143904800Y-87884461D01*
X144000038Y-87884461D01*
X144142896Y-87836842D01*
X144238134Y-87741604D01*
X144285753Y-87646366D01*
X144333372Y-87455890D01*
X144333372Y-87313033D01*
X144285753Y-87122557D01*
X144238134Y-87027319D01*
X144142896Y-86932081D01*
X144000038Y-86884461D01*
X143904800Y-86884461D01*
X143761943Y-86932081D01*
X143714324Y-86979700D01*
X142761943Y-87884461D02*
X143333372Y-87884461D01*
X143047657Y-87884461D02*
X143047657Y-86884461D01*
X143142896Y-87027319D01*
X143238134Y-87122557D01*
X143333372Y-87170176D01*
X141809562Y-87884461D02*
X142380991Y-87884461D01*
X142095277Y-87884461D02*
X142095277Y-86884461D01*
X142190515Y-87027319D01*
X142285753Y-87122557D01*
X142380991Y-87170176D01*
X141476229Y-86884461D02*
X140857181Y-86884461D01*
X141190515Y-87265414D01*
X141047657Y-87265414D01*
X140952419Y-87313033D01*
X140904800Y-87360652D01*
X140857181Y-87455890D01*
X140857181Y-87693985D01*
X140904800Y-87789223D01*
X140952419Y-87836842D01*
X141047657Y-87884461D01*
X141333372Y-87884461D01*
X141428610Y-87836842D01*
X141476229Y-87789223D01*
G04 #@! TO.C,LD33V_0*
X125172380Y-112506428D02*
X125172380Y-112030238D01*
X124172380Y-112030238D01*
X125172380Y-112839761D02*
X124172380Y-112839761D01*
X124172380Y-113077857D01*
X124220000Y-113220714D01*
X124315238Y-113315952D01*
X124410476Y-113363571D01*
X124600952Y-113411190D01*
X124743809Y-113411190D01*
X124934285Y-113363571D01*
X125029523Y-113315952D01*
X125124761Y-113220714D01*
X125172380Y-113077857D01*
X125172380Y-112839761D01*
X124172380Y-113744523D02*
X124172380Y-114363571D01*
X124553333Y-114030238D01*
X124553333Y-114173095D01*
X124600952Y-114268333D01*
X124648571Y-114315952D01*
X124743809Y-114363571D01*
X124981904Y-114363571D01*
X125077142Y-114315952D01*
X125124761Y-114268333D01*
X125172380Y-114173095D01*
X125172380Y-113887380D01*
X125124761Y-113792142D01*
X125077142Y-113744523D01*
X124172380Y-114696904D02*
X124172380Y-115315952D01*
X124553333Y-114982619D01*
X124553333Y-115125476D01*
X124600952Y-115220714D01*
X124648571Y-115268333D01*
X124743809Y-115315952D01*
X124981904Y-115315952D01*
X125077142Y-115268333D01*
X125124761Y-115220714D01*
X125172380Y-115125476D01*
X125172380Y-114839761D01*
X125124761Y-114744523D01*
X125077142Y-114696904D01*
X124172380Y-115601666D02*
X125172380Y-115935000D01*
X124172380Y-116268333D01*
X125267619Y-116363571D02*
X125267619Y-117125476D01*
X124172380Y-117554047D02*
X124172380Y-117649285D01*
X124220000Y-117744523D01*
X124267619Y-117792142D01*
X124362857Y-117839761D01*
X124553333Y-117887380D01*
X124791428Y-117887380D01*
X124981904Y-117839761D01*
X125077142Y-117792142D01*
X125124761Y-117744523D01*
X125172380Y-117649285D01*
X125172380Y-117554047D01*
X125124761Y-117458809D01*
X125077142Y-117411190D01*
X124981904Y-117363571D01*
X124791428Y-117315952D01*
X124553333Y-117315952D01*
X124362857Y-117363571D01*
X124267619Y-117411190D01*
X124220000Y-117458809D01*
X124172380Y-117554047D01*
G04 #@! TD*
%LPC*%
G36*
X128016000Y-83820000D02*
X128016000Y-77216000D01*
X130937000Y-77216000D01*
X130937000Y-83820000D01*
X128016000Y-83820000D01*
G37*
X128016000Y-83820000D02*
X128016000Y-77216000D01*
X130937000Y-77216000D01*
X130937000Y-83820000D01*
X128016000Y-83820000D01*
G36*
X141097000Y-80899000D02*
X141097000Y-77216000D01*
X144272000Y-77216000D01*
X144272000Y-80899000D01*
X141097000Y-80899000D01*
G37*
X141097000Y-80899000D02*
X141097000Y-77216000D01*
X144272000Y-77216000D01*
X144272000Y-80899000D01*
X141097000Y-80899000D01*
G36*
X154432000Y-81153000D02*
X154432000Y-77343000D01*
X157607000Y-77343000D01*
X157607000Y-81153000D01*
X154432000Y-81153000D01*
G37*
X154432000Y-81153000D02*
X154432000Y-77343000D01*
X157607000Y-77343000D01*
X157607000Y-81153000D01*
X154432000Y-81153000D01*
G36*
X167894000Y-81153000D02*
X167894000Y-77343000D01*
X171069000Y-77343000D01*
X171069000Y-81153000D01*
X167894000Y-81153000D01*
G37*
X167894000Y-81153000D02*
X167894000Y-77343000D01*
X171069000Y-77343000D01*
X171069000Y-81153000D01*
X167894000Y-81153000D01*
D13*
G04 #@! TO.C,XERR_CH3_BRIDGE0*
X124079000Y-90932000D03*
D14*
X124079000Y-88392000D03*
G04 #@! TD*
G04 #@! TO.C,XERR_CH0_BRIDGE0*
X162687000Y-80391000D03*
G04 #@! TD*
G04 #@! TO.C,XERR_CH2_BRIDGE1*
X136017000Y-88178999D03*
G04 #@! TD*
G04 #@! TO.C,XERR_CH0_BRIDGE1*
X162687000Y-88178999D03*
G04 #@! TD*
G04 #@! TO.C,XERR_CH1_BRIDGE0*
X149352000Y-80264000D03*
G04 #@! TD*
G04 #@! TO.C,XERR_CH2_BRIDGE0*
X136017000Y-80264000D03*
G04 #@! TD*
G04 #@! TO.C,XERR_CH1_BRIDGE1*
X149352000Y-88178999D03*
G04 #@! TD*
G04 #@! TO.C,AUX_I/O_0*
X140970000Y-139700000D03*
D15*
X140970000Y-137160000D03*
X143510000Y-139700000D03*
X143510000Y-137160000D03*
X146050000Y-139700000D03*
X146050000Y-137160000D03*
X148590000Y-139700000D03*
X148590000Y-137160000D03*
X151130000Y-139700000D03*
X151130000Y-137160000D03*
X153670000Y-139700000D03*
X153670000Y-137160000D03*
X156210000Y-139700000D03*
X156210000Y-137160000D03*
X158750000Y-139700000D03*
X158750000Y-137160000D03*
G04 #@! TD*
D16*
G04 #@! TO.C,C101*
X87884000Y-97917000D03*
D17*
X90384000Y-97917000D03*
G04 #@! TD*
D18*
G04 #@! TO.C,C102*
X111157000Y-133731000D03*
X115157000Y-133731000D03*
G04 #@! TD*
D19*
G04 #@! TO.C,C103*
X115570000Y-140335000D03*
X115570000Y-136335000D03*
G04 #@! TD*
G04 #@! TO.C,C104*
X162560000Y-97881787D03*
X162560000Y-101881787D03*
G04 #@! TD*
G04 #@! TO.C,C105*
X118110000Y-140335000D03*
X118110000Y-136335000D03*
G04 #@! TD*
D18*
G04 #@! TO.C,C106*
X156076464Y-105818787D03*
X160076464Y-105818787D03*
G04 #@! TD*
G04 #@! TO.C,C107*
X156076464Y-103659787D03*
X160076464Y-103659787D03*
G04 #@! TD*
G04 #@! TO.C,C108*
X167233277Y-85682081D03*
X171233277Y-85682081D03*
G04 #@! TD*
G04 #@! TO.C,C109*
X153962277Y-85682081D03*
X157962277Y-85682081D03*
G04 #@! TD*
D16*
G04 #@! TO.C,C110*
X95504000Y-105537000D03*
D17*
X98004000Y-105537000D03*
G04 #@! TD*
D16*
G04 #@! TO.C,C111*
X95504000Y-97917000D03*
D17*
X98004000Y-97917000D03*
G04 #@! TD*
D18*
G04 #@! TO.C,C112*
X127260277Y-85809081D03*
X131260277Y-85809081D03*
G04 #@! TD*
G04 #@! TO.C,C113*
X140595277Y-85682081D03*
X144595277Y-85682081D03*
G04 #@! TD*
D16*
G04 #@! TO.C,C114*
X87884000Y-105537000D03*
D17*
X90384000Y-105537000D03*
G04 #@! TD*
D14*
G04 #@! TO.C,CH340_CKO_0*
X116713000Y-125603000D03*
G04 #@! TD*
G04 #@! TO.C,LAYER_VOUT0*
X94056200Y-52344320D03*
D13*
X96596200Y-52344320D03*
X99136200Y-52344320D03*
X101676200Y-52344320D03*
X104216200Y-52344320D03*
X106756200Y-52344320D03*
X109296200Y-52344320D03*
X111836200Y-52344320D03*
G04 #@! TD*
D20*
G04 #@! TO.C,LD33V_0*
X120800000Y-114935000D03*
D21*
X104140000Y-117475000D03*
D22*
X104140000Y-114935000D03*
X104140000Y-112395000D03*
G04 #@! TD*
D14*
G04 #@! TO.C,LED_CH0*
X170662277Y-69680081D03*
D15*
X168122277Y-69680081D03*
X170662277Y-67140081D03*
X168122277Y-67140081D03*
X170662277Y-64600081D03*
X168122277Y-64600081D03*
X170662277Y-62060081D03*
X168122277Y-62060081D03*
X170662277Y-59520081D03*
X168122277Y-59520081D03*
X170662277Y-56980081D03*
X168122277Y-56980081D03*
X170662277Y-54440081D03*
X168122277Y-54440081D03*
X170662277Y-51900081D03*
X168122277Y-51900081D03*
G04 #@! TD*
D14*
G04 #@! TO.C,LED_CH1*
X157327277Y-69680081D03*
D15*
X154787277Y-69680081D03*
X157327277Y-67140081D03*
X154787277Y-67140081D03*
X157327277Y-64600081D03*
X154787277Y-64600081D03*
X157327277Y-62060081D03*
X154787277Y-62060081D03*
X157327277Y-59520081D03*
X154787277Y-59520081D03*
X157327277Y-56980081D03*
X154787277Y-56980081D03*
X157327277Y-54440081D03*
X154787277Y-54440081D03*
X157327277Y-51900081D03*
X154787277Y-51900081D03*
G04 #@! TD*
D14*
G04 #@! TO.C,LED_CH2*
X143992277Y-69680081D03*
D15*
X141452277Y-69680081D03*
X143992277Y-67140081D03*
X141452277Y-67140081D03*
X143992277Y-64600081D03*
X141452277Y-64600081D03*
X143992277Y-62060081D03*
X141452277Y-62060081D03*
X143992277Y-59520081D03*
X141452277Y-59520081D03*
X143992277Y-56980081D03*
X141452277Y-56980081D03*
X143992277Y-54440081D03*
X141452277Y-54440081D03*
X143992277Y-51900081D03*
X141452277Y-51900081D03*
G04 #@! TD*
D14*
G04 #@! TO.C,LED_CH3*
X130657277Y-69680081D03*
D15*
X128117277Y-69680081D03*
X130657277Y-67140081D03*
X128117277Y-67140081D03*
X130657277Y-64600081D03*
X128117277Y-64600081D03*
X130657277Y-62060081D03*
X128117277Y-62060081D03*
X130657277Y-59520081D03*
X128117277Y-59520081D03*
X130657277Y-56980081D03*
X128117277Y-56980081D03*
X130657277Y-54440081D03*
X128117277Y-54440081D03*
X130657277Y-51900081D03*
X128117277Y-51900081D03*
G04 #@! TD*
D23*
G04 #@! TO.C,PWR_JACK0*
X97440000Y-114935000D03*
X91440000Y-114935000D03*
X94440000Y-119635000D03*
G04 #@! TD*
D14*
G04 #@! TO.C,PWR_SEL1*
X99425760Y-125254640D03*
D13*
X96885760Y-125254640D03*
X94345760Y-125254640D03*
G04 #@! TD*
D24*
G04 #@! TO.C,SWDEBUG0*
X177972720Y-123281440D03*
D25*
X179242720Y-123281440D03*
X177972720Y-124551440D03*
X179242720Y-124551440D03*
X177972720Y-125821440D03*
X179242720Y-125821440D03*
X177972720Y-127091440D03*
X179242720Y-127091440D03*
X177972720Y-128361440D03*
X179242720Y-128361440D03*
G04 #@! TD*
D26*
G04 #@! TO.C,USB_CONN_0*
X98680000Y-134905000D03*
X98680000Y-137445000D03*
X96680000Y-137445000D03*
X96680000Y-134905000D03*
D27*
X93980000Y-130175000D03*
X93980000Y-142175000D03*
G04 #@! TD*
D14*
G04 #@! TO.C,Wireless/SPI_1*
X176530000Y-133350000D03*
D13*
X179070000Y-133350000D03*
X176530000Y-135890000D03*
X179070000Y-135890000D03*
X176530000Y-138430000D03*
X179070000Y-138430000D03*
X176530000Y-140970000D03*
X179070000Y-140970000D03*
G04 #@! TD*
D28*
G04 #@! TO.C,Y101*
X108150000Y-140335000D03*
X113030000Y-140335000D03*
G04 #@! TD*
G04 #@! TO.C,Y102*
X153472464Y-107396787D03*
X153472464Y-102516787D03*
G04 #@! TD*
D29*
G04 #@! TO.C,RESET0*
X175549560Y-111094520D03*
X180629560Y-111094520D03*
X175549560Y-118714520D03*
X180629560Y-118714520D03*
G04 #@! TD*
D16*
G04 #@! TO.C,MODE_SELECT_0*
X158044464Y-95785787D03*
D30*
X150424464Y-93245787D03*
X158044464Y-93245787D03*
X150424464Y-95785787D03*
G04 #@! TD*
M02*
