G04 #@! TF.GenerationSoftware,KiCad,Pcbnew,(5.0.0)*
G04 #@! TF.CreationDate,2018-10-27T23:25:50-07:00*
G04 #@! TF.ProjectId,LPC1114_LED_Cube,4C5043313131345F4C45445F43756265,rev?*
G04 #@! TF.SameCoordinates,Original*
G04 #@! TF.FileFunction,Soldermask,Top*
G04 #@! TF.FilePolarity,Negative*
%FSLAX46Y46*%
G04 Gerber Fmt 4.6, Leading zero omitted, Abs format (unit mm)*
G04 Created by KiCad (PCBNEW (5.0.0)) date 10/27/18 23:25:50*
%MOMM*%
%LPD*%
G01*
G04 APERTURE LIST*
%ADD10R,2.100000X2.400000*%
%ADD11R,2.400000X2.100000*%
%ADD12O,2.100000X2.100000*%
%ADD13R,2.100000X2.100000*%
%ADD14R,1.500000X0.800000*%
%ADD15R,1.600000X1.942500*%
%ADD16R,1.700000X0.650000*%
%ADD17R,0.650000X1.700000*%
%ADD18C,2.100000*%
%ADD19R,2.000000X2.000000*%
%ADD20C,2.000000*%
%ADD21R,2.150000X0.850000*%
%ADD22O,3.900000X3.900000*%
%ADD23R,2.200000X2.200000*%
%ADD24O,2.200000X2.200000*%
%ADD25R,3.900000X3.900000*%
%ADD26R,1.300000X1.200000*%
%ADD27R,1.400000X1.400000*%
%ADD28O,1.400000X1.400000*%
%ADD29C,1.920000*%
%ADD30C,3.100000*%
%ADD31C,1.900000*%
%ADD32C,1.797000*%
%ADD33O,2.000000X2.000000*%
G04 APERTURE END LIST*
D10*
G04 #@! TO.C,R223*
X119507000Y-95250000D03*
X119507000Y-99250000D03*
G04 #@! TD*
G04 #@! TO.C,R218*
X105113666Y-99250000D03*
X105113666Y-95250000D03*
G04 #@! TD*
G04 #@! TO.C,R219*
X107992332Y-95250000D03*
X107992332Y-99250000D03*
G04 #@! TD*
G04 #@! TO.C,R220*
X110870998Y-99250000D03*
X110870998Y-95250000D03*
G04 #@! TD*
G04 #@! TO.C,R221*
X113749664Y-95250000D03*
X113749664Y-99250000D03*
G04 #@! TD*
G04 #@! TO.C,R222*
X116628330Y-99250000D03*
X116628330Y-95250000D03*
G04 #@! TD*
D11*
G04 #@! TO.C,R224*
X122428000Y-95123000D03*
X126428000Y-95123000D03*
G04 #@! TD*
D10*
G04 #@! TO.C,R217*
X102235000Y-99250000D03*
X102235000Y-95250000D03*
G04 #@! TD*
D12*
G04 #@! TO.C,XERR_CH3_BRIDGE0*
X124079000Y-90932000D03*
D13*
X124079000Y-88392000D03*
G04 #@! TD*
G04 #@! TO.C,XERR_CH0_BRIDGE0*
X162687000Y-80391000D03*
G04 #@! TD*
G04 #@! TO.C,XERR_CH2_BRIDGE1*
X136017000Y-88178999D03*
G04 #@! TD*
G04 #@! TO.C,XERR_CH0_BRIDGE1*
X162687000Y-88178999D03*
G04 #@! TD*
G04 #@! TO.C,XERR_CH1_BRIDGE0*
X149352000Y-80264000D03*
G04 #@! TD*
G04 #@! TO.C,XERR_CH2_BRIDGE0*
X136017000Y-80264000D03*
G04 #@! TD*
G04 #@! TO.C,XERR_CH1_BRIDGE1*
X149352000Y-88178999D03*
G04 #@! TD*
D10*
G04 #@! TO.C,R209*
X93472000Y-74898000D03*
X93472000Y-70898000D03*
G04 #@! TD*
G04 #@! TO.C,R216*
X117983000Y-79883000D03*
X117983000Y-83883000D03*
G04 #@! TD*
G04 #@! TO.C,R215*
X116332000Y-75565000D03*
X116332000Y-71565000D03*
G04 #@! TD*
G04 #@! TO.C,R214*
X110490000Y-79915000D03*
X110490000Y-83915000D03*
G04 #@! TD*
G04 #@! TO.C,R213*
X108712000Y-74930000D03*
X108712000Y-70930000D03*
G04 #@! TD*
G04 #@! TO.C,R212*
X102997000Y-79883000D03*
X102997000Y-83883000D03*
G04 #@! TD*
G04 #@! TO.C,R211*
X101219000Y-74930000D03*
X101219000Y-70930000D03*
G04 #@! TD*
G04 #@! TO.C,R210*
X95250000Y-79820000D03*
X95250000Y-83820000D03*
G04 #@! TD*
D14*
G04 #@! TO.C,LED_CH2_CTRL0*
X145572277Y-84861081D03*
X145572277Y-84211081D03*
X145572277Y-83561081D03*
X145572277Y-82911081D03*
X145572277Y-82261081D03*
X145572277Y-81611081D03*
X145572277Y-80961081D03*
X145572277Y-80311081D03*
X145572277Y-79661081D03*
X145572277Y-79011081D03*
X145572277Y-78361081D03*
X145572277Y-77711081D03*
X145572277Y-77061081D03*
X145572277Y-76411081D03*
X139872277Y-76411081D03*
X139872277Y-77061081D03*
X139872277Y-77711081D03*
X139872277Y-78361081D03*
X139872277Y-79011081D03*
X139872277Y-79661081D03*
X139872277Y-80311081D03*
X139872277Y-80961081D03*
X139872277Y-81611081D03*
X139872277Y-82261081D03*
X139872277Y-82911081D03*
X139872277Y-83561081D03*
X139872277Y-84211081D03*
X139872277Y-84861081D03*
D15*
X142122277Y-78322331D03*
X142122277Y-79864831D03*
X142122277Y-81407331D03*
X142122277Y-82949831D03*
X143322277Y-78322331D03*
X143322277Y-79864831D03*
X143322277Y-81407331D03*
X143322277Y-82949831D03*
G04 #@! TD*
D16*
G04 #@! TO.C,LPC1114_0*
X158139464Y-101671787D03*
X158139464Y-102171787D03*
X158139464Y-102671787D03*
X158139464Y-103171787D03*
X158139464Y-103671787D03*
X158139464Y-104171787D03*
X158139464Y-104671787D03*
X158139464Y-105171787D03*
X158139464Y-105671787D03*
X158139464Y-106171787D03*
X158139464Y-106671787D03*
X158139464Y-107171787D03*
D17*
X159739464Y-108771787D03*
X160239464Y-108771787D03*
X160739464Y-108771787D03*
X161239464Y-108771787D03*
X161739464Y-108771787D03*
X162239464Y-108771787D03*
X162739464Y-108771787D03*
X163239464Y-108771787D03*
X163739464Y-108771787D03*
X164239464Y-108771787D03*
X164739464Y-108771787D03*
X165239464Y-108771787D03*
D16*
X166839464Y-107171787D03*
X166839464Y-106671787D03*
X166839464Y-106171787D03*
X166839464Y-105671787D03*
X166839464Y-105171787D03*
X166839464Y-104671787D03*
X166839464Y-104171787D03*
X166839464Y-103671787D03*
X166839464Y-103171787D03*
X166839464Y-102671787D03*
X166839464Y-102171787D03*
X166839464Y-101671787D03*
D17*
X165239464Y-100071787D03*
X164739464Y-100071787D03*
X164239464Y-100071787D03*
X163739464Y-100071787D03*
X163239464Y-100071787D03*
X162739464Y-100071787D03*
X162239464Y-100071787D03*
X161739464Y-100071787D03*
X161239464Y-100071787D03*
X160739464Y-100071787D03*
X160239464Y-100071787D03*
X159739464Y-100071787D03*
G04 #@! TD*
D13*
G04 #@! TO.C,AUX_I/O_0*
X140970000Y-139700000D03*
D18*
X140970000Y-137160000D03*
X143510000Y-139700000D03*
X143510000Y-137160000D03*
X146050000Y-139700000D03*
X146050000Y-137160000D03*
X148590000Y-139700000D03*
X148590000Y-137160000D03*
X151130000Y-139700000D03*
X151130000Y-137160000D03*
X153670000Y-139700000D03*
X153670000Y-137160000D03*
X156210000Y-139700000D03*
X156210000Y-137160000D03*
X158750000Y-139700000D03*
X158750000Y-137160000D03*
G04 #@! TD*
D19*
G04 #@! TO.C,C101*
X87884000Y-97917000D03*
D20*
X90384000Y-97917000D03*
G04 #@! TD*
D19*
G04 #@! TO.C,C110*
X95504000Y-105537000D03*
D20*
X98004000Y-105537000D03*
G04 #@! TD*
D19*
G04 #@! TO.C,C111*
X95504000Y-97917000D03*
D20*
X98004000Y-97917000D03*
G04 #@! TD*
D19*
G04 #@! TO.C,C114*
X87884000Y-105537000D03*
D20*
X90384000Y-105537000D03*
G04 #@! TD*
D21*
G04 #@! TO.C,CH340T_0*
X113113000Y-130171000D03*
X113113000Y-130821000D03*
X113113000Y-131471000D03*
X113113000Y-132121000D03*
X113113000Y-132771000D03*
X113113000Y-133421000D03*
X113113000Y-134071000D03*
X113113000Y-134721000D03*
X113113000Y-135371000D03*
X113113000Y-136021000D03*
X120313000Y-136021000D03*
X120313000Y-135371000D03*
X120313000Y-134721000D03*
X120313000Y-134071000D03*
X120313000Y-133421000D03*
X120313000Y-132771000D03*
X120313000Y-132121000D03*
X120313000Y-131471000D03*
X120313000Y-130821000D03*
X120313000Y-130171000D03*
G04 #@! TD*
D13*
G04 #@! TO.C,CH340_CKO_0*
X116713000Y-125603000D03*
G04 #@! TD*
G04 #@! TO.C,LAYER_VOUT0*
X94056200Y-52344320D03*
D12*
X96596200Y-52344320D03*
X99136200Y-52344320D03*
X101676200Y-52344320D03*
X104216200Y-52344320D03*
X106756200Y-52344320D03*
X109296200Y-52344320D03*
X111836200Y-52344320D03*
G04 #@! TD*
D22*
G04 #@! TO.C,LD33V_0*
X120800000Y-114935000D03*
D23*
X104140000Y-117475000D03*
D24*
X104140000Y-114935000D03*
X104140000Y-112395000D03*
G04 #@! TD*
D13*
G04 #@! TO.C,LED_CH0*
X170662277Y-69680081D03*
D18*
X168122277Y-69680081D03*
X170662277Y-67140081D03*
X168122277Y-67140081D03*
X170662277Y-64600081D03*
X168122277Y-64600081D03*
X170662277Y-62060081D03*
X168122277Y-62060081D03*
X170662277Y-59520081D03*
X168122277Y-59520081D03*
X170662277Y-56980081D03*
X168122277Y-56980081D03*
X170662277Y-54440081D03*
X168122277Y-54440081D03*
X170662277Y-51900081D03*
X168122277Y-51900081D03*
G04 #@! TD*
D14*
G04 #@! TO.C,LED_CH0_CTRL0*
X172298277Y-84861081D03*
X172298277Y-84211081D03*
X172298277Y-83561081D03*
X172298277Y-82911081D03*
X172298277Y-82261081D03*
X172298277Y-81611081D03*
X172298277Y-80961081D03*
X172298277Y-80311081D03*
X172298277Y-79661081D03*
X172298277Y-79011081D03*
X172298277Y-78361081D03*
X172298277Y-77711081D03*
X172298277Y-77061081D03*
X172298277Y-76411081D03*
X166598277Y-76411081D03*
X166598277Y-77061081D03*
X166598277Y-77711081D03*
X166598277Y-78361081D03*
X166598277Y-79011081D03*
X166598277Y-79661081D03*
X166598277Y-80311081D03*
X166598277Y-80961081D03*
X166598277Y-81611081D03*
X166598277Y-82261081D03*
X166598277Y-82911081D03*
X166598277Y-83561081D03*
X166598277Y-84211081D03*
X166598277Y-84861081D03*
D15*
X168848277Y-78322331D03*
X168848277Y-79864831D03*
X168848277Y-81407331D03*
X168848277Y-82949831D03*
X170048277Y-78322331D03*
X170048277Y-79864831D03*
X170048277Y-81407331D03*
X170048277Y-82949831D03*
G04 #@! TD*
D13*
G04 #@! TO.C,LED_CH1*
X157327277Y-69680081D03*
D18*
X154787277Y-69680081D03*
X157327277Y-67140081D03*
X154787277Y-67140081D03*
X157327277Y-64600081D03*
X154787277Y-64600081D03*
X157327277Y-62060081D03*
X154787277Y-62060081D03*
X157327277Y-59520081D03*
X154787277Y-59520081D03*
X157327277Y-56980081D03*
X154787277Y-56980081D03*
X157327277Y-54440081D03*
X154787277Y-54440081D03*
X157327277Y-51900081D03*
X154787277Y-51900081D03*
G04 #@! TD*
D14*
G04 #@! TO.C,LED_CH1_CTRL0*
X158907277Y-84861081D03*
X158907277Y-84211081D03*
X158907277Y-83561081D03*
X158907277Y-82911081D03*
X158907277Y-82261081D03*
X158907277Y-81611081D03*
X158907277Y-80961081D03*
X158907277Y-80311081D03*
X158907277Y-79661081D03*
X158907277Y-79011081D03*
X158907277Y-78361081D03*
X158907277Y-77711081D03*
X158907277Y-77061081D03*
X158907277Y-76411081D03*
X153207277Y-76411081D03*
X153207277Y-77061081D03*
X153207277Y-77711081D03*
X153207277Y-78361081D03*
X153207277Y-79011081D03*
X153207277Y-79661081D03*
X153207277Y-80311081D03*
X153207277Y-80961081D03*
X153207277Y-81611081D03*
X153207277Y-82261081D03*
X153207277Y-82911081D03*
X153207277Y-83561081D03*
X153207277Y-84211081D03*
X153207277Y-84861081D03*
D15*
X155457277Y-78322331D03*
X155457277Y-79864831D03*
X155457277Y-81407331D03*
X155457277Y-82949831D03*
X156657277Y-78322331D03*
X156657277Y-79864831D03*
X156657277Y-81407331D03*
X156657277Y-82949831D03*
G04 #@! TD*
D13*
G04 #@! TO.C,LED_CH2*
X143992277Y-69680081D03*
D18*
X141452277Y-69680081D03*
X143992277Y-67140081D03*
X141452277Y-67140081D03*
X143992277Y-64600081D03*
X141452277Y-64600081D03*
X143992277Y-62060081D03*
X141452277Y-62060081D03*
X143992277Y-59520081D03*
X141452277Y-59520081D03*
X143992277Y-56980081D03*
X141452277Y-56980081D03*
X143992277Y-54440081D03*
X141452277Y-54440081D03*
X143992277Y-51900081D03*
X141452277Y-51900081D03*
G04 #@! TD*
D13*
G04 #@! TO.C,LED_CH3*
X130657277Y-69680081D03*
D18*
X128117277Y-69680081D03*
X130657277Y-67140081D03*
X128117277Y-67140081D03*
X130657277Y-64600081D03*
X128117277Y-64600081D03*
X130657277Y-62060081D03*
X128117277Y-62060081D03*
X130657277Y-59520081D03*
X128117277Y-59520081D03*
X130657277Y-56980081D03*
X128117277Y-56980081D03*
X130657277Y-54440081D03*
X128117277Y-54440081D03*
X130657277Y-51900081D03*
X128117277Y-51900081D03*
G04 #@! TD*
D14*
G04 #@! TO.C,LED_CH3_CTRL0*
X132237277Y-84861081D03*
X132237277Y-84211081D03*
X132237277Y-83561081D03*
X132237277Y-82911081D03*
X132237277Y-82261081D03*
X132237277Y-81611081D03*
X132237277Y-80961081D03*
X132237277Y-80311081D03*
X132237277Y-79661081D03*
X132237277Y-79011081D03*
X132237277Y-78361081D03*
X132237277Y-77711081D03*
X132237277Y-77061081D03*
X132237277Y-76411081D03*
X126537277Y-76411081D03*
X126537277Y-77061081D03*
X126537277Y-77711081D03*
X126537277Y-78361081D03*
X126537277Y-79011081D03*
X126537277Y-79661081D03*
X126537277Y-80311081D03*
X126537277Y-80961081D03*
X126537277Y-81611081D03*
X126537277Y-82261081D03*
X126537277Y-82911081D03*
X126537277Y-83561081D03*
X126537277Y-84211081D03*
X126537277Y-84861081D03*
D15*
X128787277Y-78322331D03*
X128787277Y-79864831D03*
X128787277Y-81407331D03*
X128787277Y-82949831D03*
X129987277Y-78322331D03*
X129987277Y-79864831D03*
X129987277Y-81407331D03*
X129987277Y-82949831D03*
G04 #@! TD*
D25*
G04 #@! TO.C,PWR_JACK0*
X97440000Y-114935000D03*
X91440000Y-114935000D03*
X94440000Y-119635000D03*
G04 #@! TD*
D13*
G04 #@! TO.C,PWR_SEL1*
X99425760Y-125254640D03*
D12*
X96885760Y-125254640D03*
X94345760Y-125254640D03*
G04 #@! TD*
D26*
G04 #@! TO.C,Q201*
X91424000Y-75499000D03*
X91424000Y-73599000D03*
X89424000Y-74549000D03*
G04 #@! TD*
G04 #@! TO.C,Q202*
X93329000Y-81214000D03*
X93329000Y-79314000D03*
X91329000Y-80264000D03*
G04 #@! TD*
G04 #@! TO.C,Q203*
X99298000Y-75499000D03*
X99298000Y-73599000D03*
X97298000Y-74549000D03*
G04 #@! TD*
G04 #@! TO.C,Q204*
X100949000Y-81214000D03*
X100949000Y-79314000D03*
X98949000Y-80264000D03*
G04 #@! TD*
G04 #@! TO.C,Q205*
X89773000Y-60259000D03*
X89773000Y-58359000D03*
X87773000Y-59309000D03*
G04 #@! TD*
G04 #@! TO.C,Q206*
X93583000Y-67879000D03*
X93583000Y-65979000D03*
X91583000Y-66929000D03*
G04 #@! TD*
G04 #@! TO.C,Q207*
X97393000Y-60259000D03*
X97393000Y-58359000D03*
X95393000Y-59309000D03*
G04 #@! TD*
G04 #@! TO.C,Q208*
X101203000Y-67879000D03*
X101203000Y-65979000D03*
X99203000Y-66929000D03*
G04 #@! TD*
G04 #@! TO.C,Q209*
X106664000Y-75499000D03*
X106664000Y-73599000D03*
X104664000Y-74549000D03*
G04 #@! TD*
G04 #@! TO.C,Q210*
X108569000Y-81214000D03*
X108569000Y-79314000D03*
X106569000Y-80264000D03*
G04 #@! TD*
G04 #@! TO.C,Q211*
X114284000Y-75499000D03*
X114284000Y-73599000D03*
X112284000Y-74549000D03*
G04 #@! TD*
G04 #@! TO.C,Q212*
X116062000Y-81214000D03*
X116062000Y-79314000D03*
X114062000Y-80264000D03*
G04 #@! TD*
G04 #@! TO.C,Q213*
X105013000Y-60259000D03*
X105013000Y-58359000D03*
X103013000Y-59309000D03*
G04 #@! TD*
G04 #@! TO.C,Q214*
X108823000Y-67879000D03*
X108823000Y-65979000D03*
X106823000Y-66929000D03*
G04 #@! TD*
G04 #@! TO.C,Q215*
X112633000Y-60259000D03*
X112633000Y-58359000D03*
X110633000Y-59309000D03*
G04 #@! TD*
G04 #@! TO.C,Q216*
X115808000Y-67879000D03*
X115808000Y-65979000D03*
X113808000Y-66929000D03*
G04 #@! TD*
D11*
G04 #@! TO.C,R101*
X158057277Y-88222081D03*
X154057277Y-88222081D03*
G04 #@! TD*
G04 #@! TO.C,R102*
X171392277Y-88222081D03*
X167392277Y-88222081D03*
G04 #@! TD*
G04 #@! TO.C,R103*
X131387277Y-88222081D03*
X127387277Y-88222081D03*
G04 #@! TD*
G04 #@! TO.C,R104*
X144722277Y-88222081D03*
X140722277Y-88222081D03*
G04 #@! TD*
D10*
G04 #@! TO.C,R201*
X92583000Y-57309000D03*
X92583000Y-61309000D03*
G04 #@! TD*
G04 #@! TO.C,R202*
X96393000Y-64929000D03*
X96393000Y-68929000D03*
G04 #@! TD*
G04 #@! TO.C,R203*
X100203000Y-57309000D03*
X100203000Y-61309000D03*
G04 #@! TD*
G04 #@! TO.C,R204*
X104013000Y-64929000D03*
X104013000Y-68929000D03*
G04 #@! TD*
G04 #@! TO.C,R205*
X107823000Y-57309000D03*
X107823000Y-61309000D03*
G04 #@! TD*
G04 #@! TO.C,R206*
X110998000Y-64929000D03*
X110998000Y-68929000D03*
G04 #@! TD*
G04 #@! TO.C,R207*
X115443000Y-57309000D03*
X115443000Y-61309000D03*
G04 #@! TD*
G04 #@! TO.C,R208*
X118618000Y-64929000D03*
X118618000Y-68929000D03*
G04 #@! TD*
D27*
G04 #@! TO.C,SWDEBUG0*
X177972720Y-123281440D03*
D28*
X179242720Y-123281440D03*
X177972720Y-124551440D03*
X179242720Y-124551440D03*
X177972720Y-125821440D03*
X179242720Y-125821440D03*
X177972720Y-127091440D03*
X179242720Y-127091440D03*
X177972720Y-128361440D03*
X179242720Y-128361440D03*
G04 #@! TD*
D29*
G04 #@! TO.C,USB_CONN_0*
X98680000Y-134905000D03*
X98680000Y-137445000D03*
X96680000Y-137445000D03*
X96680000Y-134905000D03*
D30*
X93980000Y-130175000D03*
X93980000Y-142175000D03*
G04 #@! TD*
D13*
G04 #@! TO.C,Wireless/SPI_1*
X176530000Y-133350000D03*
D12*
X179070000Y-133350000D03*
X176530000Y-135890000D03*
X179070000Y-135890000D03*
X176530000Y-138430000D03*
X179070000Y-138430000D03*
X176530000Y-140970000D03*
X179070000Y-140970000D03*
G04 #@! TD*
D31*
G04 #@! TO.C,Y101*
X108150000Y-140335000D03*
X113030000Y-140335000D03*
G04 #@! TD*
G04 #@! TO.C,Y102*
X153472464Y-107396787D03*
X153472464Y-102516787D03*
G04 #@! TD*
D32*
G04 #@! TO.C,RESET0*
X175549560Y-111094520D03*
X180629560Y-111094520D03*
X175549560Y-118714520D03*
X180629560Y-118714520D03*
G04 #@! TD*
D19*
G04 #@! TO.C,MODE_SELECT_0*
X158044464Y-95785787D03*
D33*
X150424464Y-93245787D03*
X158044464Y-93245787D03*
X150424464Y-95785787D03*
G04 #@! TD*
M02*
