G04 #@! TF.GenerationSoftware,KiCad,Pcbnew,(5.0.0)*
G04 #@! TF.CreationDate,2019-03-30T17:20:32-07:00*
G04 #@! TF.ProjectId,LPC1114_LED_Cube,4C5043313131345F4C45445F43756265,rev?*
G04 #@! TF.SameCoordinates,Original*
G04 #@! TF.FileFunction,Copper,L1,Top,Signal*
G04 #@! TF.FilePolarity,Positive*
%FSLAX46Y46*%
G04 Gerber Fmt 4.6, Leading zero omitted, Abs format (unit mm)*
G04 Created by KiCad (PCBNEW (5.0.0)) date 03/30/19 17:20:32*
%MOMM*%
%LPD*%
G01*
G04 APERTURE LIST*
G04 #@! TA.AperFunction,SMDPad,CuDef*
%ADD10R,1.700000X2.000000*%
G04 #@! TD*
G04 #@! TA.AperFunction,ComponentPad*
%ADD11O,1.700000X1.700000*%
G04 #@! TD*
G04 #@! TA.AperFunction,ComponentPad*
%ADD12R,1.700000X1.700000*%
G04 #@! TD*
G04 #@! TA.AperFunction,SMDPad,CuDef*
%ADD13R,1.100000X0.400000*%
G04 #@! TD*
G04 #@! TA.AperFunction,SMDPad,CuDef*
%ADD14R,1.200000X1.542500*%
G04 #@! TD*
G04 #@! TA.AperFunction,SMDPad,CuDef*
%ADD15R,1.300000X0.250000*%
G04 #@! TD*
G04 #@! TA.AperFunction,SMDPad,CuDef*
%ADD16R,0.250000X1.300000*%
G04 #@! TD*
G04 #@! TA.AperFunction,ComponentPad*
%ADD17C,1.700000*%
G04 #@! TD*
G04 #@! TA.AperFunction,ComponentPad*
%ADD18R,1.600000X1.600000*%
G04 #@! TD*
G04 #@! TA.AperFunction,ComponentPad*
%ADD19C,1.600000*%
G04 #@! TD*
G04 #@! TA.AperFunction,SMDPad,CuDef*
%ADD20R,1.750000X0.450000*%
G04 #@! TD*
G04 #@! TA.AperFunction,ComponentPad*
%ADD21R,1.800000X1.800000*%
G04 #@! TD*
G04 #@! TA.AperFunction,ComponentPad*
%ADD22O,1.800000X1.800000*%
G04 #@! TD*
G04 #@! TA.AperFunction,ComponentPad*
%ADD23R,3.500000X3.500000*%
G04 #@! TD*
G04 #@! TA.AperFunction,SMDPad,CuDef*
%ADD24R,0.900000X0.800000*%
G04 #@! TD*
G04 #@! TA.AperFunction,SMDPad,CuDef*
%ADD25R,2.000000X1.700000*%
G04 #@! TD*
G04 #@! TA.AperFunction,ComponentPad*
%ADD26R,1.000000X1.000000*%
G04 #@! TD*
G04 #@! TA.AperFunction,ComponentPad*
%ADD27O,1.000000X1.000000*%
G04 #@! TD*
G04 #@! TA.AperFunction,ComponentPad*
%ADD28C,1.520000*%
G04 #@! TD*
G04 #@! TA.AperFunction,ComponentPad*
%ADD29C,2.700000*%
G04 #@! TD*
G04 #@! TA.AperFunction,ComponentPad*
%ADD30C,1.500000*%
G04 #@! TD*
G04 #@! TA.AperFunction,ComponentPad*
%ADD31C,1.397000*%
G04 #@! TD*
G04 #@! TA.AperFunction,ComponentPad*
%ADD32O,1.600000X1.600000*%
G04 #@! TD*
G04 #@! TA.AperFunction,ViaPad*
%ADD33C,0.600000*%
G04 #@! TD*
G04 #@! TA.AperFunction,Conductor*
%ADD34C,0.250000*%
G04 #@! TD*
G04 #@! TA.AperFunction,Conductor*
%ADD35C,0.700000*%
G04 #@! TD*
G04 #@! TA.AperFunction,Conductor*
%ADD36C,0.400000*%
G04 #@! TD*
G04 #@! TA.AperFunction,Conductor*
%ADD37C,0.254000*%
G04 #@! TD*
G04 APERTURE END LIST*
D10*
G04 #@! TO.P,R223,1*
G04 #@! TO.N,Net-(Q211-Pad1)*
X119507000Y-95250000D03*
G04 #@! TO.P,R223,2*
G04 #@! TO.N,LAYER_6_ON*
X119507000Y-99250000D03*
G04 #@! TD*
G04 #@! TO.P,R218,2*
G04 #@! TO.N,LAYER_1_ON*
X105113666Y-99250000D03*
G04 #@! TO.P,R218,1*
G04 #@! TO.N,Net-(Q202-Pad1)*
X105113666Y-95250000D03*
G04 #@! TD*
G04 #@! TO.P,R219,1*
G04 #@! TO.N,Net-(Q203-Pad1)*
X107992332Y-95250000D03*
G04 #@! TO.P,R219,2*
G04 #@! TO.N,LAYER_2_ON*
X107992332Y-99250000D03*
G04 #@! TD*
G04 #@! TO.P,R220,2*
G04 #@! TO.N,LAYER_3_ON*
X110870998Y-99250000D03*
G04 #@! TO.P,R220,1*
G04 #@! TO.N,Net-(Q204-Pad1)*
X110870998Y-95250000D03*
G04 #@! TD*
G04 #@! TO.P,R221,1*
G04 #@! TO.N,Net-(Q209-Pad1)*
X113749664Y-95250000D03*
G04 #@! TO.P,R221,2*
G04 #@! TO.N,LAYER_4_ON*
X113749664Y-99250000D03*
G04 #@! TD*
G04 #@! TO.P,R222,2*
G04 #@! TO.N,LAYER_5_ON*
X116628330Y-99250000D03*
G04 #@! TO.P,R222,1*
G04 #@! TO.N,Net-(Q210-Pad1)*
X116628330Y-95250000D03*
G04 #@! TD*
G04 #@! TO.P,R224,1*
G04 #@! TO.N,Net-(Q212-Pad1)*
X122301000Y-95250000D03*
G04 #@! TO.P,R224,2*
G04 #@! TO.N,LAYER_7_ON*
X122301000Y-99250000D03*
G04 #@! TD*
G04 #@! TO.P,R217,2*
G04 #@! TO.N,LAYER_0_ON*
X102235000Y-99250000D03*
G04 #@! TO.P,R217,1*
G04 #@! TO.N,Net-(Q201-Pad1)*
X102235000Y-95250000D03*
G04 #@! TD*
D11*
G04 #@! TO.P,XERR_CH3_BRIDGE0,2*
G04 #@! TO.N,XERR_MCU_CH3*
X124079000Y-90932000D03*
D12*
G04 #@! TO.P,XERR_CH3_BRIDGE0,1*
G04 #@! TO.N,XERR_CH3*
X124079000Y-88392000D03*
G04 #@! TD*
G04 #@! TO.P,XERR_CH0_BRIDGE0,1*
G04 #@! TO.N,XERR_CH0*
X162687000Y-80391000D03*
G04 #@! TD*
G04 #@! TO.P,XERR_CH2_BRIDGE1,1*
G04 #@! TO.N,XERR_MCU_CH2*
X136017000Y-88178999D03*
G04 #@! TD*
G04 #@! TO.P,XERR_CH0_BRIDGE1,1*
G04 #@! TO.N,XERR_MCU_CH0*
X162687000Y-88178999D03*
G04 #@! TD*
G04 #@! TO.P,XERR_CH1_BRIDGE0,1*
G04 #@! TO.N,XERR_CH1*
X149352000Y-80264000D03*
G04 #@! TD*
G04 #@! TO.P,XERR_CH2_BRIDGE0,1*
G04 #@! TO.N,XERR_CH2*
X136017000Y-80264000D03*
G04 #@! TD*
G04 #@! TO.P,XERR_CH1_BRIDGE1,1*
G04 #@! TO.N,XERR_MCU_CH1*
X149352000Y-88178999D03*
G04 #@! TD*
D10*
G04 #@! TO.P,R209,1*
G04 #@! TO.N,Net-(Q201-Pad1)*
X93472000Y-74898000D03*
G04 #@! TO.P,R209,2*
G04 #@! TO.N,GND*
X93472000Y-70898000D03*
G04 #@! TD*
G04 #@! TO.P,R216,2*
G04 #@! TO.N,GND*
X117983000Y-79883000D03*
G04 #@! TO.P,R216,1*
G04 #@! TO.N,Net-(Q212-Pad1)*
X117983000Y-83883000D03*
G04 #@! TD*
G04 #@! TO.P,R215,1*
G04 #@! TO.N,Net-(Q211-Pad1)*
X116332000Y-75565000D03*
G04 #@! TO.P,R215,2*
G04 #@! TO.N,GND*
X116332000Y-71565000D03*
G04 #@! TD*
G04 #@! TO.P,R214,2*
G04 #@! TO.N,GND*
X110490000Y-79915000D03*
G04 #@! TO.P,R214,1*
G04 #@! TO.N,Net-(Q210-Pad1)*
X110490000Y-83915000D03*
G04 #@! TD*
G04 #@! TO.P,R213,1*
G04 #@! TO.N,Net-(Q209-Pad1)*
X108712000Y-74930000D03*
G04 #@! TO.P,R213,2*
G04 #@! TO.N,GND*
X108712000Y-70930000D03*
G04 #@! TD*
G04 #@! TO.P,R212,2*
G04 #@! TO.N,GND*
X102997000Y-79883000D03*
G04 #@! TO.P,R212,1*
G04 #@! TO.N,Net-(Q204-Pad1)*
X102997000Y-83883000D03*
G04 #@! TD*
G04 #@! TO.P,R211,1*
G04 #@! TO.N,Net-(Q203-Pad1)*
X101219000Y-74930000D03*
G04 #@! TO.P,R211,2*
G04 #@! TO.N,GND*
X101219000Y-70930000D03*
G04 #@! TD*
G04 #@! TO.P,R210,2*
G04 #@! TO.N,GND*
X95250000Y-79820000D03*
G04 #@! TO.P,R210,1*
G04 #@! TO.N,Net-(Q202-Pad1)*
X95250000Y-83820000D03*
G04 #@! TD*
D13*
G04 #@! TO.P,LED_CH2_CTRL0,1*
G04 #@! TO.N,GND*
X145572277Y-84861081D03*
G04 #@! TO.P,LED_CH2_CTRL0,2*
G04 #@! TO.N,BLANK*
X145572277Y-84211081D03*
G04 #@! TO.P,LED_CH2_CTRL0,3*
G04 #@! TO.N,XLAT*
X145572277Y-83561081D03*
G04 #@! TO.P,LED_CH2_CTRL0,4*
G04 #@! TO.N,LED_DATA_SCK*
X145572277Y-82911081D03*
G04 #@! TO.P,LED_CH2_CTRL0,5*
G04 #@! TO.N,SOUT_CH1_CH2*
X145572277Y-82261081D03*
G04 #@! TO.P,LED_CH2_CTRL0,6*
G04 #@! TO.N,VPRG*
X145572277Y-81611081D03*
G04 #@! TO.P,LED_CH2_CTRL0,7*
G04 #@! TO.N,LED_CH2_0*
X145572277Y-80961081D03*
G04 #@! TO.P,LED_CH2_CTRL0,8*
G04 #@! TO.N,LED_CH2_1*
X145572277Y-80311081D03*
G04 #@! TO.P,LED_CH2_CTRL0,9*
G04 #@! TO.N,LED_CH2_2*
X145572277Y-79661081D03*
G04 #@! TO.P,LED_CH2_CTRL0,10*
G04 #@! TO.N,LED_CH2_3*
X145572277Y-79011081D03*
G04 #@! TO.P,LED_CH2_CTRL0,11*
G04 #@! TO.N,LED_CH2_4*
X145572277Y-78361081D03*
G04 #@! TO.P,LED_CH2_CTRL0,12*
G04 #@! TO.N,LED_CH2_5*
X145572277Y-77711081D03*
G04 #@! TO.P,LED_CH2_CTRL0,13*
G04 #@! TO.N,LED_CH2_6*
X145572277Y-77061081D03*
G04 #@! TO.P,LED_CH2_CTRL0,14*
G04 #@! TO.N,LED_CH2_7*
X145572277Y-76411081D03*
G04 #@! TO.P,LED_CH2_CTRL0,15*
G04 #@! TO.N,LED_CH2_8*
X139872277Y-76411081D03*
G04 #@! TO.P,LED_CH2_CTRL0,16*
G04 #@! TO.N,LED_CH2_9*
X139872277Y-77061081D03*
G04 #@! TO.P,LED_CH2_CTRL0,17*
G04 #@! TO.N,LED_CH2_10*
X139872277Y-77711081D03*
G04 #@! TO.P,LED_CH2_CTRL0,18*
G04 #@! TO.N,LED_CH2_11*
X139872277Y-78361081D03*
G04 #@! TO.P,LED_CH2_CTRL0,19*
G04 #@! TO.N,LED_CH2_12*
X139872277Y-79011081D03*
G04 #@! TO.P,LED_CH2_CTRL0,20*
G04 #@! TO.N,LED_CH2_13*
X139872277Y-79661081D03*
G04 #@! TO.P,LED_CH2_CTRL0,21*
G04 #@! TO.N,LED_CH2_14*
X139872277Y-80311081D03*
G04 #@! TO.P,LED_CH2_CTRL0,22*
G04 #@! TO.N,LED_CH2_15*
X139872277Y-80961081D03*
G04 #@! TO.P,LED_CH2_CTRL0,23*
G04 #@! TO.N,XERR_CH2*
X139872277Y-81611081D03*
G04 #@! TO.P,LED_CH2_CTRL0,24*
G04 #@! TO.N,SOUT_CH2_CH3*
X139872277Y-82261081D03*
G04 #@! TO.P,LED_CH2_CTRL0,25*
G04 #@! TO.N,LED_GS_CLK*
X139872277Y-82911081D03*
G04 #@! TO.P,LED_CH2_CTRL0,26*
G04 #@! TO.N,DCPRG*
X139872277Y-83561081D03*
G04 #@! TO.P,LED_CH2_CTRL0,27*
G04 #@! TO.N,Net-(LED_CH2_CTRL0-Pad27)*
X139872277Y-84211081D03*
G04 #@! TO.P,LED_CH2_CTRL0,28*
G04 #@! TO.N,V3*
X139872277Y-84861081D03*
D14*
G04 #@! TO.P,LED_CH2_CTRL0,29*
G04 #@! TO.N,GND*
X142122277Y-78322331D03*
X142122277Y-79864831D03*
X142122277Y-81407331D03*
X142122277Y-82949831D03*
X143322277Y-78322331D03*
X143322277Y-79864831D03*
X143322277Y-81407331D03*
X143322277Y-82949831D03*
G04 #@! TD*
D15*
G04 #@! TO.P,LPC1114_0,1*
G04 #@! TO.N,LAYER_2_ON*
X158139464Y-101671787D03*
G04 #@! TO.P,LPC1114_0,2*
G04 #@! TO.N,AUX_SPI_SSEL*
X158139464Y-102171787D03*
G04 #@! TO.P,LPC1114_0,3*
G04 #@! TO.N,_RESET*
X158139464Y-102671787D03*
G04 #@! TO.P,LPC1114_0,4*
G04 #@! TO.N,ISP_ENTRY*
X158139464Y-103171787D03*
G04 #@! TO.P,LPC1114_0,5*
G04 #@! TO.N,GND*
X158139464Y-103671787D03*
G04 #@! TO.P,LPC1114_0,6*
G04 #@! TO.N,Net-(C107-Pad1)*
X158139464Y-104171787D03*
G04 #@! TO.P,LPC1114_0,7*
G04 #@! TO.N,Net-(C106-Pad1)*
X158139464Y-104671787D03*
G04 #@! TO.P,LPC1114_0,8*
G04 #@! TO.N,V3*
X158139464Y-105171787D03*
G04 #@! TO.P,LPC1114_0,9*
G04 #@! TO.N,WIRELESS_CSN*
X158139464Y-105671787D03*
G04 #@! TO.P,LPC1114_0,10*
G04 #@! TO.N,INPUT_MODE_SELECT*
X158139464Y-106171787D03*
G04 #@! TO.P,LPC1114_0,11*
G04 #@! TO.N,LAYER_3_ON*
X158139464Y-106671787D03*
G04 #@! TO.P,LPC1114_0,12*
G04 #@! TO.N,LAYER_4_ON*
X158139464Y-107171787D03*
D16*
G04 #@! TO.P,LPC1114_0,13*
G04 #@! TO.N,LAYER_7_ON*
X159739464Y-108771787D03*
G04 #@! TO.P,LPC1114_0,14*
G04 #@! TO.N,PIO0_3*
X160239464Y-108771787D03*
G04 #@! TO.P,LPC1114_0,15*
G04 #@! TO.N,PIO0_4*
X160739464Y-108771787D03*
G04 #@! TO.P,LPC1114_0,16*
G04 #@! TO.N,PIO0_5*
X161239464Y-108771787D03*
G04 #@! TO.P,LPC1114_0,17*
G04 #@! TO.N,WIRELESS_IRQ*
X161739464Y-108771787D03*
G04 #@! TO.P,LPC1114_0,18*
G04 #@! TO.N,PIO3_4*
X162239464Y-108771787D03*
G04 #@! TO.P,LPC1114_0,19*
G04 #@! TO.N,LAYER_0_ON*
X162739464Y-108771787D03*
G04 #@! TO.P,LPC1114_0,20*
G04 #@! TO.N,LAYER_1_ON*
X163239464Y-108771787D03*
G04 #@! TO.P,LPC1114_0,21*
G04 #@! TO.N,PIO3_5*
X163739464Y-108771787D03*
G04 #@! TO.P,LPC1114_0,22*
G04 #@! TO.N,LED_DATA_SCK*
X164239464Y-108771787D03*
G04 #@! TO.P,LPC1114_0,23*
G04 #@! TO.N,_CTS_MCU*
X164739464Y-108771787D03*
G04 #@! TO.P,LPC1114_0,24*
G04 #@! TO.N,LAYER_5_ON*
X165239464Y-108771787D03*
D15*
G04 #@! TO.P,LPC1114_0,25*
G04 #@! TO.N,LAYER_6_ON*
X166839464Y-107171787D03*
G04 #@! TO.P,LPC1114_0,26*
G04 #@! TO.N,AUX_SPI_MISO*
X166839464Y-106671787D03*
G04 #@! TO.P,LPC1114_0,27*
G04 #@! TO.N,_RTS_MCU*
X166839464Y-106171787D03*
G04 #@! TO.P,LPC1114_0,28*
G04 #@! TO.N,LED_SIN*
X166839464Y-105671787D03*
G04 #@! TO.P,LPC1114_0,29*
G04 #@! TO.N,SWCLK*
X166839464Y-105171787D03*
G04 #@! TO.P,LPC1114_0,30*
G04 #@! TO.N,PIO1_10*
X166839464Y-104671787D03*
G04 #@! TO.P,LPC1114_0,31*
G04 #@! TO.N,AUX_SPI_SCK*
X166839464Y-104171787D03*
G04 #@! TO.P,LPC1114_0,32*
G04 #@! TO.N,LED_GS_CLK*
X166839464Y-103671787D03*
G04 #@! TO.P,LPC1114_0,33*
G04 #@! TO.N,XLAT*
X166839464Y-103171787D03*
G04 #@! TO.P,LPC1114_0,34*
G04 #@! TO.N,BLANK*
X166839464Y-102671787D03*
G04 #@! TO.P,LPC1114_0,35*
G04 #@! TO.N,VPRG*
X166839464Y-102171787D03*
G04 #@! TO.P,LPC1114_0,36*
G04 #@! TO.N,XERR_MCU_CH0*
X166839464Y-101671787D03*
D16*
G04 #@! TO.P,LPC1114_0,37*
G04 #@! TO.N,XERR_MCU_CH1*
X165239464Y-100071787D03*
G04 #@! TO.P,LPC1114_0,38*
G04 #@! TO.N,AUX_SPI_MOSI*
X164739464Y-100071787D03*
G04 #@! TO.P,LPC1114_0,39*
G04 #@! TO.N,SWDIO*
X164239464Y-100071787D03*
G04 #@! TO.P,LPC1114_0,40*
G04 #@! TO.N,DCPRG*
X163739464Y-100071787D03*
G04 #@! TO.P,LPC1114_0,41*
G04 #@! TO.N,GND*
X163239464Y-100071787D03*
G04 #@! TO.P,LPC1114_0,42*
G04 #@! TO.N,PIO1_11*
X162739464Y-100071787D03*
G04 #@! TO.P,LPC1114_0,43*
G04 #@! TO.N,XERR_MCU_CH2*
X162239464Y-100071787D03*
G04 #@! TO.P,LPC1114_0,44*
G04 #@! TO.N,V3*
X161739464Y-100071787D03*
G04 #@! TO.P,LPC1114_0,45*
G04 #@! TO.N,PIO1_5*
X161239464Y-100071787D03*
G04 #@! TO.P,LPC1114_0,46*
G04 #@! TO.N,TXD_USB*
X160739464Y-100071787D03*
G04 #@! TO.P,LPC1114_0,47*
G04 #@! TO.N,RXD_USB*
X160239464Y-100071787D03*
G04 #@! TO.P,LPC1114_0,48*
G04 #@! TO.N,XERR_MCU_CH3*
X159739464Y-100071787D03*
G04 #@! TD*
D12*
G04 #@! TO.P,AUX_I/O_0,1*
G04 #@! TO.N,V3*
X140970000Y-139700000D03*
D17*
G04 #@! TO.P,AUX_I/O_0,2*
X140970000Y-137160000D03*
G04 #@! TO.P,AUX_I/O_0,3*
X143510000Y-139700000D03*
G04 #@! TO.P,AUX_I/O_0,4*
X143510000Y-137160000D03*
G04 #@! TO.P,AUX_I/O_0,5*
G04 #@! TO.N,INPUT_MODE_SELECT*
X146050000Y-139700000D03*
G04 #@! TO.P,AUX_I/O_0,6*
G04 #@! TO.N,PIO1_5*
X146050000Y-137160000D03*
G04 #@! TO.P,AUX_I/O_0,7*
G04 #@! TO.N,PIO0_3*
X148590000Y-139700000D03*
G04 #@! TO.P,AUX_I/O_0,8*
G04 #@! TO.N,PIO1_10*
X148590000Y-137160000D03*
G04 #@! TO.P,AUX_I/O_0,9*
G04 #@! TO.N,PIO0_4*
X151130000Y-139700000D03*
G04 #@! TO.P,AUX_I/O_0,10*
G04 #@! TO.N,PIO1_11*
X151130000Y-137160000D03*
G04 #@! TO.P,AUX_I/O_0,11*
G04 #@! TO.N,PIO0_5*
X153670000Y-139700000D03*
G04 #@! TO.P,AUX_I/O_0,12*
G04 #@! TO.N,PIO3_4*
X153670000Y-137160000D03*
G04 #@! TO.P,AUX_I/O_0,13*
G04 #@! TO.N,GND*
X156210000Y-139700000D03*
G04 #@! TO.P,AUX_I/O_0,14*
G04 #@! TO.N,PIO3_5*
X156210000Y-137160000D03*
G04 #@! TO.P,AUX_I/O_0,15*
G04 #@! TO.N,GND*
X158750000Y-139700000D03*
G04 #@! TO.P,AUX_I/O_0,16*
X158750000Y-137160000D03*
G04 #@! TD*
D18*
G04 #@! TO.P,C101,1*
G04 #@! TO.N,V3*
X87884000Y-97917000D03*
D19*
G04 #@! TO.P,C101,2*
G04 #@! TO.N,GND*
X90384000Y-97917000D03*
G04 #@! TD*
D18*
G04 #@! TO.P,C110,1*
G04 #@! TO.N,V5_USB*
X95504000Y-105537000D03*
D19*
G04 #@! TO.P,C110,2*
G04 #@! TO.N,GND*
X98004000Y-105537000D03*
G04 #@! TD*
D18*
G04 #@! TO.P,C111,1*
G04 #@! TO.N,V3*
X95504000Y-97917000D03*
D19*
G04 #@! TO.P,C111,2*
G04 #@! TO.N,GND*
X98004000Y-97917000D03*
G04 #@! TD*
D18*
G04 #@! TO.P,C114,1*
G04 #@! TO.N,V3*
X87884000Y-105537000D03*
D19*
G04 #@! TO.P,C114,2*
G04 #@! TO.N,GND*
X90384000Y-105537000D03*
G04 #@! TD*
D20*
G04 #@! TO.P,CH340T_0,1*
G04 #@! TO.N,Net-(CH340T_0-Pad1)*
X113113000Y-130171000D03*
G04 #@! TO.P,CH340T_0,2*
G04 #@! TO.N,Net-(CH340T_0-Pad2)*
X113113000Y-130821000D03*
G04 #@! TO.P,CH340T_0,3*
G04 #@! TO.N,TXD_USB*
X113113000Y-131471000D03*
G04 #@! TO.P,CH340T_0,4*
G04 #@! TO.N,RXD_USB*
X113113000Y-132121000D03*
G04 #@! TO.P,CH340T_0,5*
G04 #@! TO.N,V3*
X113113000Y-132771000D03*
G04 #@! TO.P,CH340T_0,6*
G04 #@! TO.N,Net-(CH340T_0-Pad6)*
X113113000Y-133421000D03*
G04 #@! TO.P,CH340T_0,7*
G04 #@! TO.N,Net-(CH340T_0-Pad7)*
X113113000Y-134071000D03*
G04 #@! TO.P,CH340T_0,8*
G04 #@! TO.N,GND*
X113113000Y-134721000D03*
G04 #@! TO.P,CH340T_0,9*
G04 #@! TO.N,Net-(C103-Pad1)*
X113113000Y-135371000D03*
G04 #@! TO.P,CH340T_0,10*
G04 #@! TO.N,Net-(C105-Pad1)*
X113113000Y-136021000D03*
G04 #@! TO.P,CH340T_0,11*
G04 #@! TO.N,_RTS_MCU*
X120313000Y-136021000D03*
G04 #@! TO.P,CH340T_0,12*
G04 #@! TO.N,Net-(CH340T_0-Pad12)*
X120313000Y-135371000D03*
G04 #@! TO.P,CH340T_0,13*
G04 #@! TO.N,Net-(CH340T_0-Pad13)*
X120313000Y-134721000D03*
G04 #@! TO.P,CH340T_0,14*
G04 #@! TO.N,Net-(CH340T_0-Pad14)*
X120313000Y-134071000D03*
G04 #@! TO.P,CH340T_0,15*
G04 #@! TO.N,Net-(CH340T_0-Pad15)*
X120313000Y-133421000D03*
G04 #@! TO.P,CH340T_0,16*
G04 #@! TO.N,_CTS_MCU*
X120313000Y-132771000D03*
G04 #@! TO.P,CH340T_0,17*
G04 #@! TO.N,Net-(CH340T_0-Pad17)*
X120313000Y-132121000D03*
G04 #@! TO.P,CH340T_0,18*
G04 #@! TO.N,Net-(CH340T_0-Pad18)*
X120313000Y-131471000D03*
G04 #@! TO.P,CH340T_0,19*
G04 #@! TO.N,V3*
X120313000Y-130821000D03*
G04 #@! TO.P,CH340T_0,20*
G04 #@! TO.N,Net-(CH340T_0-Pad20)*
X120313000Y-130171000D03*
G04 #@! TD*
D12*
G04 #@! TO.P,CH340_CKO_0,1*
G04 #@! TO.N,Net-(CH340T_0-Pad1)*
X116713000Y-125603000D03*
G04 #@! TD*
G04 #@! TO.P,LAYER_VOUT0,1*
G04 #@! TO.N,/LayerController/LAYER_0_PWR*
X94056200Y-52344320D03*
D11*
G04 #@! TO.P,LAYER_VOUT0,2*
G04 #@! TO.N,/LayerController/LAYER_1_PWR*
X96596200Y-52344320D03*
G04 #@! TO.P,LAYER_VOUT0,3*
G04 #@! TO.N,/LayerController/LAYER_2_PWR*
X99136200Y-52344320D03*
G04 #@! TO.P,LAYER_VOUT0,4*
G04 #@! TO.N,/LayerController/LAYER_3_PWR*
X101676200Y-52344320D03*
G04 #@! TO.P,LAYER_VOUT0,5*
G04 #@! TO.N,/LayerController/LAYER_4_PWR*
X104216200Y-52344320D03*
G04 #@! TO.P,LAYER_VOUT0,6*
G04 #@! TO.N,/LayerController/LAYER_5_PWR*
X106756200Y-52344320D03*
G04 #@! TO.P,LAYER_VOUT0,7*
G04 #@! TO.N,/LayerController/LAYER_6_PWR*
X109296200Y-52344320D03*
G04 #@! TO.P,LAYER_VOUT0,8*
G04 #@! TO.N,/LayerController/LAYER_7_PWR*
X111836200Y-52344320D03*
G04 #@! TD*
D21*
G04 #@! TO.P,LD33V_0,1*
G04 #@! TO.N,GND*
X104140000Y-117475000D03*
D22*
G04 #@! TO.P,LD33V_0,2*
G04 #@! TO.N,V3*
X104140000Y-114935000D03*
G04 #@! TO.P,LD33V_0,3*
G04 #@! TO.N,V5_USB*
X104140000Y-112395000D03*
G04 #@! TD*
D12*
G04 #@! TO.P,LED_CH0,1*
G04 #@! TO.N,LED_CH0_7*
X170662277Y-69680081D03*
D17*
G04 #@! TO.P,LED_CH0,2*
G04 #@! TO.N,LED_CH0_8*
X168122277Y-69680081D03*
G04 #@! TO.P,LED_CH0,3*
G04 #@! TO.N,LED_CH0_6*
X170662277Y-67140081D03*
G04 #@! TO.P,LED_CH0,4*
G04 #@! TO.N,LED_CH0_9*
X168122277Y-67140081D03*
G04 #@! TO.P,LED_CH0,5*
G04 #@! TO.N,LED_CH0_5*
X170662277Y-64600081D03*
G04 #@! TO.P,LED_CH0,6*
G04 #@! TO.N,LED_CH0_10*
X168122277Y-64600081D03*
G04 #@! TO.P,LED_CH0,7*
G04 #@! TO.N,LED_CH0_4*
X170662277Y-62060081D03*
G04 #@! TO.P,LED_CH0,8*
G04 #@! TO.N,LED_CH0_11*
X168122277Y-62060081D03*
G04 #@! TO.P,LED_CH0,9*
G04 #@! TO.N,LED_CH0_3*
X170662277Y-59520081D03*
G04 #@! TO.P,LED_CH0,10*
G04 #@! TO.N,LED_CH0_12*
X168122277Y-59520081D03*
G04 #@! TO.P,LED_CH0,11*
G04 #@! TO.N,LED_CH0_2*
X170662277Y-56980081D03*
G04 #@! TO.P,LED_CH0,12*
G04 #@! TO.N,LED_CH0_13*
X168122277Y-56980081D03*
G04 #@! TO.P,LED_CH0,13*
G04 #@! TO.N,LED_CH0_1*
X170662277Y-54440081D03*
G04 #@! TO.P,LED_CH0,14*
G04 #@! TO.N,LED_CH0_14*
X168122277Y-54440081D03*
G04 #@! TO.P,LED_CH0,15*
G04 #@! TO.N,LED_CH0_0*
X170662277Y-51900081D03*
G04 #@! TO.P,LED_CH0,16*
G04 #@! TO.N,LED_CH0_15*
X168122277Y-51900081D03*
G04 #@! TD*
D13*
G04 #@! TO.P,LED_CH0_CTRL0,1*
G04 #@! TO.N,GND*
X172298277Y-84861081D03*
G04 #@! TO.P,LED_CH0_CTRL0,2*
G04 #@! TO.N,BLANK*
X172298277Y-84211081D03*
G04 #@! TO.P,LED_CH0_CTRL0,3*
G04 #@! TO.N,XLAT*
X172298277Y-83561081D03*
G04 #@! TO.P,LED_CH0_CTRL0,4*
G04 #@! TO.N,LED_DATA_SCK*
X172298277Y-82911081D03*
G04 #@! TO.P,LED_CH0_CTRL0,5*
G04 #@! TO.N,LED_SIN*
X172298277Y-82261081D03*
G04 #@! TO.P,LED_CH0_CTRL0,6*
G04 #@! TO.N,VPRG*
X172298277Y-81611081D03*
G04 #@! TO.P,LED_CH0_CTRL0,7*
G04 #@! TO.N,LED_CH0_0*
X172298277Y-80961081D03*
G04 #@! TO.P,LED_CH0_CTRL0,8*
G04 #@! TO.N,LED_CH0_1*
X172298277Y-80311081D03*
G04 #@! TO.P,LED_CH0_CTRL0,9*
G04 #@! TO.N,LED_CH0_2*
X172298277Y-79661081D03*
G04 #@! TO.P,LED_CH0_CTRL0,10*
G04 #@! TO.N,LED_CH0_3*
X172298277Y-79011081D03*
G04 #@! TO.P,LED_CH0_CTRL0,11*
G04 #@! TO.N,LED_CH0_4*
X172298277Y-78361081D03*
G04 #@! TO.P,LED_CH0_CTRL0,12*
G04 #@! TO.N,LED_CH0_5*
X172298277Y-77711081D03*
G04 #@! TO.P,LED_CH0_CTRL0,13*
G04 #@! TO.N,LED_CH0_6*
X172298277Y-77061081D03*
G04 #@! TO.P,LED_CH0_CTRL0,14*
G04 #@! TO.N,LED_CH0_7*
X172298277Y-76411081D03*
G04 #@! TO.P,LED_CH0_CTRL0,15*
G04 #@! TO.N,LED_CH0_8*
X166598277Y-76411081D03*
G04 #@! TO.P,LED_CH0_CTRL0,16*
G04 #@! TO.N,LED_CH0_9*
X166598277Y-77061081D03*
G04 #@! TO.P,LED_CH0_CTRL0,17*
G04 #@! TO.N,LED_CH0_10*
X166598277Y-77711081D03*
G04 #@! TO.P,LED_CH0_CTRL0,18*
G04 #@! TO.N,LED_CH0_11*
X166598277Y-78361081D03*
G04 #@! TO.P,LED_CH0_CTRL0,19*
G04 #@! TO.N,LED_CH0_12*
X166598277Y-79011081D03*
G04 #@! TO.P,LED_CH0_CTRL0,20*
G04 #@! TO.N,LED_CH0_13*
X166598277Y-79661081D03*
G04 #@! TO.P,LED_CH0_CTRL0,21*
G04 #@! TO.N,LED_CH0_14*
X166598277Y-80311081D03*
G04 #@! TO.P,LED_CH0_CTRL0,22*
G04 #@! TO.N,LED_CH0_15*
X166598277Y-80961081D03*
G04 #@! TO.P,LED_CH0_CTRL0,23*
G04 #@! TO.N,XERR_CH0*
X166598277Y-81611081D03*
G04 #@! TO.P,LED_CH0_CTRL0,24*
G04 #@! TO.N,SOUT_CH0_CH1*
X166598277Y-82261081D03*
G04 #@! TO.P,LED_CH0_CTRL0,25*
G04 #@! TO.N,LED_GS_CLK*
X166598277Y-82911081D03*
G04 #@! TO.P,LED_CH0_CTRL0,26*
G04 #@! TO.N,DCPRG*
X166598277Y-83561081D03*
G04 #@! TO.P,LED_CH0_CTRL0,27*
G04 #@! TO.N,Net-(LED_CH0_CTRL0-Pad27)*
X166598277Y-84211081D03*
G04 #@! TO.P,LED_CH0_CTRL0,28*
G04 #@! TO.N,V3*
X166598277Y-84861081D03*
D14*
G04 #@! TO.P,LED_CH0_CTRL0,29*
G04 #@! TO.N,GND*
X168848277Y-78322331D03*
X168848277Y-79864831D03*
X168848277Y-81407331D03*
X168848277Y-82949831D03*
X170048277Y-78322331D03*
X170048277Y-79864831D03*
X170048277Y-81407331D03*
X170048277Y-82949831D03*
G04 #@! TD*
D12*
G04 #@! TO.P,LED_CH1,1*
G04 #@! TO.N,LED_CH1_7*
X157327277Y-69680081D03*
D17*
G04 #@! TO.P,LED_CH1,2*
G04 #@! TO.N,LED_CH1_8*
X154787277Y-69680081D03*
G04 #@! TO.P,LED_CH1,3*
G04 #@! TO.N,LED_CH1_6*
X157327277Y-67140081D03*
G04 #@! TO.P,LED_CH1,4*
G04 #@! TO.N,LED_CH1_9*
X154787277Y-67140081D03*
G04 #@! TO.P,LED_CH1,5*
G04 #@! TO.N,LED_CH1_5*
X157327277Y-64600081D03*
G04 #@! TO.P,LED_CH1,6*
G04 #@! TO.N,LED_CH1_10*
X154787277Y-64600081D03*
G04 #@! TO.P,LED_CH1,7*
G04 #@! TO.N,LED_CH1_4*
X157327277Y-62060081D03*
G04 #@! TO.P,LED_CH1,8*
G04 #@! TO.N,LED_CH1_11*
X154787277Y-62060081D03*
G04 #@! TO.P,LED_CH1,9*
G04 #@! TO.N,LED_CH1_3*
X157327277Y-59520081D03*
G04 #@! TO.P,LED_CH1,10*
G04 #@! TO.N,LED_CH1_12*
X154787277Y-59520081D03*
G04 #@! TO.P,LED_CH1,11*
G04 #@! TO.N,LED_CH1_2*
X157327277Y-56980081D03*
G04 #@! TO.P,LED_CH1,12*
G04 #@! TO.N,LED_CH1_13*
X154787277Y-56980081D03*
G04 #@! TO.P,LED_CH1,13*
G04 #@! TO.N,LED_CH1_1*
X157327277Y-54440081D03*
G04 #@! TO.P,LED_CH1,14*
G04 #@! TO.N,LED_CH1_14*
X154787277Y-54440081D03*
G04 #@! TO.P,LED_CH1,15*
G04 #@! TO.N,LED_CH1_0*
X157327277Y-51900081D03*
G04 #@! TO.P,LED_CH1,16*
G04 #@! TO.N,LED_CH1_15*
X154787277Y-51900081D03*
G04 #@! TD*
D13*
G04 #@! TO.P,LED_CH1_CTRL0,1*
G04 #@! TO.N,GND*
X158907277Y-84861081D03*
G04 #@! TO.P,LED_CH1_CTRL0,2*
G04 #@! TO.N,BLANK*
X158907277Y-84211081D03*
G04 #@! TO.P,LED_CH1_CTRL0,3*
G04 #@! TO.N,XLAT*
X158907277Y-83561081D03*
G04 #@! TO.P,LED_CH1_CTRL0,4*
G04 #@! TO.N,LED_DATA_SCK*
X158907277Y-82911081D03*
G04 #@! TO.P,LED_CH1_CTRL0,5*
G04 #@! TO.N,SOUT_CH0_CH1*
X158907277Y-82261081D03*
G04 #@! TO.P,LED_CH1_CTRL0,6*
G04 #@! TO.N,VPRG*
X158907277Y-81611081D03*
G04 #@! TO.P,LED_CH1_CTRL0,7*
G04 #@! TO.N,LED_CH1_0*
X158907277Y-80961081D03*
G04 #@! TO.P,LED_CH1_CTRL0,8*
G04 #@! TO.N,LED_CH1_1*
X158907277Y-80311081D03*
G04 #@! TO.P,LED_CH1_CTRL0,9*
G04 #@! TO.N,LED_CH1_2*
X158907277Y-79661081D03*
G04 #@! TO.P,LED_CH1_CTRL0,10*
G04 #@! TO.N,LED_CH1_3*
X158907277Y-79011081D03*
G04 #@! TO.P,LED_CH1_CTRL0,11*
G04 #@! TO.N,LED_CH1_4*
X158907277Y-78361081D03*
G04 #@! TO.P,LED_CH1_CTRL0,12*
G04 #@! TO.N,LED_CH1_5*
X158907277Y-77711081D03*
G04 #@! TO.P,LED_CH1_CTRL0,13*
G04 #@! TO.N,LED_CH1_6*
X158907277Y-77061081D03*
G04 #@! TO.P,LED_CH1_CTRL0,14*
G04 #@! TO.N,LED_CH1_7*
X158907277Y-76411081D03*
G04 #@! TO.P,LED_CH1_CTRL0,15*
G04 #@! TO.N,LED_CH1_8*
X153207277Y-76411081D03*
G04 #@! TO.P,LED_CH1_CTRL0,16*
G04 #@! TO.N,LED_CH1_9*
X153207277Y-77061081D03*
G04 #@! TO.P,LED_CH1_CTRL0,17*
G04 #@! TO.N,LED_CH1_10*
X153207277Y-77711081D03*
G04 #@! TO.P,LED_CH1_CTRL0,18*
G04 #@! TO.N,LED_CH1_11*
X153207277Y-78361081D03*
G04 #@! TO.P,LED_CH1_CTRL0,19*
G04 #@! TO.N,LED_CH1_12*
X153207277Y-79011081D03*
G04 #@! TO.P,LED_CH1_CTRL0,20*
G04 #@! TO.N,LED_CH1_13*
X153207277Y-79661081D03*
G04 #@! TO.P,LED_CH1_CTRL0,21*
G04 #@! TO.N,LED_CH1_14*
X153207277Y-80311081D03*
G04 #@! TO.P,LED_CH1_CTRL0,22*
G04 #@! TO.N,LED_CH1_15*
X153207277Y-80961081D03*
G04 #@! TO.P,LED_CH1_CTRL0,23*
G04 #@! TO.N,XERR_CH1*
X153207277Y-81611081D03*
G04 #@! TO.P,LED_CH1_CTRL0,24*
G04 #@! TO.N,SOUT_CH1_CH2*
X153207277Y-82261081D03*
G04 #@! TO.P,LED_CH1_CTRL0,25*
G04 #@! TO.N,LED_GS_CLK*
X153207277Y-82911081D03*
G04 #@! TO.P,LED_CH1_CTRL0,26*
G04 #@! TO.N,DCPRG*
X153207277Y-83561081D03*
G04 #@! TO.P,LED_CH1_CTRL0,27*
G04 #@! TO.N,Net-(LED_CH1_CTRL0-Pad27)*
X153207277Y-84211081D03*
G04 #@! TO.P,LED_CH1_CTRL0,28*
G04 #@! TO.N,V3*
X153207277Y-84861081D03*
D14*
G04 #@! TO.P,LED_CH1_CTRL0,29*
G04 #@! TO.N,GND*
X155457277Y-78322331D03*
X155457277Y-79864831D03*
X155457277Y-81407331D03*
X155457277Y-82949831D03*
X156657277Y-78322331D03*
X156657277Y-79864831D03*
X156657277Y-81407331D03*
X156657277Y-82949831D03*
G04 #@! TD*
D12*
G04 #@! TO.P,LED_CH2,1*
G04 #@! TO.N,LED_CH2_7*
X143992277Y-69680081D03*
D17*
G04 #@! TO.P,LED_CH2,2*
G04 #@! TO.N,LED_CH2_8*
X141452277Y-69680081D03*
G04 #@! TO.P,LED_CH2,3*
G04 #@! TO.N,LED_CH2_6*
X143992277Y-67140081D03*
G04 #@! TO.P,LED_CH2,4*
G04 #@! TO.N,LED_CH2_9*
X141452277Y-67140081D03*
G04 #@! TO.P,LED_CH2,5*
G04 #@! TO.N,LED_CH2_5*
X143992277Y-64600081D03*
G04 #@! TO.P,LED_CH2,6*
G04 #@! TO.N,LED_CH2_10*
X141452277Y-64600081D03*
G04 #@! TO.P,LED_CH2,7*
G04 #@! TO.N,LED_CH2_4*
X143992277Y-62060081D03*
G04 #@! TO.P,LED_CH2,8*
G04 #@! TO.N,LED_CH2_11*
X141452277Y-62060081D03*
G04 #@! TO.P,LED_CH2,9*
G04 #@! TO.N,LED_CH2_3*
X143992277Y-59520081D03*
G04 #@! TO.P,LED_CH2,10*
G04 #@! TO.N,LED_CH2_12*
X141452277Y-59520081D03*
G04 #@! TO.P,LED_CH2,11*
G04 #@! TO.N,LED_CH2_2*
X143992277Y-56980081D03*
G04 #@! TO.P,LED_CH2,12*
G04 #@! TO.N,LED_CH2_13*
X141452277Y-56980081D03*
G04 #@! TO.P,LED_CH2,13*
G04 #@! TO.N,LED_CH2_1*
X143992277Y-54440081D03*
G04 #@! TO.P,LED_CH2,14*
G04 #@! TO.N,LED_CH2_14*
X141452277Y-54440081D03*
G04 #@! TO.P,LED_CH2,15*
G04 #@! TO.N,LED_CH2_0*
X143992277Y-51900081D03*
G04 #@! TO.P,LED_CH2,16*
G04 #@! TO.N,LED_CH2_15*
X141452277Y-51900081D03*
G04 #@! TD*
D12*
G04 #@! TO.P,LED_CH3,1*
G04 #@! TO.N,LED_CH3_7*
X130657277Y-69680081D03*
D17*
G04 #@! TO.P,LED_CH3,2*
G04 #@! TO.N,LED_CH3_8*
X128117277Y-69680081D03*
G04 #@! TO.P,LED_CH3,3*
G04 #@! TO.N,LED_CH3_6*
X130657277Y-67140081D03*
G04 #@! TO.P,LED_CH3,4*
G04 #@! TO.N,LED_CH3_9*
X128117277Y-67140081D03*
G04 #@! TO.P,LED_CH3,5*
G04 #@! TO.N,LED_CH3_5*
X130657277Y-64600081D03*
G04 #@! TO.P,LED_CH3,6*
G04 #@! TO.N,LED_CH3_10*
X128117277Y-64600081D03*
G04 #@! TO.P,LED_CH3,7*
G04 #@! TO.N,LED_CH3_4*
X130657277Y-62060081D03*
G04 #@! TO.P,LED_CH3,8*
G04 #@! TO.N,LED_CH3_11*
X128117277Y-62060081D03*
G04 #@! TO.P,LED_CH3,9*
G04 #@! TO.N,LED_CH3_3*
X130657277Y-59520081D03*
G04 #@! TO.P,LED_CH3,10*
G04 #@! TO.N,LED_CH3_12*
X128117277Y-59520081D03*
G04 #@! TO.P,LED_CH3,11*
G04 #@! TO.N,LED_CH3_2*
X130657277Y-56980081D03*
G04 #@! TO.P,LED_CH3,12*
G04 #@! TO.N,LED_CH3_13*
X128117277Y-56980081D03*
G04 #@! TO.P,LED_CH3,13*
G04 #@! TO.N,LED_CH3_1*
X130657277Y-54440081D03*
G04 #@! TO.P,LED_CH3,14*
G04 #@! TO.N,LED_CH3_14*
X128117277Y-54440081D03*
G04 #@! TO.P,LED_CH3,15*
G04 #@! TO.N,LED_CH3_0*
X130657277Y-51900081D03*
G04 #@! TO.P,LED_CH3,16*
G04 #@! TO.N,LED_CH3_15*
X128117277Y-51900081D03*
G04 #@! TD*
D13*
G04 #@! TO.P,LED_CH3_CTRL0,1*
G04 #@! TO.N,GND*
X132237277Y-84861081D03*
G04 #@! TO.P,LED_CH3_CTRL0,2*
G04 #@! TO.N,BLANK*
X132237277Y-84211081D03*
G04 #@! TO.P,LED_CH3_CTRL0,3*
G04 #@! TO.N,XLAT*
X132237277Y-83561081D03*
G04 #@! TO.P,LED_CH3_CTRL0,4*
G04 #@! TO.N,LED_DATA_SCK*
X132237277Y-82911081D03*
G04 #@! TO.P,LED_CH3_CTRL0,5*
G04 #@! TO.N,SOUT_CH2_CH3*
X132237277Y-82261081D03*
G04 #@! TO.P,LED_CH3_CTRL0,6*
G04 #@! TO.N,VPRG*
X132237277Y-81611081D03*
G04 #@! TO.P,LED_CH3_CTRL0,7*
G04 #@! TO.N,LED_CH3_0*
X132237277Y-80961081D03*
G04 #@! TO.P,LED_CH3_CTRL0,8*
G04 #@! TO.N,LED_CH3_1*
X132237277Y-80311081D03*
G04 #@! TO.P,LED_CH3_CTRL0,9*
G04 #@! TO.N,LED_CH3_2*
X132237277Y-79661081D03*
G04 #@! TO.P,LED_CH3_CTRL0,10*
G04 #@! TO.N,LED_CH3_3*
X132237277Y-79011081D03*
G04 #@! TO.P,LED_CH3_CTRL0,11*
G04 #@! TO.N,LED_CH3_4*
X132237277Y-78361081D03*
G04 #@! TO.P,LED_CH3_CTRL0,12*
G04 #@! TO.N,LED_CH3_5*
X132237277Y-77711081D03*
G04 #@! TO.P,LED_CH3_CTRL0,13*
G04 #@! TO.N,LED_CH3_6*
X132237277Y-77061081D03*
G04 #@! TO.P,LED_CH3_CTRL0,14*
G04 #@! TO.N,LED_CH3_7*
X132237277Y-76411081D03*
G04 #@! TO.P,LED_CH3_CTRL0,15*
G04 #@! TO.N,LED_CH3_8*
X126537277Y-76411081D03*
G04 #@! TO.P,LED_CH3_CTRL0,16*
G04 #@! TO.N,LED_CH3_9*
X126537277Y-77061081D03*
G04 #@! TO.P,LED_CH3_CTRL0,17*
G04 #@! TO.N,LED_CH3_10*
X126537277Y-77711081D03*
G04 #@! TO.P,LED_CH3_CTRL0,18*
G04 #@! TO.N,LED_CH3_11*
X126537277Y-78361081D03*
G04 #@! TO.P,LED_CH3_CTRL0,19*
G04 #@! TO.N,LED_CH3_12*
X126537277Y-79011081D03*
G04 #@! TO.P,LED_CH3_CTRL0,20*
G04 #@! TO.N,LED_CH3_13*
X126537277Y-79661081D03*
G04 #@! TO.P,LED_CH3_CTRL0,21*
G04 #@! TO.N,LED_CH3_14*
X126537277Y-80311081D03*
G04 #@! TO.P,LED_CH3_CTRL0,22*
G04 #@! TO.N,LED_CH3_15*
X126537277Y-80961081D03*
G04 #@! TO.P,LED_CH3_CTRL0,23*
G04 #@! TO.N,XERR_CH3*
X126537277Y-81611081D03*
G04 #@! TO.P,LED_CH3_CTRL0,24*
G04 #@! TO.N,Net-(LED_CH3_CTRL0-Pad24)*
X126537277Y-82261081D03*
G04 #@! TO.P,LED_CH3_CTRL0,25*
G04 #@! TO.N,LED_GS_CLK*
X126537277Y-82911081D03*
G04 #@! TO.P,LED_CH3_CTRL0,26*
G04 #@! TO.N,DCPRG*
X126537277Y-83561081D03*
G04 #@! TO.P,LED_CH3_CTRL0,27*
G04 #@! TO.N,Net-(LED_CH3_CTRL0-Pad27)*
X126537277Y-84211081D03*
G04 #@! TO.P,LED_CH3_CTRL0,28*
G04 #@! TO.N,V3*
X126537277Y-84861081D03*
D14*
G04 #@! TO.P,LED_CH3_CTRL0,29*
G04 #@! TO.N,GND*
X128787277Y-78322331D03*
X128787277Y-79864831D03*
X128787277Y-81407331D03*
X128787277Y-82949831D03*
X129987277Y-78322331D03*
X129987277Y-79864831D03*
X129987277Y-81407331D03*
X129987277Y-82949831D03*
G04 #@! TD*
D23*
G04 #@! TO.P,PWR_JACK0,1*
G04 #@! TO.N,V5_AUX*
X97440000Y-114935000D03*
G04 #@! TO.P,PWR_JACK0,2*
G04 #@! TO.N,GND*
X91440000Y-114935000D03*
G04 #@! TO.P,PWR_JACK0,3*
G04 #@! TO.N,Net-(PWR_JACK0-Pad3)*
X94440000Y-119635000D03*
G04 #@! TD*
D12*
G04 #@! TO.P,PWR_SEL1,1*
G04 #@! TO.N,V5_USB*
X99425760Y-125254640D03*
D11*
G04 #@! TO.P,PWR_SEL1,2*
G04 #@! TO.N,V5*
X96885760Y-125254640D03*
G04 #@! TO.P,PWR_SEL1,3*
G04 #@! TO.N,V5_AUX*
X94345760Y-125254640D03*
G04 #@! TD*
D24*
G04 #@! TO.P,Q201,1*
G04 #@! TO.N,Net-(Q201-Pad1)*
X91424000Y-75499000D03*
G04 #@! TO.P,Q201,2*
G04 #@! TO.N,GND*
X91424000Y-73599000D03*
G04 #@! TO.P,Q201,3*
G04 #@! TO.N,Net-(Q201-Pad3)*
X89424000Y-74549000D03*
G04 #@! TD*
G04 #@! TO.P,Q202,1*
G04 #@! TO.N,Net-(Q202-Pad1)*
X93329000Y-81214000D03*
G04 #@! TO.P,Q202,2*
G04 #@! TO.N,GND*
X93329000Y-79314000D03*
G04 #@! TO.P,Q202,3*
G04 #@! TO.N,Net-(Q202-Pad3)*
X91329000Y-80264000D03*
G04 #@! TD*
G04 #@! TO.P,Q203,1*
G04 #@! TO.N,Net-(Q203-Pad1)*
X99298000Y-75499000D03*
G04 #@! TO.P,Q203,2*
G04 #@! TO.N,GND*
X99298000Y-73599000D03*
G04 #@! TO.P,Q203,3*
G04 #@! TO.N,Net-(Q203-Pad3)*
X97298000Y-74549000D03*
G04 #@! TD*
G04 #@! TO.P,Q204,1*
G04 #@! TO.N,Net-(Q204-Pad1)*
X100949000Y-81214000D03*
G04 #@! TO.P,Q204,2*
G04 #@! TO.N,GND*
X100949000Y-79314000D03*
G04 #@! TO.P,Q204,3*
G04 #@! TO.N,Net-(Q204-Pad3)*
X98949000Y-80264000D03*
G04 #@! TD*
G04 #@! TO.P,Q205,1*
G04 #@! TO.N,Net-(Q201-Pad3)*
X89773000Y-60259000D03*
G04 #@! TO.P,Q205,2*
G04 #@! TO.N,V5*
X89773000Y-58359000D03*
G04 #@! TO.P,Q205,3*
G04 #@! TO.N,/LayerController/LAYER_0_PWR*
X87773000Y-59309000D03*
G04 #@! TD*
G04 #@! TO.P,Q206,1*
G04 #@! TO.N,Net-(Q202-Pad3)*
X93583000Y-67879000D03*
G04 #@! TO.P,Q206,2*
G04 #@! TO.N,V5*
X93583000Y-65979000D03*
G04 #@! TO.P,Q206,3*
G04 #@! TO.N,/LayerController/LAYER_1_PWR*
X91583000Y-66929000D03*
G04 #@! TD*
G04 #@! TO.P,Q207,1*
G04 #@! TO.N,Net-(Q203-Pad3)*
X97393000Y-60259000D03*
G04 #@! TO.P,Q207,2*
G04 #@! TO.N,V5*
X97393000Y-58359000D03*
G04 #@! TO.P,Q207,3*
G04 #@! TO.N,/LayerController/LAYER_2_PWR*
X95393000Y-59309000D03*
G04 #@! TD*
G04 #@! TO.P,Q208,1*
G04 #@! TO.N,Net-(Q204-Pad3)*
X101203000Y-67879000D03*
G04 #@! TO.P,Q208,2*
G04 #@! TO.N,V5*
X101203000Y-65979000D03*
G04 #@! TO.P,Q208,3*
G04 #@! TO.N,/LayerController/LAYER_3_PWR*
X99203000Y-66929000D03*
G04 #@! TD*
G04 #@! TO.P,Q209,1*
G04 #@! TO.N,Net-(Q209-Pad1)*
X106664000Y-75499000D03*
G04 #@! TO.P,Q209,2*
G04 #@! TO.N,GND*
X106664000Y-73599000D03*
G04 #@! TO.P,Q209,3*
G04 #@! TO.N,Net-(Q209-Pad3)*
X104664000Y-74549000D03*
G04 #@! TD*
G04 #@! TO.P,Q210,1*
G04 #@! TO.N,Net-(Q210-Pad1)*
X108569000Y-81214000D03*
G04 #@! TO.P,Q210,2*
G04 #@! TO.N,GND*
X108569000Y-79314000D03*
G04 #@! TO.P,Q210,3*
G04 #@! TO.N,Net-(Q210-Pad3)*
X106569000Y-80264000D03*
G04 #@! TD*
G04 #@! TO.P,Q211,1*
G04 #@! TO.N,Net-(Q211-Pad1)*
X114284000Y-75499000D03*
G04 #@! TO.P,Q211,2*
G04 #@! TO.N,GND*
X114284000Y-73599000D03*
G04 #@! TO.P,Q211,3*
G04 #@! TO.N,Net-(Q211-Pad3)*
X112284000Y-74549000D03*
G04 #@! TD*
G04 #@! TO.P,Q212,1*
G04 #@! TO.N,Net-(Q212-Pad1)*
X116062000Y-81214000D03*
G04 #@! TO.P,Q212,2*
G04 #@! TO.N,GND*
X116062000Y-79314000D03*
G04 #@! TO.P,Q212,3*
G04 #@! TO.N,Net-(Q212-Pad3)*
X114062000Y-80264000D03*
G04 #@! TD*
G04 #@! TO.P,Q213,1*
G04 #@! TO.N,Net-(Q209-Pad3)*
X105013000Y-60259000D03*
G04 #@! TO.P,Q213,2*
G04 #@! TO.N,V5*
X105013000Y-58359000D03*
G04 #@! TO.P,Q213,3*
G04 #@! TO.N,/LayerController/LAYER_4_PWR*
X103013000Y-59309000D03*
G04 #@! TD*
G04 #@! TO.P,Q214,1*
G04 #@! TO.N,Net-(Q210-Pad3)*
X108823000Y-67879000D03*
G04 #@! TO.P,Q214,2*
G04 #@! TO.N,V5*
X108823000Y-65979000D03*
G04 #@! TO.P,Q214,3*
G04 #@! TO.N,/LayerController/LAYER_5_PWR*
X106823000Y-66929000D03*
G04 #@! TD*
G04 #@! TO.P,Q215,1*
G04 #@! TO.N,Net-(Q211-Pad3)*
X112633000Y-60259000D03*
G04 #@! TO.P,Q215,2*
G04 #@! TO.N,V5*
X112633000Y-58359000D03*
G04 #@! TO.P,Q215,3*
G04 #@! TO.N,/LayerController/LAYER_6_PWR*
X110633000Y-59309000D03*
G04 #@! TD*
G04 #@! TO.P,Q216,1*
G04 #@! TO.N,Net-(Q212-Pad3)*
X115808000Y-67879000D03*
G04 #@! TO.P,Q216,2*
G04 #@! TO.N,V5*
X115808000Y-65979000D03*
G04 #@! TO.P,Q216,3*
G04 #@! TO.N,/LayerController/LAYER_7_PWR*
X113808000Y-66929000D03*
G04 #@! TD*
D25*
G04 #@! TO.P,R101,1*
G04 #@! TO.N,GND*
X158057277Y-88222081D03*
G04 #@! TO.P,R101,2*
G04 #@! TO.N,Net-(LED_CH1_CTRL0-Pad27)*
X154057277Y-88222081D03*
G04 #@! TD*
G04 #@! TO.P,R102,1*
G04 #@! TO.N,GND*
X171392277Y-88222081D03*
G04 #@! TO.P,R102,2*
G04 #@! TO.N,Net-(LED_CH0_CTRL0-Pad27)*
X167392277Y-88222081D03*
G04 #@! TD*
G04 #@! TO.P,R103,1*
G04 #@! TO.N,GND*
X131387277Y-88222081D03*
G04 #@! TO.P,R103,2*
G04 #@! TO.N,Net-(LED_CH3_CTRL0-Pad27)*
X127387277Y-88222081D03*
G04 #@! TD*
G04 #@! TO.P,R104,1*
G04 #@! TO.N,GND*
X144722277Y-88222081D03*
G04 #@! TO.P,R104,2*
G04 #@! TO.N,Net-(LED_CH2_CTRL0-Pad27)*
X140722277Y-88222081D03*
G04 #@! TD*
D10*
G04 #@! TO.P,R201,1*
G04 #@! TO.N,V5*
X92583000Y-57309000D03*
G04 #@! TO.P,R201,2*
G04 #@! TO.N,Net-(Q201-Pad3)*
X92583000Y-61309000D03*
G04 #@! TD*
G04 #@! TO.P,R202,1*
G04 #@! TO.N,V5*
X96393000Y-64929000D03*
G04 #@! TO.P,R202,2*
G04 #@! TO.N,Net-(Q202-Pad3)*
X96393000Y-68929000D03*
G04 #@! TD*
G04 #@! TO.P,R203,1*
G04 #@! TO.N,V5*
X100203000Y-57309000D03*
G04 #@! TO.P,R203,2*
G04 #@! TO.N,Net-(Q203-Pad3)*
X100203000Y-61309000D03*
G04 #@! TD*
G04 #@! TO.P,R204,1*
G04 #@! TO.N,V5*
X104013000Y-64929000D03*
G04 #@! TO.P,R204,2*
G04 #@! TO.N,Net-(Q204-Pad3)*
X104013000Y-68929000D03*
G04 #@! TD*
G04 #@! TO.P,R205,1*
G04 #@! TO.N,V5*
X107823000Y-57309000D03*
G04 #@! TO.P,R205,2*
G04 #@! TO.N,Net-(Q209-Pad3)*
X107823000Y-61309000D03*
G04 #@! TD*
G04 #@! TO.P,R206,1*
G04 #@! TO.N,V5*
X110998000Y-64929000D03*
G04 #@! TO.P,R206,2*
G04 #@! TO.N,Net-(Q210-Pad3)*
X110998000Y-68929000D03*
G04 #@! TD*
G04 #@! TO.P,R207,1*
G04 #@! TO.N,V5*
X115443000Y-57309000D03*
G04 #@! TO.P,R207,2*
G04 #@! TO.N,Net-(Q211-Pad3)*
X115443000Y-61309000D03*
G04 #@! TD*
G04 #@! TO.P,R208,1*
G04 #@! TO.N,V5*
X118618000Y-64929000D03*
G04 #@! TO.P,R208,2*
G04 #@! TO.N,Net-(Q212-Pad3)*
X118618000Y-68929000D03*
G04 #@! TD*
D26*
G04 #@! TO.P,SWDEBUG0,1*
G04 #@! TO.N,V3*
X177972720Y-123281440D03*
D27*
G04 #@! TO.P,SWDEBUG0,2*
G04 #@! TO.N,SWDIO*
X179242720Y-123281440D03*
G04 #@! TO.P,SWDEBUG0,3*
G04 #@! TO.N,GND*
X177972720Y-124551440D03*
G04 #@! TO.P,SWDEBUG0,4*
G04 #@! TO.N,SWCLK*
X179242720Y-124551440D03*
G04 #@! TO.P,SWDEBUG0,5*
G04 #@! TO.N,GND*
X177972720Y-125821440D03*
G04 #@! TO.P,SWDEBUG0,6*
G04 #@! TO.N,Net-(SWDEBUG0-Pad6)*
X179242720Y-125821440D03*
G04 #@! TO.P,SWDEBUG0,7*
G04 #@! TO.N,Net-(SWDEBUG0-Pad7)*
X177972720Y-127091440D03*
G04 #@! TO.P,SWDEBUG0,8*
G04 #@! TO.N,Net-(SWDEBUG0-Pad8)*
X179242720Y-127091440D03*
G04 #@! TO.P,SWDEBUG0,9*
G04 #@! TO.N,GND*
X177972720Y-128361440D03*
G04 #@! TO.P,SWDEBUG0,10*
G04 #@! TO.N,_RESET*
X179242720Y-128361440D03*
G04 #@! TD*
D28*
G04 #@! TO.P,USB_CONN_0,2*
G04 #@! TO.N,Net-(CH340T_0-Pad7)*
X98680000Y-134905000D03*
G04 #@! TO.P,USB_CONN_0,1*
G04 #@! TO.N,V5_USB*
X98680000Y-137445000D03*
G04 #@! TO.P,USB_CONN_0,4*
G04 #@! TO.N,GND*
X96680000Y-137445000D03*
G04 #@! TO.P,USB_CONN_0,3*
G04 #@! TO.N,Net-(CH340T_0-Pad6)*
X96680000Y-134905000D03*
D29*
G04 #@! TO.P,USB_CONN_0,5*
G04 #@! TO.N,GND*
X93980000Y-130175000D03*
X93980000Y-142175000D03*
G04 #@! TD*
D12*
G04 #@! TO.P,Wireless/SPI_1,1*
G04 #@! TO.N,GND*
X176530000Y-133350000D03*
D11*
G04 #@! TO.P,Wireless/SPI_1,2*
G04 #@! TO.N,V3*
X179070000Y-133350000D03*
G04 #@! TO.P,Wireless/SPI_1,3*
G04 #@! TO.N,AUX_SPI_SSEL*
X176530000Y-135890000D03*
G04 #@! TO.P,Wireless/SPI_1,4*
G04 #@! TO.N,WIRELESS_CSN*
X179070000Y-135890000D03*
G04 #@! TO.P,Wireless/SPI_1,5*
G04 #@! TO.N,AUX_SPI_SCK*
X176530000Y-138430000D03*
G04 #@! TO.P,Wireless/SPI_1,6*
G04 #@! TO.N,AUX_SPI_MOSI*
X179070000Y-138430000D03*
G04 #@! TO.P,Wireless/SPI_1,7*
G04 #@! TO.N,AUX_SPI_MISO*
X176530000Y-140970000D03*
G04 #@! TO.P,Wireless/SPI_1,8*
G04 #@! TO.N,WIRELESS_IRQ*
X179070000Y-140970000D03*
G04 #@! TD*
D30*
G04 #@! TO.P,Y101,1*
G04 #@! TO.N,Net-(C103-Pad1)*
X108150000Y-140335000D03*
G04 #@! TO.P,Y101,2*
G04 #@! TO.N,Net-(C105-Pad1)*
X113030000Y-140335000D03*
G04 #@! TD*
G04 #@! TO.P,Y102,1*
G04 #@! TO.N,Net-(C106-Pad1)*
X153472464Y-107396787D03*
G04 #@! TO.P,Y102,2*
G04 #@! TO.N,Net-(C107-Pad1)*
X153472464Y-102516787D03*
G04 #@! TD*
D31*
G04 #@! TO.P,RESET0,1*
G04 #@! TO.N,_RESET*
X175549560Y-111094520D03*
G04 #@! TO.P,RESET0,2*
G04 #@! TO.N,GND*
X180629560Y-111094520D03*
G04 #@! TO.P,RESET0,1*
G04 #@! TO.N,_RESET*
X175549560Y-118714520D03*
G04 #@! TO.P,RESET0,2*
G04 #@! TO.N,GND*
X180629560Y-118714520D03*
G04 #@! TD*
D18*
G04 #@! TO.P,MODE_SELECT_0,1*
G04 #@! TO.N,ISP_ENTRY*
X158044464Y-95785787D03*
D32*
G04 #@! TO.P,MODE_SELECT_0,3*
G04 #@! TO.N,GND*
X150424464Y-93245787D03*
G04 #@! TO.P,MODE_SELECT_0,2*
G04 #@! TO.N,INPUT_MODE_SELECT*
X158044464Y-93245787D03*
G04 #@! TO.P,MODE_SELECT_0,4*
G04 #@! TO.N,GND*
X150424464Y-95785787D03*
G04 #@! TD*
D33*
G04 #@! TO.N,V3*
X138785277Y-84856581D03*
X162020820Y-96263986D03*
X165518777Y-84856581D03*
X125450277Y-84856581D03*
X152146000Y-86858000D03*
X165481000Y-86223000D03*
X93987000Y-97917000D03*
X91687000Y-99314000D03*
X109347000Y-133731000D03*
X156718000Y-114370983D03*
X145669000Y-115316000D03*
X152146000Y-114427000D03*
X152120277Y-84845990D03*
X138811000Y-86939622D03*
X125503418Y-86908810D03*
X121920001Y-83566000D03*
X156718000Y-110871000D03*
X171179141Y-117712133D03*
X172720000Y-119253006D03*
X176530000Y-128397000D03*
G04 #@! TO.N,PIO0_3*
X158369000Y-111633000D03*
X158369000Y-115568212D03*
G04 #@! TO.N,PIO0_4*
X159169003Y-111633000D03*
X159258000Y-115570000D03*
X154873245Y-127314245D03*
X154868129Y-129087129D03*
G04 #@! TO.N,PIO0_5*
X160099943Y-111585944D03*
X160105311Y-115568212D03*
X160147000Y-124587000D03*
X159828801Y-122358699D03*
G04 #@! TO.N,GND*
X142748000Y-80264000D03*
X130048000Y-82931000D03*
X128651000Y-83058000D03*
X143256000Y-83058000D03*
X142113000Y-83058000D03*
X168783000Y-80391000D03*
X156083000Y-78994000D03*
X156718000Y-78359000D03*
X155448000Y-78359000D03*
X142748000Y-79121000D03*
X143256000Y-78359000D03*
X142113000Y-78359000D03*
X130048000Y-79883000D03*
X128778000Y-79883000D03*
X129413000Y-78994000D03*
X129921000Y-78359000D03*
X128778000Y-78359000D03*
X159994277Y-84856581D03*
X165029464Y-107088787D03*
X161981464Y-105691787D03*
X162870464Y-104548787D03*
X163759464Y-106199787D03*
X164775464Y-104167787D03*
X156718000Y-83302010D03*
X155448000Y-83302010D03*
X146659277Y-84856581D03*
X156718000Y-79756000D03*
X155448000Y-79629000D03*
X129413000Y-80645000D03*
X170035155Y-83199666D03*
X168910000Y-83186032D03*
X169418000Y-78232000D03*
X170053000Y-79121000D03*
X169418000Y-79756000D03*
X168656000Y-78994000D03*
X91948000Y-70866000D03*
X99695000Y-70993000D03*
X107061000Y-70993000D03*
X114681000Y-71628000D03*
X160020000Y-101854000D03*
X119507000Y-79883000D03*
X111887000Y-79883000D03*
X104521000Y-79248000D03*
X96901000Y-79756000D03*
X142875000Y-88392000D03*
X129540000Y-88265000D03*
X156210000Y-88265000D03*
X117094000Y-133731000D03*
X173323234Y-84926133D03*
X170180000Y-80391000D03*
X133285750Y-84935000D03*
X155346400Y-80543400D03*
X156108400Y-80137000D03*
X141986000Y-79629000D03*
X169545000Y-88392000D03*
X143535400Y-79451200D03*
X130098800Y-81610200D03*
X129387600Y-82194400D03*
X128727200Y-81610200D03*
X143484610Y-80518000D03*
X141986000Y-80645000D03*
X156845000Y-80645000D03*
X164338000Y-102108000D03*
G04 #@! TO.N,PIO1_5*
X159578058Y-93792058D03*
X160781982Y-96901000D03*
X147320000Y-114670992D03*
X151697855Y-96620852D03*
X147320000Y-109922979D03*
X150674137Y-100239627D03*
G04 #@! TO.N,PIO1_10*
X157480000Y-119380000D03*
X157099000Y-122682000D03*
X170434000Y-105283000D03*
X171831000Y-108204004D03*
X150240988Y-135382000D03*
G04 #@! TO.N,PIO1_11*
X160528000Y-93726000D03*
X162844603Y-94436995D03*
X152289243Y-100458690D03*
X153543000Y-96854653D03*
X149149252Y-109922979D03*
X149098000Y-114690990D03*
G04 #@! TO.N,PIO3_4*
X161805575Y-111511212D03*
X161735640Y-116648360D03*
G04 #@! TO.N,PIO3_5*
X162433000Y-117729000D03*
X165363990Y-112490253D03*
G04 #@! TO.N,TXD_USB*
X159101889Y-98207428D03*
X148793200Y-100152200D03*
X148915386Y-98057674D03*
X143087848Y-108989267D03*
X143129000Y-113344044D03*
X156590996Y-97536000D03*
G04 #@! TO.N,RXD_USB*
X158507155Y-98832438D03*
X143657349Y-114076106D03*
X149783800Y-100050600D03*
X145618012Y-109922979D03*
X149793788Y-98180990D03*
X156511348Y-98345348D03*
G04 #@! TO.N,LED_DATA_SCK*
X157857245Y-82423000D03*
X144422305Y-82296000D03*
X164338006Y-82911012D03*
X171196000Y-82451023D03*
X175958500Y-102235000D03*
X175974058Y-100165048D03*
X151385586Y-82928990D03*
X138099800Y-82804000D03*
G04 #@! TO.N,BLANK*
X147320000Y-84201000D03*
X148219871Y-85470991D03*
X134874280Y-85481582D03*
X133731000Y-84201000D03*
X144526000Y-84201000D03*
X157612606Y-84324387D03*
X156337000Y-85090000D03*
X170349795Y-84221093D03*
X143094929Y-85344000D03*
X160655000Y-84201000D03*
X161544000Y-85217000D03*
X169733061Y-85598000D03*
X175344053Y-100795053D03*
X171787234Y-103227700D03*
G04 #@! TO.N,XLAT*
X171148277Y-83428890D03*
X144422717Y-83312000D03*
X157861617Y-83564116D03*
X163830000Y-83566000D03*
X169545000Y-102997000D03*
X176012012Y-98750627D03*
X150890049Y-83557052D03*
X137058400Y-83540600D03*
G04 #@! TO.N,VPRG*
X151257000Y-81534000D03*
X164211000Y-81636071D03*
X137668004Y-81534000D03*
X175641000Y-103822500D03*
X144526000Y-81407000D03*
X157861000Y-81534000D03*
X171196000Y-81651010D03*
X172341362Y-102650673D03*
G04 #@! TO.N,DCPRG*
X164592000Y-86233000D03*
X164592000Y-84856582D03*
X164633260Y-87483001D03*
X165100000Y-90951999D03*
X165100000Y-93472000D03*
X151130000Y-86314612D03*
X151053800Y-85064600D03*
X137693400Y-86283800D03*
X137693404Y-84886800D03*
G04 #@! TO.N,Net-(LED_CH0_CTRL0-Pad27)*
X169037000Y-84963000D03*
X169037000Y-86223000D03*
G04 #@! TO.N,Net-(LED_CH1_CTRL0-Pad27)*
X155702000Y-87122000D03*
X155547873Y-84958479D03*
G04 #@! TO.N,Net-(LED_CH2_CTRL0-Pad27)*
X142367000Y-84856582D03*
X142367000Y-86939622D03*
G04 #@! TO.N,Net-(LED_CH3_CTRL0-Pad27)*
X128905000Y-85471000D03*
X128905000Y-86908810D03*
G04 #@! TO.N,LAYER_2_ON*
X155730156Y-100689108D03*
X154305022Y-100584000D03*
G04 #@! TO.N,AUX_SPI_SSEL*
X153543000Y-101092000D03*
X150114000Y-109922989D03*
X156718000Y-102046777D03*
X158115000Y-122046998D03*
X150114000Y-114690990D03*
X162364891Y-123745083D03*
G04 #@! TO.N,_RESET*
X174932510Y-104924264D03*
X172974000Y-100838000D03*
X156735029Y-100580116D03*
X155829000Y-101482990D03*
G04 #@! TO.N,WIRELESS_CSN*
X151003000Y-114554000D03*
X151002978Y-109922979D03*
X158369000Y-120904000D03*
X162941000Y-123190000D03*
G04 #@! TO.N,AUX_SPI_SCK*
X171162234Y-104431445D03*
X172062452Y-107292453D03*
X181991000Y-137160000D03*
G04 #@! TO.N,WIRELESS_IRQ*
X160925454Y-111522458D03*
X160909000Y-115570000D03*
G04 #@! TO.N,LAYER_5_ON*
X143979989Y-113344044D03*
X143963039Y-109922979D03*
X163195000Y-113741194D03*
X165608000Y-110109000D03*
G04 #@! TO.N,LAYER_6_ON*
X144780000Y-113344046D03*
X169798994Y-109093000D03*
X168582584Y-108040800D03*
X144817999Y-109922979D03*
G04 #@! TO.N,AUX_SPI_MISO*
X169286132Y-107659960D03*
X170434000Y-108458000D03*
G04 #@! TO.N,SWCLK*
X174372032Y-110363000D03*
X169733179Y-105668836D03*
G04 #@! TO.N,LAYER_7_ON*
X142494000Y-111633000D03*
X142240000Y-108997977D03*
G04 #@! TO.N,AUX_SPI_MOSI*
X170573200Y-100719967D03*
X173610032Y-105827711D03*
G04 #@! TO.N,SWDIO*
X171196000Y-99949000D03*
X174338056Y-105496047D03*
G04 #@! TO.N,V5*
X113030000Y-63500000D03*
X116840000Y-64135000D03*
X108585000Y-64516000D03*
X105663984Y-62992000D03*
X101600000Y-64262000D03*
X98552001Y-63119000D03*
X99822000Y-59182000D03*
X107696000Y-59182000D03*
X115316000Y-59182000D03*
X95631000Y-61976000D03*
X92837000Y-59436000D03*
X88392000Y-61595000D03*
G04 #@! TO.N,INPUT_MODE_SELECT*
X148145500Y-109791500D03*
X152462940Y-96854653D03*
X151869377Y-109922977D03*
X148119933Y-114681498D03*
X151456284Y-100407750D03*
G04 #@! TO.N,XERR_MCU_CH1*
X165928647Y-98100647D03*
X162052000Y-90310537D03*
G04 #@! TO.N,XERR_MCU_CH0*
X164008260Y-90297000D03*
X165939872Y-94016755D03*
G04 #@! TO.N,XERR_MCU_CH2*
X161973057Y-92377057D03*
X162664443Y-95504000D03*
G04 #@! TO.N,XERR_MCU_CH3*
X158350981Y-99617046D03*
X155702014Y-98806000D03*
G04 #@! TO.N,_RTS_MCU*
X169799000Y-106934000D03*
X170365503Y-109738000D03*
X164525942Y-115128058D03*
X163894647Y-118807353D03*
G04 #@! TO.N,_CTS_MCU*
X165843863Y-111106863D03*
X163156880Y-118069586D03*
G04 #@! TD*
D34*
G04 #@! TO.N,V3*
X139872277Y-84861081D02*
X138789777Y-84861081D01*
X138789777Y-84861081D02*
X138785277Y-84856581D01*
X161739464Y-96545342D02*
X162020820Y-96263986D01*
X161739464Y-100071787D02*
X161739464Y-96545342D01*
X158139464Y-105171787D02*
X158999466Y-105171787D01*
X158999466Y-105171787D02*
X161739464Y-102431789D01*
X161739464Y-102431789D02*
X161739464Y-100071787D01*
X166598277Y-84861081D02*
X165523277Y-84861081D01*
X165523277Y-84861081D02*
X165518777Y-84856581D01*
X126537277Y-84861081D02*
X125454777Y-84861081D01*
X125454777Y-84861081D02*
X125450277Y-84856581D01*
X165481000Y-86647264D02*
X165270263Y-86858001D01*
X165481000Y-86223000D02*
X165481000Y-86647264D01*
X161299999Y-86858001D02*
X160528000Y-87630000D01*
X165270263Y-86858001D02*
X161299999Y-86858001D01*
X152146000Y-88745806D02*
X152146000Y-86858000D01*
X153247183Y-89846989D02*
X152146000Y-88745806D01*
X159454011Y-89846989D02*
X153247183Y-89846989D01*
X160528000Y-88773000D02*
X159454011Y-89846989D01*
X160528000Y-87630000D02*
X160528000Y-88773000D01*
X87884000Y-98967000D02*
X87884000Y-105537000D01*
X95504000Y-97917000D02*
X93987000Y-97917000D01*
X87884000Y-98967000D02*
X87884000Y-97917000D01*
X88231000Y-99314000D02*
X87884000Y-98967000D01*
X91687000Y-99314000D02*
X88231000Y-99314000D01*
X102321010Y-115481198D02*
X102321010Y-126405990D01*
X104140000Y-114935000D02*
X102867208Y-114935000D01*
X102867208Y-114935000D02*
X102321010Y-115481198D01*
X102321010Y-126405990D02*
X101346000Y-127381000D01*
X107696000Y-133731000D02*
X101346000Y-127381000D01*
X109347000Y-133731000D02*
X107696000Y-133731000D01*
X140970000Y-139700000D02*
X140970000Y-137160000D01*
X126927001Y-136310001D02*
X121438000Y-130821000D01*
X140120001Y-136310001D02*
X126927001Y-136310001D01*
X140970000Y-137160000D02*
X140120001Y-136310001D01*
X116449869Y-132771000D02*
X113113000Y-132771000D01*
X118399869Y-130821000D02*
X116449869Y-132771000D01*
X120313000Y-130821000D02*
X118399869Y-130821000D01*
X110307000Y-132771000D02*
X109347000Y-133731000D01*
X113113000Y-132771000D02*
X110307000Y-132771000D01*
X121438000Y-130821000D02*
X120313000Y-130821000D01*
X136943000Y-115316000D02*
X121438000Y-130821000D01*
X145669000Y-115316000D02*
X136943000Y-115316000D01*
X156718000Y-114370983D02*
X152202017Y-114370983D01*
X152202017Y-114370983D02*
X152146000Y-114427000D01*
X177972720Y-123281440D02*
X176039950Y-123281440D01*
X99441000Y-136017000D02*
X100203000Y-136779000D01*
X100203000Y-138375674D02*
X97735674Y-140843000D01*
X97735674Y-140843000D02*
X95885000Y-140843000D01*
X95885000Y-136017000D02*
X99441000Y-136017000D01*
X95250000Y-135382000D02*
X95885000Y-136017000D01*
X95250000Y-134493000D02*
X95250000Y-135382000D01*
X101346000Y-127381000D02*
X101346000Y-128397000D01*
X101346000Y-128397000D02*
X95250000Y-134493000D01*
X86995000Y-107476000D02*
X87884000Y-106587000D01*
X100203000Y-136779000D02*
X100203000Y-138375674D01*
X86995000Y-131953000D02*
X86995000Y-107476000D01*
X95885000Y-140843000D02*
X86995000Y-131953000D01*
X87884000Y-106587000D02*
X87884000Y-105537000D01*
X152135368Y-84861081D02*
X152120277Y-84845990D01*
X153207277Y-84861081D02*
X152135368Y-84861081D01*
X139573000Y-89789000D02*
X138811000Y-89027000D01*
X138811000Y-89027000D02*
X138811000Y-86939622D01*
X151640123Y-86939613D02*
X148392385Y-86939613D01*
X151721736Y-86858000D02*
X151640123Y-86939613D01*
X145542998Y-89789000D02*
X139573000Y-89789000D01*
X152146000Y-86858000D02*
X151721736Y-86858000D01*
X148392385Y-86939613D02*
X145542998Y-89789000D01*
X133604000Y-88900000D02*
X132588000Y-89916000D01*
X133604000Y-88138000D02*
X133604000Y-88900000D01*
X126238000Y-89916000D02*
X125503418Y-89181418D01*
X132588000Y-89916000D02*
X126238000Y-89916000D01*
X138811000Y-86939622D02*
X134802378Y-86939622D01*
X134802378Y-86939622D02*
X133604000Y-88138000D01*
X125503418Y-89181418D02*
X125503418Y-86908810D01*
X140970000Y-137160000D02*
X143510000Y-137160000D01*
X143510000Y-137160000D02*
X143510000Y-139700000D01*
X159039464Y-105171787D02*
X159114465Y-105246788D01*
X159114465Y-108474535D02*
X156718000Y-110871000D01*
X159114465Y-105246788D02*
X159114465Y-108474535D01*
X158139464Y-105171787D02*
X159039464Y-105171787D01*
X176039950Y-122572956D02*
X172720000Y-119253006D01*
X176039950Y-123281440D02*
X176039950Y-122572956D01*
X176039950Y-127906950D02*
X176530000Y-128397000D01*
X176039950Y-123281440D02*
X176039950Y-127906950D01*
X171162274Y-117729000D02*
X171179141Y-117712133D01*
X166243000Y-117729000D02*
X171162274Y-117729000D01*
X156718000Y-114370983D02*
X162884983Y-114370983D01*
X162884983Y-114370983D02*
X166243000Y-117729000D01*
X121920001Y-55626001D02*
X121920001Y-83566000D01*
X87884000Y-96867000D02*
X86233000Y-95216000D01*
X87884000Y-97917000D02*
X87884000Y-96867000D01*
X86233000Y-95216000D02*
X86233000Y-52324000D01*
X86233000Y-52324000D02*
X90043000Y-48514000D01*
X90043000Y-48514000D02*
X114808000Y-48514000D01*
X114808000Y-48514000D02*
X121920001Y-55626001D01*
G04 #@! TO.N,PIO0_3*
X158369000Y-111542251D02*
X158369000Y-111633000D01*
X160239464Y-108771787D02*
X160239464Y-109671787D01*
X160239464Y-109671787D02*
X158369000Y-111542251D01*
X158998522Y-116197734D02*
X158998522Y-121627563D01*
X158998522Y-121627563D02*
X158753788Y-121872297D01*
X158753788Y-121872297D02*
X158753788Y-122460214D01*
X152400000Y-137795000D02*
X151670001Y-138524999D01*
X158753788Y-122460214D02*
X152400000Y-128814002D01*
X149765001Y-138524999D02*
X148590000Y-139700000D01*
X151670001Y-138524999D02*
X149765001Y-138524999D01*
X158369000Y-115568212D02*
X158998522Y-116197734D01*
X152400000Y-128814002D02*
X152400000Y-137795000D01*
G04 #@! TO.N,PIO0_4*
X160739464Y-108771787D02*
X160739464Y-110062539D01*
X160739464Y-110062539D02*
X159169003Y-111633000D01*
X151131410Y-139700000D02*
X151130000Y-139700000D01*
X152401410Y-138430000D02*
X151131410Y-139700000D01*
X154432000Y-138430000D02*
X152401410Y-138430000D01*
X154940000Y-137922000D02*
X154432000Y-138430000D01*
X154868129Y-129087129D02*
X154940000Y-129159000D01*
X154940000Y-129159000D02*
X154940000Y-137922000D01*
X159258000Y-115570000D02*
X159557999Y-115869999D01*
X159203799Y-122983691D02*
X154873245Y-127314245D01*
X159203799Y-122058697D02*
X159203799Y-122983691D01*
X159557999Y-121704497D02*
X159203799Y-122058697D01*
X159557999Y-115869999D02*
X159557999Y-121704497D01*
G04 #@! TO.N,PIO0_5*
X160020000Y-111418413D02*
X160020000Y-111760000D01*
X161239464Y-108771787D02*
X161239464Y-110198949D01*
X161239464Y-110198949D02*
X160020000Y-111418413D01*
X154845001Y-140875001D02*
X156774001Y-140875001D01*
X153670000Y-139700000D02*
X154845001Y-140875001D01*
X157385001Y-140264001D02*
X157385001Y-127348999D01*
X156774001Y-140875001D02*
X157385001Y-140264001D01*
X157385001Y-127348999D02*
X160147000Y-124587000D01*
X160105311Y-122082189D02*
X159828801Y-122358699D01*
X160105311Y-115568212D02*
X160105311Y-122082189D01*
G04 #@! TO.N,GND*
X158907277Y-84861081D02*
X159989777Y-84861081D01*
X159989777Y-84861081D02*
X159994277Y-84856581D01*
X161981464Y-105691787D02*
X163632464Y-105691787D01*
X163632464Y-105691787D02*
X165029464Y-107088787D01*
X163759464Y-106199787D02*
X163759464Y-105437787D01*
X163759464Y-105437787D02*
X162870464Y-104548787D01*
X146654777Y-84861081D02*
X146659277Y-84856581D01*
X145572277Y-84861081D02*
X146654777Y-84861081D01*
X168792277Y-81284990D02*
X169992277Y-81284990D01*
X116332000Y-72815000D02*
X116332000Y-71565000D01*
X115548000Y-73599000D02*
X116332000Y-72815000D01*
X114538000Y-73599000D02*
X115548000Y-73599000D01*
X101219000Y-72378000D02*
X101219000Y-70930000D01*
X99998000Y-73599000D02*
X101219000Y-72378000D01*
X99298000Y-73599000D02*
X99998000Y-73599000D01*
X108712000Y-72505000D02*
X108712000Y-70930000D01*
X107618000Y-73599000D02*
X108712000Y-72505000D01*
X106918000Y-73599000D02*
X107618000Y-73599000D01*
X93472000Y-70898000D02*
X91980000Y-70898000D01*
X91980000Y-70898000D02*
X91948000Y-70866000D01*
X101219000Y-70930000D02*
X99758000Y-70930000D01*
X99758000Y-70930000D02*
X99695000Y-70993000D01*
X108712000Y-70930000D02*
X107124000Y-70930000D01*
X107124000Y-70930000D02*
X107061000Y-70993000D01*
X116332000Y-71565000D02*
X114744000Y-71565000D01*
X114744000Y-71565000D02*
X114681000Y-71628000D01*
X160020000Y-102651253D02*
X160020000Y-101854000D01*
X158139464Y-103671787D02*
X158999466Y-103671787D01*
X158999466Y-103671787D02*
X160020000Y-102651253D01*
X131387277Y-88222081D02*
X132249919Y-88222081D01*
X168848277Y-80456277D02*
X168783000Y-80391000D01*
X168848277Y-82949831D02*
X168848277Y-80456277D01*
X170048277Y-78862277D02*
X169418000Y-78232000D01*
X170048277Y-79864831D02*
X170048277Y-78862277D01*
X128787277Y-81270723D02*
X129113001Y-80944999D01*
X117983000Y-79883000D02*
X119507000Y-79883000D01*
X110490000Y-79915000D02*
X111855000Y-79915000D01*
X111855000Y-79915000D02*
X111887000Y-79883000D01*
X102997000Y-79883000D02*
X103886000Y-79883000D01*
X103886000Y-79883000D02*
X104521000Y-79248000D01*
X95250000Y-79820000D02*
X96837000Y-79820000D01*
X96837000Y-79820000D02*
X96901000Y-79756000D01*
X144722277Y-88222081D02*
X143044919Y-88222081D01*
X143044919Y-88222081D02*
X142875000Y-88392000D01*
X131387277Y-88222081D02*
X129582919Y-88222081D01*
X129582919Y-88222081D02*
X129540000Y-88265000D01*
X158057277Y-88222081D02*
X156252919Y-88222081D01*
X156252919Y-88222081D02*
X156210000Y-88265000D01*
X113113000Y-134721000D02*
X116104000Y-134721000D01*
X116104000Y-134721000D02*
X117094000Y-133731000D01*
X173258182Y-84861081D02*
X173323234Y-84926133D01*
X172298277Y-84861081D02*
X173258182Y-84861081D01*
X132237277Y-84861081D02*
X133211831Y-84861081D01*
X133211831Y-84861081D02*
X133285750Y-84935000D01*
X155457277Y-82949831D02*
X155457277Y-80654277D01*
X155457277Y-80654277D02*
X155346400Y-80543400D01*
X171392277Y-88222081D02*
X169714919Y-88222081D01*
X169714919Y-88222081D02*
X169545000Y-88392000D01*
X129113001Y-81224399D02*
X129027199Y-81310201D01*
X129113001Y-80944999D02*
X129113001Y-81224399D01*
X128727200Y-81330800D02*
X128727200Y-81610200D01*
X129413000Y-80645000D02*
X128727200Y-81330800D01*
X128787277Y-82949831D02*
X128787277Y-81670277D01*
X128787277Y-81670277D02*
X128727200Y-81610200D01*
X129027199Y-81310201D02*
X128727200Y-81610200D01*
X143322277Y-80680333D02*
X143484610Y-80518000D01*
X143322277Y-82949831D02*
X143322277Y-80680333D01*
X117983000Y-79883000D02*
X116758000Y-79883000D01*
X116758000Y-79883000D02*
X116189000Y-79314000D01*
X110490000Y-79915000D02*
X109170000Y-79915000D01*
X109170000Y-79915000D02*
X108569000Y-79314000D01*
X102997000Y-79883000D02*
X101518000Y-79883000D01*
X101518000Y-79883000D02*
X100949000Y-79314000D01*
X95250000Y-79820000D02*
X93835000Y-79820000D01*
X93835000Y-79820000D02*
X93329000Y-79314000D01*
X93472000Y-72505000D02*
X93472000Y-70898000D01*
X92317000Y-73660000D02*
X93472000Y-72505000D01*
X91678000Y-73599000D02*
X91739000Y-73660000D01*
X91739000Y-73660000D02*
X92317000Y-73660000D01*
X164775464Y-102545464D02*
X164338000Y-102108000D01*
X164775464Y-104167787D02*
X164775464Y-102545464D01*
X163239464Y-101009464D02*
X164338000Y-102108000D01*
X163239464Y-100071787D02*
X163239464Y-101009464D01*
G04 #@! TO.N,PIO1_5*
X160782000Y-96901018D02*
X160781982Y-96901000D01*
X160782000Y-97917000D02*
X160782000Y-96901018D01*
X161239464Y-100071787D02*
X161226500Y-100058823D01*
X161239464Y-98374464D02*
X160782000Y-97917000D01*
X161239464Y-100071787D02*
X161239464Y-98374464D01*
X159578058Y-93114379D02*
X158538679Y-92075000D01*
X158538679Y-92075000D02*
X156243707Y-92075000D01*
X156243707Y-92075000D02*
X151697855Y-96620852D01*
X159578058Y-93792058D02*
X159578058Y-93114379D01*
X147320000Y-103593764D02*
X150674137Y-100239627D01*
X147320000Y-109922979D02*
X147320000Y-103593764D01*
X147320000Y-133858000D02*
X147320000Y-114670992D01*
X146050000Y-137160000D02*
X146050000Y-135128000D01*
X146050000Y-135128000D02*
X147320000Y-133858000D01*
G04 #@! TO.N,PIO1_10*
X169822787Y-104671787D02*
X170434000Y-105283000D01*
X166839464Y-104671787D02*
X169822787Y-104671787D01*
X150240988Y-129540012D02*
X150240988Y-135382000D01*
X157099000Y-122682000D02*
X150240988Y-129540012D01*
X158106788Y-114943212D02*
X162441212Y-114943212D01*
X171421170Y-118354002D02*
X171831000Y-117944172D01*
X171831000Y-117944172D02*
X171831000Y-108204004D01*
X157480000Y-119380000D02*
X157480000Y-115570000D01*
X157480000Y-115570000D02*
X158106788Y-114943212D01*
X162441212Y-114943212D02*
X165852002Y-118354002D01*
X165852002Y-118354002D02*
X171421170Y-118354002D01*
G04 #@! TO.N,PIO1_11*
X163289453Y-94881845D02*
X162844603Y-94436995D01*
X163289453Y-98621798D02*
X163289453Y-94881845D01*
X162739464Y-100071787D02*
X162739464Y-99171787D01*
X162739464Y-99171787D02*
X163289453Y-98621798D01*
X155736867Y-94660786D02*
X153543000Y-96854653D01*
X159593214Y-94660786D02*
X155736867Y-94660786D01*
X160528000Y-93726000D02*
X159593214Y-94660786D01*
X149225000Y-109847231D02*
X149149252Y-109922979D01*
X152289243Y-100458690D02*
X149225000Y-103522933D01*
X149225000Y-103522933D02*
X149225000Y-109847231D01*
X149098000Y-135128000D02*
X149098000Y-114690990D01*
X151130000Y-137160000D02*
X149098000Y-135128000D01*
G04 #@! TO.N,PIO3_4*
X162239464Y-108771787D02*
X162239464Y-111077323D01*
X162239464Y-111077323D02*
X161805575Y-111511212D01*
X161735640Y-121376864D02*
X161735640Y-116648360D01*
X153670000Y-129401374D02*
X160214673Y-122856701D01*
X153670000Y-137160000D02*
X153670000Y-129401374D01*
X160214673Y-122856701D02*
X160255803Y-122856701D01*
X160255803Y-122856701D02*
X161735640Y-121376864D01*
G04 #@! TO.N,PIO3_5*
X156210000Y-137160000D02*
X156210000Y-127635000D01*
X162433000Y-121412000D02*
X162433000Y-117729000D01*
X156210000Y-127635000D02*
X162433000Y-121412000D01*
X163739464Y-110865727D02*
X165363990Y-112490253D01*
X163739464Y-108771787D02*
X163739464Y-110865727D01*
G04 #@! TO.N,Net-(C103-Pad1)*
X108150000Y-140335000D02*
X108150000Y-136833000D01*
X109612000Y-135371000D02*
X113113000Y-135371000D01*
X108150000Y-136833000D02*
X109612000Y-135371000D01*
G04 #@! TO.N,Net-(C105-Pad1)*
X113030000Y-136104000D02*
X113113000Y-136021000D01*
X113030000Y-140335000D02*
X113030000Y-136104000D01*
G04 #@! TO.N,Net-(C106-Pad1)*
X156197464Y-104671787D02*
X153472464Y-107396787D01*
X158139464Y-104671787D02*
X156197464Y-104671787D01*
G04 #@! TO.N,Net-(C107-Pad1)*
X155127464Y-104171787D02*
X153472464Y-102516787D01*
X158139464Y-104171787D02*
X155127464Y-104171787D01*
D35*
G04 #@! TO.N,V5_USB*
X101854000Y-110109000D02*
X104140000Y-112395000D01*
X97536000Y-110109000D02*
X101854000Y-110109000D01*
X95504000Y-105537000D02*
X95504000Y-108077000D01*
X95504000Y-108077000D02*
X97536000Y-110109000D01*
X99425760Y-122697240D02*
X99425760Y-125254640D01*
X101346000Y-120777000D02*
X99425760Y-122697240D01*
X101346000Y-114935000D02*
X101346000Y-120777000D01*
X104140000Y-112395000D02*
X103886000Y-112395000D01*
X103886000Y-112395000D02*
X101346000Y-114935000D01*
X98680000Y-138519802D02*
X97499802Y-139700000D01*
X97499802Y-139700000D02*
X96120872Y-139700000D01*
X96120872Y-139700000D02*
X93980000Y-137559128D01*
X93980000Y-137559128D02*
X93980000Y-133985000D01*
X99425760Y-128539240D02*
X99425760Y-125254640D01*
X98680000Y-137445000D02*
X98680000Y-138519802D01*
X93980000Y-133985000D02*
X99425760Y-128539240D01*
D34*
G04 #@! TO.N,Net-(CH340T_0-Pad1)*
X116713000Y-127696000D02*
X116713000Y-125603000D01*
X114238000Y-130171000D02*
X116713000Y-127696000D01*
X113113000Y-130171000D02*
X114238000Y-130171000D01*
G04 #@! TO.N,TXD_USB*
X159871517Y-98207428D02*
X159101889Y-98207428D01*
X160739464Y-100071787D02*
X160739464Y-99075375D01*
X160739464Y-99075375D02*
X159871517Y-98207428D01*
X148793200Y-100152200D02*
X143087848Y-105857552D01*
X143087848Y-105857552D02*
X143087848Y-108989267D01*
X113113000Y-131471000D02*
X116366044Y-131471000D01*
X116366044Y-131471000D02*
X134493000Y-113344044D01*
X143129000Y-113344044D02*
X134493000Y-113344044D01*
X149437060Y-97536000D02*
X148915386Y-98057674D01*
X156590996Y-97536000D02*
X149437060Y-97536000D01*
G04 #@! TO.N,RXD_USB*
X116463459Y-132121000D02*
X113113000Y-132121000D01*
X143657349Y-114076106D02*
X134508353Y-114076106D01*
X134508353Y-114076106D02*
X116463459Y-132121000D01*
X159792438Y-98832438D02*
X158507155Y-98832438D01*
X160239464Y-100071787D02*
X160239464Y-99279464D01*
X160239464Y-99279464D02*
X159792438Y-98832438D01*
X149783800Y-100050600D02*
X145618012Y-104216388D01*
X145618012Y-104216388D02*
X145618012Y-109922979D01*
X156346990Y-98180990D02*
X149793788Y-98180990D01*
X156511348Y-98345348D02*
X156346990Y-98180990D01*
G04 #@! TO.N,Net-(CH340T_0-Pad6)*
X97981000Y-133604000D02*
X96680000Y-134905000D01*
X112077998Y-133421000D02*
X111132998Y-134366000D01*
X113113000Y-133421000D02*
X112077998Y-133421000D01*
X111132998Y-134366000D02*
X100330000Y-134366000D01*
X100330000Y-134366000D02*
X99568000Y-133604000D01*
X99568000Y-133604000D02*
X97981000Y-133604000D01*
G04 #@! TO.N,Net-(CH340T_0-Pad7)*
X111230408Y-134905000D02*
X98680000Y-134905000D01*
X112064408Y-134071000D02*
X111230408Y-134905000D01*
X113113000Y-134071000D02*
X112064408Y-134071000D01*
D36*
G04 #@! TO.N,/LayerController/LAYER_0_PWR*
X92806200Y-52344320D02*
X94056200Y-52344320D01*
X87773000Y-57377520D02*
X92806200Y-52344320D01*
X87773000Y-59309000D02*
X87773000Y-57377520D01*
G04 #@! TO.N,/LayerController/LAYER_1_PWR*
X95746201Y-53194319D02*
X96596200Y-52344320D01*
X94442999Y-54497521D02*
X95746201Y-53194319D01*
X94442999Y-63269001D02*
X94442999Y-54497521D01*
X91583000Y-66929000D02*
X91583000Y-66129000D01*
X91583000Y-66129000D02*
X94442999Y-63269001D01*
G04 #@! TO.N,/LayerController/LAYER_2_PWR*
X95393000Y-56087520D02*
X99136200Y-52344320D01*
X95393000Y-59309000D02*
X95393000Y-56087520D01*
G04 #@! TO.N,/LayerController/LAYER_3_PWR*
X99203000Y-66929000D02*
X99203000Y-64881000D01*
X99203000Y-64881000D02*
X101753001Y-62330999D01*
X101753001Y-62330999D02*
X101753001Y-53623202D01*
X101753001Y-53623202D02*
X101676200Y-53546401D01*
X101676200Y-53546401D02*
X101676200Y-52344320D01*
G04 #@! TO.N,/LayerController/LAYER_4_PWR*
X103013000Y-53547520D02*
X104216200Y-52344320D01*
X103013000Y-59309000D02*
X103013000Y-53547520D01*
G04 #@! TO.N,/LayerController/LAYER_5_PWR*
X108734900Y-62809001D02*
X106823000Y-64720901D01*
X109073001Y-62809001D02*
X108734900Y-62809001D01*
X106823000Y-64720901D02*
X106823000Y-66929000D01*
X109373001Y-62509001D02*
X109073001Y-62809001D01*
X109373001Y-54961121D02*
X109373001Y-62509001D01*
X106756200Y-52344320D02*
X109373001Y-54961121D01*
G04 #@! TO.N,/LayerController/LAYER_6_PWR*
X110633000Y-53681120D02*
X109296200Y-52344320D01*
X110633000Y-59309000D02*
X110633000Y-53681120D01*
G04 #@! TO.N,/LayerController/LAYER_7_PWR*
X113808000Y-65643000D02*
X113808000Y-66929000D01*
X116993001Y-62457999D02*
X113808000Y-65643000D01*
X116993001Y-55748999D02*
X116993001Y-62457999D01*
X111836200Y-52344320D02*
X113588322Y-52344320D01*
X113588322Y-52344320D02*
X116993001Y-55748999D01*
D34*
G04 #@! TO.N,LED_DATA_SCK*
X158907277Y-82911081D02*
X158107277Y-82911081D01*
X157857187Y-82423058D02*
X157857245Y-82423000D01*
X157857187Y-82660991D02*
X157857187Y-82423058D01*
X158107277Y-82911081D02*
X157857187Y-82660991D01*
X144549305Y-82423000D02*
X144422305Y-82296000D01*
X145572277Y-82911081D02*
X145073467Y-82911081D01*
X144399000Y-82319305D02*
X144422305Y-82296000D01*
X144399000Y-82363281D02*
X144399000Y-82319305D01*
X145572277Y-82911081D02*
X144946800Y-82911081D01*
X144946800Y-82911081D02*
X144399000Y-82363281D01*
X164239464Y-108771787D02*
X164289463Y-108821786D01*
X158907277Y-82911081D02*
X164337937Y-82911081D01*
X164337937Y-82911081D02*
X164338006Y-82911012D01*
X172298277Y-82911081D02*
X171498277Y-82911081D01*
X171196000Y-82608804D02*
X171196000Y-82451023D01*
X171498277Y-82911081D02*
X171196000Y-82608804D01*
X176637014Y-85707834D02*
X176637014Y-99502092D01*
X176637014Y-99502092D02*
X175974058Y-100165048D01*
X173840261Y-82911081D02*
X176637014Y-85707834D01*
X172298277Y-82911081D02*
X173840261Y-82911081D01*
X145572277Y-82911081D02*
X151367677Y-82911081D01*
X151367677Y-82911081D02*
X151385586Y-82928990D01*
X133037277Y-82911081D02*
X133144358Y-82804000D01*
X132237277Y-82911081D02*
X133037277Y-82911081D01*
X133144358Y-82804000D02*
X138099800Y-82804000D01*
X166064612Y-111769999D02*
X175299612Y-102534999D01*
X175299612Y-102534999D02*
X175658501Y-102534999D01*
X175658501Y-102534999D02*
X175958500Y-102235000D01*
X165286812Y-111769999D02*
X166064612Y-111769999D01*
X164239464Y-110722651D02*
X165286812Y-111769999D01*
X164239464Y-108771787D02*
X164239464Y-110722651D01*
G04 #@! TO.N,LED_CH0_0*
X175873338Y-57111142D02*
X170662277Y-51900081D01*
X175873338Y-78128072D02*
X175873338Y-57111142D01*
X173040329Y-80961081D02*
X175873338Y-78128072D01*
X172298277Y-80961081D02*
X173040329Y-80961081D01*
G04 #@! TO.N,LED_CH0_1*
X175423328Y-59201132D02*
X170662277Y-54440081D01*
X175423328Y-77941672D02*
X175423328Y-59201132D01*
X173053919Y-80311081D02*
X175423328Y-77941672D01*
X172298277Y-80311081D02*
X173053919Y-80311081D01*
G04 #@! TO.N,LED_CH0_2*
X174973318Y-61291122D02*
X170662277Y-56980081D01*
X174973318Y-77745270D02*
X174973318Y-61291122D01*
X173057507Y-79661081D02*
X174973318Y-77745270D01*
X172298277Y-79661081D02*
X173057507Y-79661081D01*
G04 #@! TO.N,LED_CH0_3*
X174523308Y-63381112D02*
X170662277Y-59520081D01*
X174523308Y-77558870D02*
X174523308Y-63381112D01*
X173071097Y-79011081D02*
X174523308Y-77558870D01*
X172298277Y-79011081D02*
X173071097Y-79011081D01*
G04 #@! TO.N,LED_CH0_4*
X174073298Y-65471102D02*
X170662277Y-62060081D01*
X174073298Y-77372470D02*
X174073298Y-65471102D01*
X173209686Y-78236082D02*
X174073298Y-77372470D01*
X172298277Y-78236082D02*
X173209686Y-78236082D01*
X172298277Y-78361081D02*
X172298277Y-78236082D01*
G04 #@! TO.N,LED_CH0_5*
X173623288Y-67561092D02*
X170662277Y-64600081D01*
X173623288Y-77186070D02*
X173623288Y-67561092D01*
X173098277Y-77711081D02*
X173623288Y-77186070D01*
X172298277Y-77711081D02*
X173098277Y-77711081D01*
G04 #@! TO.N,LED_CH0_6*
X173173278Y-69651082D02*
X170662277Y-67140081D01*
X173173278Y-76986080D02*
X173173278Y-69651082D01*
X173098277Y-77061081D02*
X173173278Y-76986080D01*
X172298277Y-77061081D02*
X173098277Y-77061081D01*
G04 #@! TO.N,LED_CH0_7*
X170662277Y-70780081D02*
X170662277Y-69680081D01*
X170662277Y-75125081D02*
X170662277Y-70780081D01*
X171948277Y-76411081D02*
X170662277Y-75125081D01*
X172298277Y-76411081D02*
X171948277Y-76411081D01*
G04 #@! TO.N,LED_CH0_8*
X166598277Y-71204081D02*
X168122277Y-69680081D01*
X166598277Y-76411081D02*
X166598277Y-71204081D01*
G04 #@! TO.N,LED_CH0_9*
X165723276Y-69539082D02*
X168122277Y-67140081D01*
X165723276Y-76871082D02*
X165723276Y-69539082D01*
X165913275Y-77061081D02*
X165723276Y-76871082D01*
X166598277Y-77061081D02*
X165913275Y-77061081D01*
G04 #@! TO.N,LED_CH0_10*
X165273266Y-67449092D02*
X168122277Y-64600081D01*
X165273266Y-77186070D02*
X165273266Y-67449092D01*
X165798277Y-77711081D02*
X165273266Y-77186070D01*
X166598277Y-77711081D02*
X165798277Y-77711081D01*
G04 #@! TO.N,LED_CH0_11*
X164823256Y-65359102D02*
X168122277Y-62060081D01*
X164823256Y-77372470D02*
X164823256Y-65359102D01*
X165811867Y-78361081D02*
X164823256Y-77372470D01*
X166598277Y-78361081D02*
X165811867Y-78361081D01*
G04 #@! TO.N,LED_CH0_12*
X164373246Y-63269112D02*
X168122277Y-59520081D01*
X164373246Y-77586050D02*
X164373246Y-63269112D01*
X165798277Y-79011081D02*
X164373246Y-77586050D01*
X166598277Y-79011081D02*
X165798277Y-79011081D01*
G04 #@! TO.N,LED_CH0_13*
X163923236Y-61179122D02*
X168122277Y-56980081D01*
X163923236Y-77786040D02*
X163923236Y-61179122D01*
X165798277Y-79661081D02*
X163923236Y-77786040D01*
X166598277Y-79661081D02*
X165798277Y-79661081D01*
G04 #@! TO.N,LED_CH0_14*
X163473226Y-59089132D02*
X168122277Y-54440081D01*
X163473226Y-77986030D02*
X163473226Y-59089132D01*
X165798277Y-80311081D02*
X163473226Y-77986030D01*
X166598277Y-80311081D02*
X165798277Y-80311081D01*
G04 #@! TO.N,LED_CH0_15*
X163023216Y-56999142D02*
X168122277Y-51900081D01*
X163023216Y-78186020D02*
X163023216Y-56999142D01*
X165798277Y-80961081D02*
X163023216Y-78186020D01*
X166598277Y-80961081D02*
X165798277Y-80961081D01*
G04 #@! TO.N,BLANK*
X145572277Y-84211081D02*
X144536081Y-84211081D01*
X147320000Y-84201000D02*
X145582358Y-84201000D01*
X148219871Y-85470991D02*
X148219862Y-85471000D01*
X145582358Y-84201000D02*
X145572277Y-84211081D01*
X132247358Y-84201000D02*
X132237277Y-84211081D01*
X133731000Y-84201000D02*
X132247358Y-84201000D01*
X144536081Y-84211081D02*
X144526000Y-84201000D01*
X158907277Y-84211081D02*
X157725912Y-84211081D01*
X157725912Y-84211081D02*
X157612606Y-84324387D01*
X172298277Y-84211081D02*
X170359807Y-84211081D01*
X170359807Y-84211081D02*
X170349795Y-84221093D01*
X158907277Y-84211081D02*
X160644919Y-84211081D01*
X160644919Y-84211081D02*
X160655000Y-84201000D01*
X164027416Y-85217000D02*
X164408416Y-85598000D01*
X164408416Y-85598000D02*
X169733061Y-85598000D01*
X161544000Y-85217000D02*
X164027416Y-85217000D01*
X175344053Y-85687693D02*
X175344053Y-100795053D01*
X173867441Y-84211081D02*
X175344053Y-85687693D01*
X172298277Y-84211081D02*
X173867441Y-84211081D01*
X155737398Y-85689602D02*
X156337000Y-85090000D01*
X148219871Y-85470991D02*
X148438482Y-85689602D01*
X148438482Y-85689602D02*
X155737398Y-85689602D01*
X142790129Y-85648800D02*
X143094929Y-85344000D01*
X135077200Y-85648800D02*
X142790129Y-85648800D01*
X134899400Y-85471000D02*
X135077200Y-85648800D01*
X134874280Y-85481582D02*
X134888818Y-85481582D01*
X134888818Y-85481582D02*
X134899400Y-85471000D01*
X169244999Y-102371999D02*
X170931533Y-102371999D01*
X166839464Y-102671787D02*
X168945211Y-102671787D01*
X168945211Y-102671787D02*
X169244999Y-102371999D01*
X170931533Y-102371999D02*
X171787234Y-103227700D01*
G04 #@! TO.N,XLAT*
X158912196Y-83566000D02*
X158907277Y-83561081D01*
X145577196Y-83566000D02*
X145572277Y-83561081D01*
X172298277Y-83561081D02*
X171280468Y-83561081D01*
X171280468Y-83561081D02*
X171148277Y-83428890D01*
X144671798Y-83561081D02*
X144422717Y-83312000D01*
X145572277Y-83561081D02*
X144671798Y-83561081D01*
X157864652Y-83561081D02*
X157861617Y-83564116D01*
X158907277Y-83561081D02*
X157864652Y-83561081D01*
X163825081Y-83561081D02*
X163830000Y-83566000D01*
X158907277Y-83561081D02*
X163825081Y-83561081D01*
X169370213Y-103171787D02*
X169545000Y-102997000D01*
X166839464Y-103171787D02*
X169370213Y-103171787D01*
X176012012Y-85719242D02*
X176012012Y-98750627D01*
X172298277Y-83561081D02*
X173853851Y-83561081D01*
X173853851Y-83561081D02*
X176012012Y-85719242D01*
X150886020Y-83561081D02*
X150890049Y-83557052D01*
X145572277Y-83561081D02*
X150886020Y-83561081D01*
X137037919Y-83561081D02*
X137058400Y-83540600D01*
X132237277Y-83561081D02*
X137037919Y-83561081D01*
G04 #@! TO.N,LED_SIN*
X177087025Y-85521435D02*
X173826671Y-82261081D01*
X177087025Y-99935979D02*
X177087025Y-85521435D01*
X170729167Y-106293837D02*
X177087025Y-99935979D01*
X168811128Y-105671787D02*
X169433178Y-106293837D01*
X166839464Y-105671787D02*
X168811128Y-105671787D01*
X169433178Y-106293837D02*
X170729167Y-106293837D01*
X173826671Y-82261081D02*
X172298277Y-82261081D01*
G04 #@! TO.N,VPRG*
X145649358Y-81534000D02*
X145572277Y-81611081D01*
X151257000Y-81534000D02*
X145649358Y-81534000D01*
X164186071Y-81661000D02*
X164211000Y-81636071D01*
X158907277Y-81611081D02*
X158957196Y-81661000D01*
X158957196Y-81661000D02*
X164186071Y-81661000D01*
X132237277Y-81611081D02*
X137590923Y-81611081D01*
X137590923Y-81611081D02*
X137668004Y-81534000D01*
X166839464Y-102171787D02*
X166889454Y-102221777D01*
X177537036Y-85335036D02*
X177537036Y-101926464D01*
X172298277Y-81611081D02*
X173813081Y-81611081D01*
X177537036Y-101926464D02*
X175641000Y-103822500D01*
X173813081Y-81611081D02*
X177537036Y-85335036D01*
X145572277Y-81611081D02*
X144730081Y-81611081D01*
X144730081Y-81611081D02*
X144526000Y-81407000D01*
X158907277Y-81611081D02*
X157938081Y-81611081D01*
X157938081Y-81611081D02*
X157861000Y-81534000D01*
X172298277Y-81611081D02*
X171235929Y-81611081D01*
X171235929Y-81611081D02*
X171196000Y-81651010D01*
X171485677Y-101794988D02*
X172341362Y-102650673D01*
X168252672Y-101794988D02*
X171485677Y-101794988D01*
X167875873Y-102171787D02*
X168252672Y-101794988D01*
X166839464Y-102171787D02*
X167875873Y-102171787D01*
G04 #@! TO.N,XERR_CH0*
X163890931Y-80391000D02*
X162814000Y-80391000D01*
X165111012Y-81611081D02*
X163890931Y-80391000D01*
X166598277Y-81611081D02*
X165111012Y-81611081D01*
G04 #@! TO.N,SOUT_CH0_CH1*
X166598277Y-82261081D02*
X158907277Y-82261081D01*
G04 #@! TO.N,DCPRG*
X163739464Y-99171787D02*
X163749465Y-99161786D01*
X163739464Y-100071787D02*
X163739464Y-99171787D01*
X166598277Y-83561081D02*
X165887501Y-83561081D01*
X165887501Y-83561081D02*
X164592000Y-84856582D01*
X164633260Y-90485259D02*
X164633260Y-87483001D01*
X165100000Y-90951999D02*
X164633260Y-90485259D01*
X163739464Y-100071787D02*
X163739464Y-94832536D01*
X163739464Y-94832536D02*
X165100000Y-93472000D01*
X152407277Y-83561081D02*
X151053800Y-84914558D01*
X164592000Y-86233000D02*
X151211612Y-86233000D01*
X151211612Y-86233000D02*
X151130000Y-86314612D01*
X153207277Y-83561081D02*
X152407277Y-83561081D01*
X151053800Y-84914558D02*
X151053800Y-85064600D01*
X151130000Y-86314612D02*
X137724212Y-86314612D01*
X137724212Y-86314612D02*
X137693400Y-86283800D01*
X126537277Y-83561081D02*
X125737277Y-83561081D01*
X125737277Y-83561081D02*
X124587000Y-84711358D01*
X124587000Y-84711358D02*
X124587000Y-85267800D01*
X124587000Y-85267800D02*
X125603000Y-86283800D01*
X125603000Y-86283800D02*
X137693400Y-86283800D01*
X139019123Y-83561081D02*
X137693404Y-84886800D01*
X139872277Y-83561081D02*
X139019123Y-83561081D01*
G04 #@! TO.N,Net-(LED_CH0_CTRL0-Pad27)*
X167392277Y-87867723D02*
X167392277Y-88222081D01*
X169037000Y-86223000D02*
X167392277Y-87867723D01*
X168021000Y-84963000D02*
X169037000Y-84963000D01*
X166598277Y-84211081D02*
X167269081Y-84211081D01*
X167269081Y-84211081D02*
X168021000Y-84963000D01*
G04 #@! TO.N,LED_CH1_0*
X162535077Y-57107881D02*
X162535077Y-78133281D01*
X157327277Y-51900081D02*
X162535077Y-57107881D01*
X159707277Y-80961081D02*
X158907277Y-80961081D01*
X162535077Y-78133281D02*
X159707277Y-80961081D01*
G04 #@! TO.N,LED_CH1_1*
X159717509Y-80311081D02*
X158907277Y-80311081D01*
X162085066Y-77943526D02*
X159717509Y-80311081D01*
X157327277Y-54440081D02*
X162085066Y-59197870D01*
X162085066Y-59197870D02*
X162085066Y-77943526D01*
G04 #@! TO.N,LED_CH1_2*
X159707277Y-79661081D02*
X158907277Y-79661081D01*
X161635055Y-77733303D02*
X159707277Y-79661081D01*
X161635055Y-61287859D02*
X161635055Y-77733303D01*
X157327277Y-56980081D02*
X161635055Y-61287859D01*
G04 #@! TO.N,LED_CH1_3*
X161185044Y-63377848D02*
X161185044Y-77533314D01*
X157327277Y-59520081D02*
X161185044Y-63377848D01*
X161185044Y-77533314D02*
X159707277Y-79011081D01*
X159707277Y-79011081D02*
X158907277Y-79011081D01*
G04 #@! TO.N,LED_CH1_4*
X157327277Y-62060081D02*
X160735033Y-65467837D01*
X160735033Y-65467837D02*
X160735033Y-77333325D01*
X160735033Y-77333325D02*
X159707277Y-78361081D01*
X159707277Y-78361081D02*
X158907277Y-78361081D01*
G04 #@! TO.N,LED_CH1_5*
X160285022Y-67557826D02*
X160285022Y-77133336D01*
X157327277Y-64600081D02*
X160285022Y-67557826D01*
X160285022Y-77133336D02*
X159707277Y-77711081D01*
X159707277Y-77711081D02*
X158907277Y-77711081D01*
G04 #@! TO.N,LED_CH1_6*
X159835011Y-69647815D02*
X159835011Y-76933347D01*
X157327277Y-67140081D02*
X159835011Y-69647815D01*
X159835011Y-76933347D02*
X159707277Y-77061081D01*
X159707277Y-77061081D02*
X158907277Y-77061081D01*
G04 #@! TO.N,LED_CH1_7*
X159004000Y-76314358D02*
X158907277Y-76411081D01*
X157327277Y-69680081D02*
X158072081Y-69680081D01*
X158427277Y-69680081D02*
X157327277Y-69680081D01*
X157734000Y-70373358D02*
X158427277Y-69680081D01*
X157327277Y-70780081D02*
X157327277Y-69680081D01*
X157327277Y-75158277D02*
X157327277Y-70780081D01*
X158907277Y-76411081D02*
X158580081Y-76411081D01*
X158580081Y-76411081D02*
X157327277Y-75158277D01*
G04 #@! TO.N,LED_CH1_8*
X153207277Y-71260081D02*
X154787277Y-69680081D01*
X153207277Y-76411081D02*
X153207277Y-71260081D01*
G04 #@! TO.N,LED_CH1_9*
X152332276Y-69595082D02*
X154787277Y-67140081D01*
X152332276Y-76871082D02*
X152332276Y-69595082D01*
X152397276Y-76936082D02*
X152332276Y-76871082D01*
X153136082Y-76936082D02*
X152397276Y-76936082D01*
X153207277Y-77007277D02*
X153136082Y-76936082D01*
X153207277Y-77061081D02*
X153207277Y-77007277D01*
G04 #@! TO.N,LED_CH1_10*
X151882266Y-67505092D02*
X154787277Y-64600081D01*
X151882266Y-77186070D02*
X151882266Y-67505092D01*
X152407277Y-77711081D02*
X151882266Y-77186070D01*
X153207277Y-77711081D02*
X152407277Y-77711081D01*
G04 #@! TO.N,LED_CH1_11*
X151432256Y-65415102D02*
X154787277Y-62060081D01*
X151432256Y-77372470D02*
X151432256Y-65415102D01*
X152420867Y-78361081D02*
X151432256Y-77372470D01*
X153207277Y-78361081D02*
X152420867Y-78361081D01*
G04 #@! TO.N,LED_CH1_12*
X150982246Y-63325112D02*
X154787277Y-59520081D01*
X150982246Y-77558870D02*
X150982246Y-63325112D01*
X152309458Y-78886082D02*
X150982246Y-77558870D01*
X153207277Y-79011081D02*
X153207277Y-78886082D01*
X153207277Y-78886082D02*
X152309458Y-78886082D01*
G04 #@! TO.N,LED_CH1_13*
X150532236Y-61235122D02*
X154787277Y-56980081D01*
X150532236Y-77786040D02*
X150532236Y-61235122D01*
X152407277Y-79661081D02*
X150532236Y-77786040D01*
X153207277Y-79661081D02*
X152407277Y-79661081D01*
G04 #@! TO.N,LED_CH1_14*
X150082226Y-59145132D02*
X154787277Y-54440081D01*
X150082226Y-77986030D02*
X150082226Y-59145132D01*
X152407277Y-80311081D02*
X150082226Y-77986030D01*
X153207277Y-80311081D02*
X152407277Y-80311081D01*
G04 #@! TO.N,LED_CH1_15*
X149632216Y-57055142D02*
X154787277Y-51900081D01*
X149632216Y-78172430D02*
X149632216Y-57055142D01*
X152420867Y-80961081D02*
X149632216Y-78172430D01*
X153207277Y-80961081D02*
X152420867Y-80961081D01*
G04 #@! TO.N,XERR_CH1*
X151060196Y-80264000D02*
X149352000Y-80264000D01*
X152407277Y-81611081D02*
X151060196Y-80264000D01*
X153207277Y-81611081D02*
X152407277Y-81611081D01*
G04 #@! TO.N,SOUT_CH1_CH2*
X153207277Y-82261081D02*
X145572277Y-82261081D01*
G04 #@! TO.N,Net-(LED_CH1_CTRL0-Pad27)*
X155307277Y-88222081D02*
X154057277Y-88222081D01*
X155702000Y-87827358D02*
X155307277Y-88222081D01*
X155702000Y-87122000D02*
X155702000Y-87827358D01*
X153207277Y-84211081D02*
X154059671Y-84211081D01*
X154059671Y-84211081D02*
X154807069Y-84958479D01*
X154807069Y-84958479D02*
X155547873Y-84958479D01*
G04 #@! TO.N,LED_CH2_0*
X149147338Y-57055142D02*
X143992277Y-51900081D01*
X149147338Y-78104480D02*
X149147338Y-57055142D01*
X146290737Y-80961081D02*
X149147338Y-78104480D01*
X145572277Y-80961081D02*
X146290737Y-80961081D01*
G04 #@! TO.N,LED_CH2_1*
X148697328Y-59145132D02*
X143992277Y-54440081D01*
X148697328Y-77918080D02*
X148697328Y-59145132D01*
X146304327Y-80311081D02*
X148697328Y-77918080D01*
X145572277Y-80311081D02*
X146304327Y-80311081D01*
G04 #@! TO.N,LED_CH2_2*
X148247318Y-61235122D02*
X143992277Y-56980081D01*
X148247318Y-77731680D02*
X148247318Y-61235122D01*
X146317917Y-79661081D02*
X148247318Y-77731680D01*
X145572277Y-79661081D02*
X146317917Y-79661081D01*
G04 #@! TO.N,LED_CH2_3*
X147797308Y-63325112D02*
X143992277Y-59520081D01*
X147797308Y-77545280D02*
X147797308Y-63325112D01*
X146331507Y-79011081D02*
X147797308Y-77545280D01*
X145572277Y-79011081D02*
X146331507Y-79011081D01*
G04 #@! TO.N,LED_CH2_4*
X147347298Y-65415102D02*
X143992277Y-62060081D01*
X147347298Y-77358880D02*
X147347298Y-65415102D01*
X146345097Y-78361081D02*
X147347298Y-77358880D01*
X145572277Y-78361081D02*
X146345097Y-78361081D01*
G04 #@! TO.N,LED_CH2_5*
X146897288Y-67505092D02*
X143992277Y-64600081D01*
X146897288Y-77172480D02*
X146897288Y-67505092D01*
X146358687Y-77711081D02*
X146897288Y-77172480D01*
X145572277Y-77711081D02*
X146358687Y-77711081D01*
G04 #@! TO.N,LED_CH2_6*
X146447278Y-69595082D02*
X143992277Y-67140081D01*
X146447278Y-76986080D02*
X146447278Y-69595082D01*
X146372277Y-77061081D02*
X146447278Y-76986080D01*
X145572277Y-77061081D02*
X146372277Y-77061081D01*
G04 #@! TO.N,LED_CH2_7*
X144018000Y-69680081D02*
X143992277Y-69680081D01*
X143992277Y-75158277D02*
X143992277Y-69680081D01*
X145572277Y-76411081D02*
X145245081Y-76411081D01*
X145245081Y-76411081D02*
X143992277Y-75158277D01*
G04 #@! TO.N,LED_CH2_8*
X139872277Y-71260081D02*
X141452277Y-69680081D01*
X139872277Y-76411081D02*
X139872277Y-71260081D01*
G04 #@! TO.N,LED_CH2_9*
X138997276Y-69595082D02*
X141452277Y-67140081D01*
X138997276Y-76871082D02*
X138997276Y-69595082D01*
X139062276Y-76936082D02*
X138997276Y-76871082D01*
X139065000Y-76936082D02*
X139062276Y-76936082D01*
X139065000Y-76938806D02*
X139065000Y-76936082D01*
X139187275Y-77061081D02*
X139065000Y-76938806D01*
X139872277Y-77061081D02*
X139187275Y-77061081D01*
G04 #@! TO.N,LED_CH2_10*
X138547266Y-67505092D02*
X141452277Y-64600081D01*
X138547266Y-77186070D02*
X138547266Y-67505092D01*
X139072277Y-77711081D02*
X138547266Y-77186070D01*
X139872277Y-77711081D02*
X139072277Y-77711081D01*
G04 #@! TO.N,LED_CH2_11*
X138097256Y-65415102D02*
X141452277Y-62060081D01*
X138097256Y-77372470D02*
X138097256Y-65415102D01*
X139085867Y-78361081D02*
X138097256Y-77372470D01*
X139872277Y-78361081D02*
X139085867Y-78361081D01*
G04 #@! TO.N,LED_CH2_12*
X137647246Y-63325112D02*
X141452277Y-59520081D01*
X137647246Y-77586050D02*
X137647246Y-63325112D01*
X139072277Y-79011081D02*
X137647246Y-77586050D01*
X139872277Y-79011081D02*
X139072277Y-79011081D01*
G04 #@! TO.N,LED_CH2_13*
X137197236Y-61235122D02*
X141452277Y-56980081D01*
X137197236Y-77786040D02*
X137197236Y-61235122D01*
X139072277Y-79661081D02*
X137197236Y-77786040D01*
X139872277Y-79661081D02*
X139072277Y-79661081D01*
G04 #@! TO.N,LED_CH2_14*
X136747226Y-59145132D02*
X141452277Y-54440081D01*
X136747226Y-77986030D02*
X136747226Y-59145132D01*
X139072277Y-80311081D02*
X136747226Y-77986030D01*
X139872277Y-80311081D02*
X139072277Y-80311081D01*
G04 #@! TO.N,LED_CH2_15*
X136297216Y-57055142D02*
X141452277Y-51900081D01*
X136297216Y-78186020D02*
X136297216Y-57055142D01*
X139072277Y-80961081D02*
X136297216Y-78186020D01*
X139872277Y-80961081D02*
X139072277Y-80961081D01*
G04 #@! TO.N,XERR_CH2*
X137725196Y-80264000D02*
X136017000Y-80264000D01*
X139072277Y-81611081D02*
X137725196Y-80264000D01*
X139872277Y-81611081D02*
X139072277Y-81611081D01*
G04 #@! TO.N,SOUT_CH2_CH3*
X138990194Y-82178998D02*
X133119360Y-82178998D01*
X139072277Y-82261081D02*
X138990194Y-82178998D01*
X133037277Y-82261081D02*
X132237277Y-82261081D01*
X139872277Y-82261081D02*
X139072277Y-82261081D01*
X133119360Y-82178998D02*
X133037277Y-82261081D01*
G04 #@! TO.N,Net-(LED_CH2_CTRL0-Pad27)*
X141497172Y-84856582D02*
X142367000Y-84856582D01*
X139872277Y-84211081D02*
X140851671Y-84211081D01*
X140851671Y-84211081D02*
X141497172Y-84856582D01*
X140722277Y-88222081D02*
X140872277Y-88222081D01*
X142154736Y-86939622D02*
X142367000Y-86939622D01*
X140872277Y-88222081D02*
X142154736Y-86939622D01*
G04 #@! TO.N,LED_CH3_0*
X135812338Y-57055142D02*
X130657277Y-51900081D01*
X135812338Y-78158840D02*
X135812338Y-57055142D01*
X133010097Y-80961081D02*
X135812338Y-78158840D01*
X132237277Y-80961081D02*
X133010097Y-80961081D01*
G04 #@! TO.N,LED_CH3_1*
X135362328Y-59145132D02*
X130657277Y-54440081D01*
X135362328Y-77972440D02*
X135362328Y-59145132D01*
X133023687Y-80311081D02*
X135362328Y-77972440D01*
X132237277Y-80311081D02*
X133023687Y-80311081D01*
G04 #@! TO.N,LED_CH3_2*
X134912318Y-61235122D02*
X130657277Y-56980081D01*
X134912318Y-77786040D02*
X134912318Y-61235122D01*
X133037277Y-79661081D02*
X134912318Y-77786040D01*
X132237277Y-79661081D02*
X133037277Y-79661081D01*
G04 #@! TO.N,LED_CH3_3*
X134462308Y-63325112D02*
X130657277Y-59520081D01*
X134462308Y-77572460D02*
X134462308Y-63325112D01*
X133023687Y-79011081D02*
X134462308Y-77572460D01*
X132237277Y-79011081D02*
X133023687Y-79011081D01*
G04 #@! TO.N,LED_CH3_4*
X134012298Y-65415102D02*
X130657277Y-62060081D01*
X134012298Y-77386060D02*
X134012298Y-65415102D01*
X133037277Y-78361081D02*
X134012298Y-77386060D01*
X132237277Y-78361081D02*
X133037277Y-78361081D01*
G04 #@! TO.N,LED_CH3_5*
X133562288Y-67505092D02*
X130657277Y-64600081D01*
X133562288Y-77186070D02*
X133562288Y-67505092D01*
X133037277Y-77711081D02*
X133562288Y-77186070D01*
X132237277Y-77711081D02*
X133037277Y-77711081D01*
G04 #@! TO.N,LED_CH3_6*
X133112278Y-69595082D02*
X130657277Y-67140081D01*
X133112278Y-76986080D02*
X133112278Y-69595082D01*
X133037277Y-77061081D02*
X133112278Y-76986080D01*
X132237277Y-77061081D02*
X133037277Y-77061081D01*
G04 #@! TO.N,LED_CH3_7*
X130657277Y-70780081D02*
X130657277Y-69680081D01*
X130657277Y-75181081D02*
X130657277Y-70780081D01*
X131887277Y-76411081D02*
X130657277Y-75181081D01*
X132237277Y-76411081D02*
X131887277Y-76411081D01*
G04 #@! TO.N,LED_CH3_8*
X126537277Y-71260081D02*
X128117277Y-69680081D01*
X126537277Y-76411081D02*
X126537277Y-71260081D01*
G04 #@! TO.N,LED_CH3_9*
X125662276Y-69595082D02*
X128117277Y-67140081D01*
X125662276Y-76986080D02*
X125662276Y-69595082D01*
X125737277Y-77061081D02*
X125662276Y-76986080D01*
X126537277Y-77061081D02*
X125737277Y-77061081D01*
G04 #@! TO.N,LED_CH3_10*
X125212266Y-67505092D02*
X128117277Y-64600081D01*
X125212266Y-77172480D02*
X125212266Y-67505092D01*
X125750867Y-77711081D02*
X125212266Y-77172480D01*
X126537277Y-77711081D02*
X125750867Y-77711081D01*
G04 #@! TO.N,LED_CH3_11*
X124762256Y-65415102D02*
X128117277Y-62060081D01*
X124762256Y-77358880D02*
X124762256Y-65415102D01*
X125764457Y-78361081D02*
X124762256Y-77358880D01*
X126537277Y-78361081D02*
X125764457Y-78361081D01*
G04 #@! TO.N,LED_CH3_12*
X124312246Y-63325112D02*
X128117277Y-59520081D01*
X124312246Y-77545280D02*
X124312246Y-63325112D01*
X125778047Y-79011081D02*
X124312246Y-77545280D01*
X126537277Y-79011081D02*
X125778047Y-79011081D01*
G04 #@! TO.N,LED_CH3_13*
X123862236Y-61235122D02*
X128117277Y-56980081D01*
X123862236Y-77731680D02*
X123862236Y-61235122D01*
X125791637Y-79661081D02*
X123862236Y-77731680D01*
X126537277Y-79661081D02*
X125791637Y-79661081D01*
G04 #@! TO.N,LED_CH3_14*
X123412226Y-59145132D02*
X128117277Y-54440081D01*
X123412226Y-77918080D02*
X123412226Y-59145132D01*
X125805227Y-80311081D02*
X123412226Y-77918080D01*
X126537277Y-80311081D02*
X125805227Y-80311081D01*
G04 #@! TO.N,LED_CH3_15*
X122962216Y-57055142D02*
X128117277Y-51900081D01*
X122962216Y-78186020D02*
X122962216Y-57055142D01*
X125737277Y-80961081D02*
X122962216Y-78186020D01*
X126537277Y-80961081D02*
X125737277Y-80961081D01*
G04 #@! TO.N,XERR_CH3*
X124079000Y-82931000D02*
X124079000Y-88392000D01*
X126537277Y-81611081D02*
X125398919Y-81611081D01*
X125398919Y-81611081D02*
X124079000Y-82931000D01*
G04 #@! TO.N,Net-(LED_CH3_CTRL0-Pad27)*
X128649590Y-85471000D02*
X128905000Y-85471000D01*
X126537277Y-84211081D02*
X127389671Y-84211081D01*
X127389671Y-84211081D02*
X128649590Y-85471000D01*
X127537277Y-88222081D02*
X128850548Y-86908810D01*
X127387277Y-88222081D02*
X127537277Y-88222081D01*
X128850548Y-86908810D02*
X128905000Y-86908810D01*
G04 #@! TO.N,LAYER_2_ON*
X157239464Y-101671787D02*
X156786677Y-101219000D01*
X158139464Y-101671787D02*
X157239464Y-101671787D01*
X155924110Y-100689108D02*
X155730156Y-100689108D01*
X156786677Y-101219000D02*
X156454002Y-101219000D01*
X156454002Y-101219000D02*
X155924110Y-100689108D01*
X140391580Y-97085991D02*
X142688600Y-99383011D01*
X108906341Y-97085991D02*
X140391580Y-97085991D01*
X107992332Y-99250000D02*
X107992332Y-98000000D01*
X107992332Y-98000000D02*
X108906341Y-97085991D01*
X153104033Y-99383011D02*
X154305022Y-100584000D01*
X142688600Y-99383011D02*
X153104033Y-99383011D01*
G04 #@! TO.N,AUX_SPI_SSEL*
X150114000Y-104096736D02*
X150114000Y-109922989D01*
X153543000Y-101092000D02*
X153118736Y-101092000D01*
X153118736Y-101092000D02*
X150114000Y-104096736D01*
X158139464Y-102171787D02*
X156843010Y-102171787D01*
X156843010Y-102171787D02*
X156718000Y-102046777D01*
X158115000Y-122046998D02*
X157470008Y-122046998D01*
X157470008Y-122046998D02*
X150114000Y-114690990D01*
X176530000Y-135890000D02*
X174509808Y-135890000D01*
X174509808Y-135890000D02*
X162664890Y-124045082D01*
X162664890Y-124045082D02*
X162364891Y-123745083D01*
G04 #@! TO.N,_RESET*
X175549560Y-111094520D02*
X175549560Y-118714520D01*
X175549560Y-105541314D02*
X174932510Y-104924264D01*
X175549560Y-111094520D02*
X175549560Y-105541314D01*
X172974000Y-100838000D02*
X172974000Y-100159736D01*
X156735029Y-99641977D02*
X156735029Y-100580116D01*
X164291999Y-92085007D02*
X156735029Y-99641977D01*
X164899271Y-92085007D02*
X164291999Y-92085007D01*
X172974000Y-100159736D02*
X164899271Y-92085007D01*
X155829000Y-102271004D02*
X155829000Y-101482990D01*
X158139464Y-102671787D02*
X156229783Y-102671787D01*
X156229783Y-102671787D02*
X155829000Y-102271004D01*
X175549560Y-118714520D02*
X178404520Y-118714520D01*
X178404520Y-118714520D02*
X182753000Y-123063000D01*
X182753000Y-123063000D02*
X182753000Y-124851160D01*
X179742719Y-127861441D02*
X179242720Y-128361440D01*
X182753000Y-124851160D02*
X179742719Y-127861441D01*
G04 #@! TO.N,WIRELESS_CSN*
X151203717Y-109297976D02*
X151002978Y-109498715D01*
X151002978Y-109498715D02*
X151002978Y-109922979D01*
X153211024Y-109297976D02*
X151203717Y-109297976D01*
X156837213Y-105671787D02*
X153211024Y-109297976D01*
X158139464Y-105671787D02*
X156837213Y-105671787D01*
X157353000Y-120904000D02*
X158369000Y-120904000D01*
X151003000Y-114554000D02*
X157353000Y-120904000D01*
X177800000Y-134620000D02*
X174371000Y-134620000D01*
X179070000Y-135890000D02*
X177800000Y-134620000D01*
X174371000Y-134620000D02*
X163240999Y-123489999D01*
X163240999Y-123489999D02*
X162941000Y-123190000D01*
G04 #@! TO.N,LAYER_3_ON*
X157110034Y-106671787D02*
X153233832Y-110547989D01*
X110870998Y-99400000D02*
X110870998Y-99250000D01*
X153233832Y-110547989D02*
X122018987Y-110547989D01*
X122018987Y-110547989D02*
X110870998Y-99400000D01*
X158139464Y-106671787D02*
X157110034Y-106671787D01*
G04 #@! TO.N,LAYER_4_ON*
X113749664Y-99100000D02*
X113749664Y-99250000D01*
X157614464Y-107171787D02*
X153788251Y-110998000D01*
X109695997Y-100932997D02*
X109695997Y-97989999D01*
X110149996Y-97536000D02*
X112185664Y-97536000D01*
X158139464Y-107171787D02*
X157614464Y-107171787D01*
X112185664Y-97536000D02*
X113749664Y-99100000D01*
X119761000Y-110998000D02*
X109695997Y-100932997D01*
X153788251Y-110998000D02*
X119761000Y-110998000D01*
X109695997Y-97989999D02*
X110149996Y-97536000D01*
G04 #@! TO.N,AUX_SPI_SCK*
X166839464Y-104171787D02*
X170902576Y-104171787D01*
X170902576Y-104171787D02*
X171162234Y-104431445D01*
X181991000Y-132208410D02*
X181991000Y-137160000D01*
X180153601Y-130371011D02*
X181991000Y-132208410D01*
X172487597Y-117923986D02*
X171644987Y-118766596D01*
X176978600Y-130371011D02*
X180153601Y-130371011D01*
X171644987Y-118766596D02*
X171644987Y-125037398D01*
X172062452Y-107292453D02*
X172487597Y-107717598D01*
X171644987Y-125037398D02*
X176978600Y-130371011D01*
X172487597Y-107717598D02*
X172487597Y-117923986D01*
G04 #@! TO.N,WIRELESS_IRQ*
X160925454Y-111489546D02*
X160925454Y-111522458D01*
X161739464Y-108771787D02*
X161739464Y-110675536D01*
X161739464Y-110675536D02*
X160925454Y-111489546D01*
X161541178Y-115570000D02*
X160909000Y-115570000D01*
X176792200Y-130821022D02*
X161541178Y-115570000D01*
X179967202Y-130821022D02*
X176792200Y-130821022D01*
X181229000Y-138811000D02*
X181229000Y-132082820D01*
X181229000Y-132082820D02*
X179967202Y-130821022D01*
X179070000Y-140970000D02*
X181229000Y-138811000D01*
G04 #@! TO.N,LAYER_0_ON*
X162739464Y-111743538D02*
X162213979Y-112269023D01*
X102235000Y-99400000D02*
X102235000Y-99250000D01*
X115104023Y-112269023D02*
X102235000Y-99400000D01*
X162739464Y-108771787D02*
X162739464Y-111743538D01*
X162213979Y-112269023D02*
X115104023Y-112269023D01*
G04 #@! TO.N,LAYER_1_ON*
X162616966Y-112719034D02*
X112719034Y-112719034D01*
X105113666Y-99100000D02*
X105113666Y-99250000D01*
X101346000Y-97409000D02*
X103422666Y-97409000D01*
X100457000Y-98298000D02*
X101346000Y-97409000D01*
X112719034Y-112719034D02*
X100457000Y-100457000D01*
X163239464Y-108771787D02*
X163239464Y-112096536D01*
X163239464Y-112096536D02*
X162616966Y-112719034D01*
X100457000Y-100457000D02*
X100457000Y-98298000D01*
X103422666Y-97409000D02*
X105113666Y-99100000D01*
G04 #@! TO.N,LAYER_5_ON*
X143788040Y-110097978D02*
X143963039Y-109922979D01*
X127326308Y-110097978D02*
X143788040Y-110097978D01*
X116628330Y-99400000D02*
X127326308Y-110097978D01*
X116628330Y-99250000D02*
X116628330Y-99400000D01*
X145307856Y-113741194D02*
X163195000Y-113741194D01*
X143979989Y-113469039D02*
X144479998Y-113969048D01*
X145080002Y-113969048D02*
X145307856Y-113741194D01*
X143979989Y-113344044D02*
X143979989Y-113469039D01*
X144479998Y-113969048D02*
X145080002Y-113969048D01*
X165239464Y-108771787D02*
X165239464Y-109740464D01*
X165239464Y-109740464D02*
X165608000Y-110109000D01*
G04 #@! TO.N,LAYER_6_ON*
X119507000Y-99100000D02*
X119507000Y-99250000D01*
X168582584Y-108023416D02*
X168582584Y-108040800D01*
X168592500Y-108013500D02*
X168582584Y-108023416D01*
X166839464Y-107171787D02*
X167750787Y-107171787D01*
X167750787Y-107171787D02*
X168592500Y-108013500D01*
X119507000Y-99400000D02*
X129729977Y-109622977D01*
X119507000Y-99250000D02*
X119507000Y-99400000D01*
X144817999Y-109498715D02*
X144817999Y-109922979D01*
X129729977Y-109622977D02*
X143338037Y-109622977D01*
X143338037Y-109622977D02*
X143663037Y-109297977D01*
X143663037Y-109297977D02*
X144617261Y-109297977D01*
X144617261Y-109297977D02*
X144817999Y-109498715D01*
X144893547Y-113230499D02*
X162767997Y-113230499D01*
X144780000Y-113344046D02*
X144893547Y-113230499D01*
X162767997Y-113230499D02*
X162968496Y-113030000D01*
X162968496Y-113030000D02*
X163449000Y-113030000D01*
X165607994Y-113284000D02*
X169798994Y-109093000D01*
X163449000Y-113030000D02*
X163703000Y-113284000D01*
X163703000Y-113284000D02*
X165607994Y-113284000D01*
G04 #@! TO.N,AUX_SPI_MISO*
X166839464Y-106671787D02*
X168297959Y-106671787D01*
X168297959Y-106671787D02*
X169286132Y-107659960D01*
X176530000Y-142172081D02*
X177809930Y-143452011D01*
X183457011Y-140267400D02*
X183457011Y-110876511D01*
X180272400Y-143452011D02*
X183457011Y-140267400D01*
X177204763Y-104624263D02*
X175522595Y-104624263D01*
X170733999Y-107737022D02*
X170733999Y-108158001D01*
X175197595Y-104299263D02*
X174171758Y-104299263D01*
X176530000Y-140970000D02*
X176530000Y-142172081D01*
X170733999Y-108158001D02*
X170434000Y-108458000D01*
X183457011Y-110876511D02*
X177204763Y-104624263D01*
X175522595Y-104624263D02*
X175197595Y-104299263D01*
X174171758Y-104299263D02*
X170733999Y-107737022D01*
X177809930Y-143452011D02*
X180272400Y-143452011D01*
G04 #@! TO.N,SWCLK*
X174372032Y-119317532D02*
X174372032Y-110363000D01*
X175000490Y-119945990D02*
X174372032Y-119317532D01*
X177984990Y-119945990D02*
X175000490Y-119945990D01*
X180213000Y-122174000D02*
X177984990Y-119945990D01*
X179242720Y-124551440D02*
X180213000Y-123581160D01*
X180213000Y-123581160D02*
X180213000Y-122174000D01*
X166839464Y-105171787D02*
X169236130Y-105171787D01*
X169236130Y-105171787D02*
X169733179Y-105668836D01*
G04 #@! TO.N,LAYER_7_ON*
X159739464Y-108771787D02*
X159739464Y-109205418D01*
X157403251Y-111633000D02*
X142494000Y-111633000D01*
X159739464Y-108771787D02*
X159739464Y-109296787D01*
X159739464Y-109296787D02*
X157403251Y-111633000D01*
X142208023Y-108966000D02*
X142240000Y-108997977D01*
X131953000Y-108966000D02*
X142208023Y-108966000D01*
X122301000Y-99250000D02*
X122301000Y-99314000D01*
X122301000Y-99314000D02*
X131953000Y-108966000D01*
G04 #@! TO.N,AUX_SPI_MOSI*
X167262233Y-97409000D02*
X170573200Y-100719967D01*
X164739464Y-98405946D02*
X165736410Y-97409000D01*
X165736410Y-97409000D02*
X167262233Y-97409000D01*
X164739464Y-100071787D02*
X164739464Y-98405946D01*
X172983998Y-106453745D02*
X173610032Y-105827711D01*
X172983998Y-118063996D02*
X172983998Y-106453745D01*
X172094998Y-124850998D02*
X172094998Y-118952996D01*
X177165000Y-129921000D02*
X172094998Y-124850998D01*
X183007000Y-132588000D02*
X180340000Y-129921000D01*
X178435000Y-143002000D02*
X180086000Y-143002000D01*
X177800000Y-142367000D02*
X178435000Y-143002000D01*
X180340000Y-129921000D02*
X177165000Y-129921000D01*
X177800000Y-139700000D02*
X177800000Y-142367000D01*
X179070000Y-138430000D02*
X177800000Y-139700000D01*
X183007000Y-140081000D02*
X183007000Y-132588000D01*
X180086000Y-143002000D02*
X183007000Y-140081000D01*
X172094998Y-118952996D02*
X172983998Y-118063996D01*
G04 #@! TO.N,SWDIO*
X165608000Y-96901000D02*
X168148000Y-96901000D01*
X168148000Y-96901000D02*
X171196000Y-99949000D01*
X164239464Y-100071787D02*
X164239464Y-98269536D01*
X164239464Y-98269536D02*
X165608000Y-96901000D01*
X173747022Y-108293893D02*
X174338056Y-107702859D01*
X174338056Y-107702859D02*
X174338056Y-105496047D01*
X177064387Y-120396001D02*
X174661005Y-120396001D01*
X179242720Y-122574334D02*
X177064387Y-120396001D01*
X179242720Y-123281440D02*
X179242720Y-122574334D01*
X174661005Y-120396001D02*
X173747022Y-119482018D01*
X173747022Y-119482018D02*
X173747022Y-108293893D01*
D35*
G04 #@! TO.N,V5_AUX*
X97440000Y-122160400D02*
X94345760Y-125254640D01*
X97440000Y-114935000D02*
X97440000Y-122160400D01*
G04 #@! TO.N,V5*
X90823000Y-57309000D02*
X89773000Y-58359000D01*
X92583000Y-57309000D02*
X90823000Y-57309000D01*
X98443000Y-57309000D02*
X97393000Y-58359000D01*
X100203000Y-57309000D02*
X98443000Y-57309000D01*
X106063000Y-57309000D02*
X105013000Y-58359000D01*
X107823000Y-57309000D02*
X106063000Y-57309000D01*
X113683000Y-57309000D02*
X112633000Y-58359000D01*
X115443000Y-57309000D02*
X113683000Y-57309000D01*
X94633000Y-64929000D02*
X93583000Y-65979000D01*
X96393000Y-64929000D02*
X94633000Y-64929000D01*
X102253000Y-64929000D02*
X101203000Y-65979000D01*
X104013000Y-64929000D02*
X102253000Y-64929000D01*
X109873000Y-64929000D02*
X108823000Y-65979000D01*
X110998000Y-64929000D02*
X109873000Y-64929000D01*
X116858000Y-64929000D02*
X115808000Y-65979000D01*
X118618000Y-64929000D02*
X116858000Y-64929000D01*
X110998000Y-64929000D02*
X111601000Y-64929000D01*
X111601000Y-64929000D02*
X113030000Y-63500000D01*
X116858000Y-64929000D02*
X116858000Y-64153000D01*
X116858000Y-64153000D02*
X116840000Y-64135000D01*
X108823000Y-65979000D02*
X108823000Y-64754000D01*
X108823000Y-64754000D02*
X108585000Y-64516000D01*
X104013000Y-63881000D02*
X104013000Y-64929000D01*
X105663984Y-62992000D02*
X104902000Y-62992000D01*
X104902000Y-62992000D02*
X104013000Y-63881000D01*
X102253000Y-64929000D02*
X102253000Y-64915000D01*
X102253000Y-64915000D02*
X101600000Y-64262000D01*
X96393000Y-64779000D02*
X98053000Y-63119000D01*
X98053000Y-63119000D02*
X98552001Y-63119000D01*
X96393000Y-64929000D02*
X96393000Y-64779000D01*
X99822000Y-57690000D02*
X100203000Y-57309000D01*
X99822000Y-59182000D02*
X99822000Y-57690000D01*
X107696000Y-57436000D02*
X107823000Y-57309000D01*
X107696000Y-59182000D02*
X107696000Y-57436000D01*
X115316000Y-57436000D02*
X115443000Y-57309000D01*
X115316000Y-59182000D02*
X115316000Y-57436000D01*
X96393000Y-64929000D02*
X96393000Y-62738000D01*
X96393000Y-62738000D02*
X95631000Y-61976000D01*
X92837000Y-57563000D02*
X92583000Y-57309000D01*
X92837000Y-59436000D02*
X92837000Y-57563000D01*
X94759400Y-127381000D02*
X96885760Y-125254640D01*
X88519000Y-123317000D02*
X92583000Y-127381000D01*
X92583000Y-127381000D02*
X94759400Y-127381000D01*
X88092001Y-61894999D02*
X88092001Y-83139001D01*
X88392000Y-61595000D02*
X88092001Y-61894999D01*
X88092001Y-83139001D02*
X92837000Y-87884000D01*
X92837000Y-87884000D02*
X92837000Y-108331000D01*
X92837000Y-108331000D02*
X88519000Y-112649000D01*
X88519000Y-112649000D02*
X88519000Y-123317000D01*
D34*
G04 #@! TO.N,Net-(Q201-Pad3)*
X91533000Y-60259000D02*
X92583000Y-61309000D01*
X89773000Y-60259000D02*
X91533000Y-60259000D01*
X89408000Y-60624000D02*
X89773000Y-60259000D01*
X89678000Y-74549000D02*
X89408000Y-74279000D01*
X89408000Y-74279000D02*
X89408000Y-60624000D01*
G04 #@! TO.N,Net-(Q202-Pad3)*
X95343000Y-67879000D02*
X96393000Y-68929000D01*
X93583000Y-67879000D02*
X95343000Y-67879000D01*
X96012000Y-69310000D02*
X96393000Y-68929000D01*
X96012000Y-75195998D02*
X96012000Y-69310000D01*
X91329000Y-80264000D02*
X91329000Y-79878998D01*
X91329000Y-79878998D02*
X96012000Y-75195998D01*
G04 #@! TO.N,Net-(Q203-Pad3)*
X99153000Y-60259000D02*
X100203000Y-61309000D01*
X97393000Y-60259000D02*
X99153000Y-60259000D01*
X100203000Y-62846873D02*
X100203000Y-61309000D01*
X97298000Y-74549000D02*
X97298000Y-73899000D01*
X97298000Y-73899000D02*
X98327999Y-72869001D01*
X98327999Y-64721874D02*
X100203000Y-62846873D01*
X98327999Y-72869001D02*
X98327999Y-64721874D01*
G04 #@! TO.N,Net-(Q204-Pad3)*
X102963000Y-67879000D02*
X104013000Y-68929000D01*
X101203000Y-67879000D02*
X102963000Y-67879000D01*
X103632000Y-69310000D02*
X104013000Y-68929000D01*
X103632000Y-74931000D02*
X103632000Y-69310000D01*
X98949000Y-80264000D02*
X98949000Y-79614000D01*
X98949000Y-79614000D02*
X103632000Y-74931000D01*
G04 #@! TO.N,Net-(Q209-Pad3)*
X106773000Y-60259000D02*
X107823000Y-61309000D01*
X105013000Y-60259000D02*
X106773000Y-60259000D01*
X105947999Y-70709001D02*
X105947999Y-64712003D01*
X104918000Y-74549000D02*
X104918000Y-71739000D01*
X107823000Y-62837002D02*
X107823000Y-61309000D01*
X105947999Y-64712003D02*
X107823000Y-62837002D01*
X104918000Y-71739000D02*
X105947999Y-70709001D01*
G04 #@! TO.N,Net-(Q210-Pad3)*
X109948000Y-67879000D02*
X110998000Y-68929000D01*
X108823000Y-67879000D02*
X109948000Y-67879000D01*
X110998000Y-75079002D02*
X110998000Y-68929000D01*
X107442000Y-78635002D02*
X110998000Y-75079002D01*
X107442000Y-79441000D02*
X107442000Y-78635002D01*
X106569000Y-80264000D02*
X106619000Y-80264000D01*
X106619000Y-80264000D02*
X107442000Y-79441000D01*
G04 #@! TO.N,Net-(Q211-Pad3)*
X114393000Y-60259000D02*
X115443000Y-61309000D01*
X112633000Y-60259000D02*
X114393000Y-60259000D01*
X115443000Y-62865000D02*
X115443000Y-61309000D01*
X112268000Y-74279000D02*
X112268000Y-66554001D01*
X112538000Y-74549000D02*
X112268000Y-74279000D01*
X112268000Y-66554001D02*
X112348001Y-66554001D01*
X112348001Y-66554001D02*
X112473001Y-66429001D01*
X112473001Y-66429001D02*
X112473001Y-65834999D01*
X112473001Y-65834999D02*
X115443000Y-62865000D01*
G04 #@! TO.N,Net-(Q212-Pad3)*
X117568000Y-67879000D02*
X118618000Y-68929000D01*
X115808000Y-67879000D02*
X117568000Y-67879000D01*
X118618000Y-76327000D02*
X118618000Y-68929000D01*
X114889000Y-80264000D02*
X115062000Y-80091000D01*
X114189000Y-80264000D02*
X114889000Y-80264000D01*
X115062000Y-80091000D02*
X115062000Y-78740000D01*
X115062000Y-78740000D02*
X115824000Y-77978000D01*
X115824000Y-77978000D02*
X116967000Y-77978000D01*
X116967000Y-77978000D02*
X118618000Y-76327000D01*
G04 #@! TO.N,ISP_ENTRY*
X158580251Y-95250000D02*
X158044464Y-95785787D01*
X156093372Y-103171787D02*
X158139464Y-103171787D01*
X158044464Y-97696131D02*
X155918595Y-99822000D01*
X158044464Y-95785787D02*
X158044464Y-97696131D01*
X155918595Y-99822000D02*
X155672262Y-99822000D01*
X155105155Y-100389107D02*
X155105155Y-102183570D01*
X155672262Y-99822000D02*
X155105155Y-100389107D01*
X155105155Y-102183570D02*
X156093372Y-103171787D01*
G04 #@! TO.N,INPUT_MODE_SELECT*
X158044464Y-93245787D02*
X156071806Y-93245787D01*
X156071806Y-93245787D02*
X152462940Y-96854653D01*
X153222433Y-109922977D02*
X151869377Y-109922977D01*
X158139464Y-106171787D02*
X156973623Y-106171787D01*
X156973623Y-106171787D02*
X153222433Y-109922977D01*
X147320000Y-138430000D02*
X146050000Y-139700000D01*
X147320000Y-135509000D02*
X147320000Y-138430000D01*
X148119933Y-114681498D02*
X148119933Y-134709067D01*
X148119933Y-134709067D02*
X147320000Y-135509000D01*
X148145500Y-103718534D02*
X151456284Y-100407750D01*
X148145500Y-109791500D02*
X148145500Y-103718534D01*
G04 #@! TO.N,XERR_MCU_CH1*
X165239464Y-100071787D02*
X165239464Y-98789830D01*
X165239464Y-98789830D02*
X165928647Y-98100647D01*
X150452000Y-88178999D02*
X149352000Y-88178999D01*
X162052000Y-90310537D02*
X162038463Y-90297000D01*
X152570001Y-90297000D02*
X150452000Y-88178999D01*
X162038463Y-90297000D02*
X152570001Y-90297000D01*
G04 #@! TO.N,XERR_MCU_CH0*
X163705001Y-90297000D02*
X164008260Y-90297000D01*
X162687000Y-88178999D02*
X162687000Y-89278999D01*
X162687000Y-89278999D02*
X163705001Y-90297000D01*
X171838305Y-100359473D02*
X170852801Y-101344977D01*
X166488758Y-94316754D02*
X171838305Y-99666301D01*
X170852801Y-101344977D02*
X168066274Y-101344977D01*
X167739464Y-101671787D02*
X166839464Y-101671787D01*
X168066274Y-101344977D02*
X167739464Y-101671787D01*
X165939872Y-94016755D02*
X166239871Y-94316754D01*
X166239871Y-94316754D02*
X166488758Y-94316754D01*
X171838305Y-99666301D02*
X171838305Y-100359473D01*
G04 #@! TO.N,XERR_MCU_CH2*
X162239464Y-96970344D02*
X162664443Y-96545365D01*
X162664443Y-96545365D02*
X162664443Y-95504000D01*
X162239464Y-100071787D02*
X162239464Y-96970344D01*
X136017000Y-89789000D02*
X136017000Y-88178999D01*
X137287000Y-91059000D02*
X136017000Y-89789000D01*
X161973057Y-92377057D02*
X160655000Y-91059000D01*
X160655000Y-91059000D02*
X137287000Y-91059000D01*
G04 #@! TO.N,XERR_MCU_CH3*
X159739464Y-100071787D02*
X158805722Y-100071787D01*
X158805722Y-100071787D02*
X158350981Y-99617046D01*
X142748000Y-98806000D02*
X155702014Y-98806000D01*
X134874000Y-90932000D02*
X142748000Y-98806000D01*
X124079000Y-90932000D02*
X134874000Y-90932000D01*
G04 #@! TO.N,Net-(Q209-Pad1)*
X108143000Y-75499000D02*
X108712000Y-74930000D01*
X106918000Y-75499000D02*
X108143000Y-75499000D01*
X108712000Y-76180000D02*
X108712000Y-74930000D01*
X104902000Y-79990000D02*
X108712000Y-76180000D01*
X104902000Y-86233000D02*
X104902000Y-79990000D01*
X113749664Y-95250000D02*
X113749664Y-95080664D01*
X113749664Y-95080664D02*
X104902000Y-86233000D01*
G04 #@! TO.N,Net-(Q212-Pad1)*
X116078000Y-81325000D02*
X116189000Y-81214000D01*
X116078000Y-81828000D02*
X116078000Y-81325000D01*
X117983000Y-83883000D02*
X117983000Y-83733000D01*
X117983000Y-83733000D02*
X116078000Y-81828000D01*
X122301000Y-95100000D02*
X122301000Y-95250000D01*
X117983000Y-90782000D02*
X122301000Y-95100000D01*
X117983000Y-83883000D02*
X117983000Y-90782000D01*
G04 #@! TO.N,Net-(Q211-Pad1)*
X116266000Y-75499000D02*
X116332000Y-75565000D01*
X114538000Y-75499000D02*
X116266000Y-75499000D01*
X116332000Y-75715000D02*
X116332000Y-75565000D01*
X112776000Y-79271000D02*
X116332000Y-75715000D01*
X112776000Y-87269000D02*
X112776000Y-79271000D01*
X119507000Y-95250000D02*
X119507000Y-94000000D01*
X119507000Y-94000000D02*
X112776000Y-87269000D01*
G04 #@! TO.N,Net-(Q201-Pad1)*
X93472000Y-75048000D02*
X93472000Y-74898000D01*
X90297000Y-78223000D02*
X93472000Y-75048000D01*
X90297000Y-83185000D02*
X90297000Y-78223000D01*
X102235000Y-95250000D02*
X102235000Y-95123000D01*
X102235000Y-95123000D02*
X90297000Y-83185000D01*
X92932000Y-75438000D02*
X93472000Y-74898000D01*
X91678000Y-75499000D02*
X91739000Y-75438000D01*
X91739000Y-75438000D02*
X92932000Y-75438000D01*
G04 #@! TO.N,Net-(Q202-Pad1)*
X93329000Y-82999000D02*
X93329000Y-81214000D01*
X94150000Y-83820000D02*
X93329000Y-82999000D01*
X95250000Y-83820000D02*
X94150000Y-83820000D01*
X95250000Y-85217000D02*
X95250000Y-83820000D01*
X105113666Y-95250000D02*
X105113666Y-95080666D01*
X105113666Y-95080666D02*
X95250000Y-85217000D01*
G04 #@! TO.N,Net-(Q203-Pad1)*
X100650000Y-75499000D02*
X101219000Y-74930000D01*
X99298000Y-75499000D02*
X100650000Y-75499000D01*
X107992332Y-95038332D02*
X107992332Y-95250000D01*
X97663000Y-84709000D02*
X107992332Y-95038332D01*
X97663000Y-78636000D02*
X97663000Y-84709000D01*
X101219000Y-74930000D02*
X101219000Y-75080000D01*
X101219000Y-75080000D02*
X97663000Y-78636000D01*
G04 #@! TO.N,Net-(Q204-Pad1)*
X100949000Y-81685000D02*
X100949000Y-81214000D01*
X102997000Y-83733000D02*
X100949000Y-81685000D01*
X102997000Y-83883000D02*
X102997000Y-83733000D01*
X102997000Y-84201000D02*
X102997000Y-83883000D01*
X102997000Y-87249000D02*
X102997000Y-83883000D01*
X110870998Y-95250000D02*
X110870998Y-95122998D01*
X110870998Y-95122998D02*
X102997000Y-87249000D01*
G04 #@! TO.N,Net-(Q210-Pad1)*
X108569000Y-81844000D02*
X108569000Y-81214000D01*
X110490000Y-83765000D02*
X108569000Y-81844000D01*
X110490000Y-83915000D02*
X110490000Y-83765000D01*
X110490000Y-88646000D02*
X110490000Y-83915000D01*
X116628330Y-95250000D02*
X116628330Y-94784330D01*
X116628330Y-94784330D02*
X110490000Y-88646000D01*
G04 #@! TO.N,LED_GS_CLK*
X141488435Y-84211435D02*
X143595824Y-84211435D01*
X143587629Y-84211435D02*
X141488435Y-84211435D01*
X157778851Y-85481582D02*
X157087267Y-84789998D01*
X157087267Y-84789998D02*
X157087267Y-84662998D01*
X160294278Y-85481582D02*
X157778851Y-85481582D01*
X157087267Y-84662998D02*
X156645352Y-84221083D01*
X144857776Y-85481582D02*
X143587629Y-84211435D01*
X156645352Y-84221083D02*
X154706083Y-84221083D01*
X161584809Y-84191051D02*
X160294278Y-85481582D01*
X128270000Y-84455000D02*
X127635000Y-83820000D01*
X129286000Y-84455000D02*
X128270000Y-84455000D01*
X130391001Y-85560001D02*
X129286000Y-84455000D01*
X146959278Y-85481582D02*
X144857776Y-85481582D01*
X154706083Y-84221083D02*
X154305000Y-83820000D01*
X164518307Y-84191051D02*
X161584809Y-84191051D01*
X154305000Y-83820000D02*
X154305000Y-83208804D01*
X127635000Y-83820000D02*
X127635000Y-83208804D01*
X133678001Y-85560001D02*
X130391001Y-85560001D01*
X135047000Y-84191002D02*
X133678001Y-85560001D01*
X137752792Y-84191002D02*
X135047000Y-84191002D01*
X148239860Y-84201000D02*
X146959278Y-85481582D01*
X154305000Y-83208804D02*
X154007277Y-82911081D01*
X165798277Y-82911081D02*
X164518307Y-84191051D01*
X127635000Y-83208804D02*
X127337277Y-82911081D01*
X139032713Y-82911081D02*
X137752792Y-84191002D01*
X151130000Y-84201000D02*
X148239860Y-84201000D01*
X152419919Y-82911081D02*
X151130000Y-84201000D01*
X140970000Y-83693000D02*
X141488435Y-84211435D01*
X140970000Y-83208804D02*
X140970000Y-83693000D01*
X140672277Y-82911081D02*
X140970000Y-83208804D01*
X153207277Y-82911081D02*
X152419919Y-82911081D01*
X139872277Y-82911081D02*
X140672277Y-82911081D01*
X139872277Y-82911081D02*
X139032713Y-82911081D01*
X166598277Y-82911081D02*
X165798277Y-82911081D01*
X154007277Y-82911081D02*
X153207277Y-82911081D01*
X127337277Y-82911081D02*
X126537277Y-82911081D01*
X171235787Y-103671787D02*
X166839464Y-103671787D01*
X172087235Y-103852701D02*
X171416701Y-103852701D01*
X173599001Y-87993803D02*
X173599001Y-102340935D01*
X171817700Y-86614000D02*
X172219198Y-86614000D01*
X167398277Y-82911081D02*
X167894000Y-83406804D01*
X173599001Y-102340935D02*
X172087235Y-103852701D01*
X166598277Y-82911081D02*
X167398277Y-82911081D01*
X167894000Y-83406804D02*
X167894000Y-83951806D01*
X171416701Y-103852701D02*
X171235787Y-103671787D01*
X167894000Y-83951806D02*
X168280193Y-84337999D01*
X172219198Y-86614000D02*
X173599001Y-87993803D01*
X168280193Y-84337999D02*
X169541699Y-84337999D01*
X169541699Y-84337999D02*
X171817700Y-86614000D01*
G04 #@! TO.N,_RTS_MCU*
X166839464Y-106171787D02*
X168674718Y-106171787D01*
X168674718Y-106171787D02*
X169436931Y-106934000D01*
X169436931Y-106934000D02*
X169799000Y-106934000D01*
X169916000Y-109738000D02*
X164525942Y-115128058D01*
X170365503Y-109738000D02*
X169916000Y-109738000D01*
X128419000Y-143002000D02*
X121438000Y-136021000D01*
X160020000Y-143002000D02*
X128419000Y-143002000D01*
X163894647Y-118807353D02*
X163894647Y-121290949D01*
X163894647Y-121290949D02*
X161671000Y-123514596D01*
X161671000Y-141351000D02*
X160020000Y-143002000D01*
X161671000Y-123514596D02*
X161671000Y-141351000D01*
X121438000Y-136021000D02*
X120313000Y-136021000D01*
G04 #@! TO.N,_CTS_MCU*
X165680861Y-111106863D02*
X165843863Y-111106863D01*
X164739464Y-108771787D02*
X164739464Y-110165466D01*
X164739464Y-110165466D02*
X165680861Y-111106863D01*
X121438000Y-132771000D02*
X120313000Y-132771000D01*
X129992011Y-141325011D02*
X121438000Y-132771000D01*
X158863991Y-141325011D02*
X129992011Y-141325011D01*
X160772001Y-139417001D02*
X158863991Y-141325011D01*
X160772001Y-123709409D02*
X160772001Y-139417001D01*
X163156880Y-121324530D02*
X160772001Y-123709409D01*
X163156880Y-118069586D02*
X163156880Y-121324530D01*
G04 #@! TD*
D37*
G04 #@! TO.N,GND*
G36*
X163366699Y-101319944D02*
X163438067Y-101334140D01*
X163460714Y-101356787D01*
X163490774Y-101356787D01*
X163510612Y-101348570D01*
X163614464Y-101369227D01*
X163864464Y-101369227D01*
X163989464Y-101344363D01*
X164114464Y-101369227D01*
X164364464Y-101369227D01*
X164489464Y-101344363D01*
X164614464Y-101369227D01*
X164864464Y-101369227D01*
X164989464Y-101344363D01*
X165114464Y-101369227D01*
X165364464Y-101369227D01*
X165586112Y-101325139D01*
X165542024Y-101546787D01*
X165542024Y-101796787D01*
X165566888Y-101921787D01*
X165542024Y-102046787D01*
X165542024Y-102296787D01*
X165566888Y-102421787D01*
X165542024Y-102546787D01*
X165542024Y-102796787D01*
X165566888Y-102921787D01*
X165542024Y-103046787D01*
X165542024Y-103296787D01*
X165566888Y-103421787D01*
X165542024Y-103546787D01*
X165542024Y-103796787D01*
X165566888Y-103921787D01*
X165542024Y-104046787D01*
X165542024Y-104296787D01*
X165566888Y-104421787D01*
X165542024Y-104546787D01*
X165542024Y-104796787D01*
X165566888Y-104921787D01*
X165542024Y-105046787D01*
X165542024Y-105296787D01*
X165566888Y-105421787D01*
X165542024Y-105546787D01*
X165542024Y-105796787D01*
X165561599Y-105895197D01*
X165560786Y-105952463D01*
X165542024Y-106046787D01*
X165542024Y-106296787D01*
X165554976Y-106361901D01*
X165553146Y-106490875D01*
X165542024Y-106546787D01*
X165542024Y-106796787D01*
X165548353Y-106828605D01*
X165545505Y-107029286D01*
X165542024Y-107046787D01*
X165542024Y-107274592D01*
X165539254Y-107469787D01*
X159874465Y-107469787D01*
X159874465Y-105371589D01*
X162223940Y-103022116D01*
X162287393Y-102979718D01*
X162329791Y-102916265D01*
X162329793Y-102916263D01*
X162455367Y-102728327D01*
X162455368Y-102728326D01*
X162499464Y-102506641D01*
X162499464Y-102506637D01*
X162514352Y-102431790D01*
X162499464Y-102356943D01*
X162499464Y-101346352D01*
X162614464Y-101369227D01*
X162864464Y-101369227D01*
X162968316Y-101348570D01*
X162988154Y-101356787D01*
X163018214Y-101356787D01*
X163040861Y-101334140D01*
X163112229Y-101319944D01*
X163150123Y-101294624D01*
X163323449Y-101291045D01*
X163366699Y-101319944D01*
X163366699Y-101319944D01*
G37*
X163366699Y-101319944D02*
X163438067Y-101334140D01*
X163460714Y-101356787D01*
X163490774Y-101356787D01*
X163510612Y-101348570D01*
X163614464Y-101369227D01*
X163864464Y-101369227D01*
X163989464Y-101344363D01*
X164114464Y-101369227D01*
X164364464Y-101369227D01*
X164489464Y-101344363D01*
X164614464Y-101369227D01*
X164864464Y-101369227D01*
X164989464Y-101344363D01*
X165114464Y-101369227D01*
X165364464Y-101369227D01*
X165586112Y-101325139D01*
X165542024Y-101546787D01*
X165542024Y-101796787D01*
X165566888Y-101921787D01*
X165542024Y-102046787D01*
X165542024Y-102296787D01*
X165566888Y-102421787D01*
X165542024Y-102546787D01*
X165542024Y-102796787D01*
X165566888Y-102921787D01*
X165542024Y-103046787D01*
X165542024Y-103296787D01*
X165566888Y-103421787D01*
X165542024Y-103546787D01*
X165542024Y-103796787D01*
X165566888Y-103921787D01*
X165542024Y-104046787D01*
X165542024Y-104296787D01*
X165566888Y-104421787D01*
X165542024Y-104546787D01*
X165542024Y-104796787D01*
X165566888Y-104921787D01*
X165542024Y-105046787D01*
X165542024Y-105296787D01*
X165566888Y-105421787D01*
X165542024Y-105546787D01*
X165542024Y-105796787D01*
X165561599Y-105895197D01*
X165560786Y-105952463D01*
X165542024Y-106046787D01*
X165542024Y-106296787D01*
X165554976Y-106361901D01*
X165553146Y-106490875D01*
X165542024Y-106546787D01*
X165542024Y-106796787D01*
X165548353Y-106828605D01*
X165545505Y-107029286D01*
X165542024Y-107046787D01*
X165542024Y-107274592D01*
X165539254Y-107469787D01*
X159874465Y-107469787D01*
X159874465Y-105371589D01*
X162223940Y-103022116D01*
X162287393Y-102979718D01*
X162329791Y-102916265D01*
X162329793Y-102916263D01*
X162455367Y-102728327D01*
X162455368Y-102728326D01*
X162499464Y-102506641D01*
X162499464Y-102506637D01*
X162514352Y-102431790D01*
X162499464Y-102356943D01*
X162499464Y-101346352D01*
X162614464Y-101369227D01*
X162864464Y-101369227D01*
X162968316Y-101348570D01*
X162988154Y-101356787D01*
X163018214Y-101356787D01*
X163040861Y-101334140D01*
X163112229Y-101319944D01*
X163150123Y-101294624D01*
X163323449Y-101291045D01*
X163366699Y-101319944D01*
G36*
X160979464Y-102116986D02*
X159441464Y-103654987D01*
X159441464Y-101371192D01*
X159607146Y-101367771D01*
X159614464Y-101369227D01*
X159864464Y-101369227D01*
X159902431Y-101361675D01*
X160060129Y-101358419D01*
X160114464Y-101369227D01*
X160364464Y-101369227D01*
X160460338Y-101350157D01*
X160513112Y-101349067D01*
X160614464Y-101369227D01*
X160864464Y-101369227D01*
X160979464Y-101346352D01*
X160979464Y-102116986D01*
X160979464Y-102116986D01*
G37*
X160979464Y-102116986D02*
X159441464Y-103654987D01*
X159441464Y-101371192D01*
X159607146Y-101367771D01*
X159614464Y-101369227D01*
X159864464Y-101369227D01*
X159902431Y-101361675D01*
X160060129Y-101358419D01*
X160114464Y-101369227D01*
X160364464Y-101369227D01*
X160460338Y-101350157D01*
X160513112Y-101349067D01*
X160614464Y-101369227D01*
X160864464Y-101369227D01*
X160979464Y-101346352D01*
X160979464Y-102116986D01*
G04 #@! TD*
M02*
