G04 #@! TF.GenerationSoftware,KiCad,Pcbnew,(5.0.0)*
G04 #@! TF.CreationDate,2018-11-17T20:33:17-08:00*
G04 #@! TF.ProjectId,LPC1114_LED_Cube,4C5043313131345F4C45445F43756265,rev?*
G04 #@! TF.SameCoordinates,Original*
G04 #@! TF.FileFunction,Soldermask,Bot*
G04 #@! TF.FilePolarity,Negative*
%FSLAX46Y46*%
G04 Gerber Fmt 4.6, Leading zero omitted, Abs format (unit mm)*
G04 Created by KiCad (PCBNEW (5.0.0)) date 11/17/18 20:33:17*
%MOMM*%
%LPD*%
G01*
G04 APERTURE LIST*
%ADD10C,0.150000*%
%ADD11O,2.100000X2.100000*%
%ADD12R,2.100000X2.100000*%
%ADD13C,2.100000*%
%ADD14R,2.000000X2.000000*%
%ADD15C,2.000000*%
%ADD16R,2.400000X2.000000*%
%ADD17R,2.000000X2.400000*%
%ADD18O,3.900000X3.900000*%
%ADD19R,2.200000X2.200000*%
%ADD20O,2.200000X2.200000*%
%ADD21R,3.900000X3.900000*%
%ADD22R,1.400000X1.400000*%
%ADD23O,1.400000X1.400000*%
%ADD24C,1.920000*%
%ADD25C,3.100000*%
%ADD26C,1.900000*%
%ADD27C,1.797000*%
%ADD28O,2.000000X2.000000*%
G04 APERTURE END LIST*
D10*
G36*
X128016000Y-83820000D02*
X128016000Y-77216000D01*
X130937000Y-77216000D01*
X130937000Y-83820000D01*
X128016000Y-83820000D01*
G37*
X128016000Y-83820000D02*
X128016000Y-77216000D01*
X130937000Y-77216000D01*
X130937000Y-83820000D01*
X128016000Y-83820000D01*
G36*
X141097000Y-80899000D02*
X141097000Y-77216000D01*
X144272000Y-77216000D01*
X144272000Y-80899000D01*
X141097000Y-80899000D01*
G37*
X141097000Y-80899000D02*
X141097000Y-77216000D01*
X144272000Y-77216000D01*
X144272000Y-80899000D01*
X141097000Y-80899000D01*
G36*
X154432000Y-81153000D02*
X154432000Y-77343000D01*
X157607000Y-77343000D01*
X157607000Y-81153000D01*
X154432000Y-81153000D01*
G37*
X154432000Y-81153000D02*
X154432000Y-77343000D01*
X157607000Y-77343000D01*
X157607000Y-81153000D01*
X154432000Y-81153000D01*
G36*
X167894000Y-81153000D02*
X167894000Y-77343000D01*
X171069000Y-77343000D01*
X171069000Y-81153000D01*
X167894000Y-81153000D01*
G37*
X167894000Y-81153000D02*
X167894000Y-77343000D01*
X171069000Y-77343000D01*
X171069000Y-81153000D01*
X167894000Y-81153000D01*
D11*
G04 #@! TO.C,XERR_CH3_BRIDGE0*
X124079000Y-90932000D03*
D12*
X124079000Y-88392000D03*
G04 #@! TD*
G04 #@! TO.C,XERR_CH0_BRIDGE0*
X162687000Y-80391000D03*
G04 #@! TD*
G04 #@! TO.C,XERR_CH2_BRIDGE1*
X136017000Y-88178999D03*
G04 #@! TD*
G04 #@! TO.C,XERR_CH0_BRIDGE1*
X162687000Y-88178999D03*
G04 #@! TD*
G04 #@! TO.C,XERR_CH1_BRIDGE0*
X149352000Y-80264000D03*
G04 #@! TD*
G04 #@! TO.C,XERR_CH2_BRIDGE0*
X136017000Y-80264000D03*
G04 #@! TD*
G04 #@! TO.C,XERR_CH1_BRIDGE1*
X149352000Y-88178999D03*
G04 #@! TD*
G04 #@! TO.C,AUX_I/O_0*
X140970000Y-139700000D03*
D13*
X140970000Y-137160000D03*
X143510000Y-139700000D03*
X143510000Y-137160000D03*
X146050000Y-139700000D03*
X146050000Y-137160000D03*
X148590000Y-139700000D03*
X148590000Y-137160000D03*
X151130000Y-139700000D03*
X151130000Y-137160000D03*
X153670000Y-139700000D03*
X153670000Y-137160000D03*
X156210000Y-139700000D03*
X156210000Y-137160000D03*
X158750000Y-139700000D03*
X158750000Y-137160000D03*
G04 #@! TD*
D14*
G04 #@! TO.C,C101*
X87884000Y-97917000D03*
D15*
X90384000Y-97917000D03*
G04 #@! TD*
D16*
G04 #@! TO.C,C102*
X111157000Y-133731000D03*
X115157000Y-133731000D03*
G04 #@! TD*
D17*
G04 #@! TO.C,C103*
X115570000Y-140335000D03*
X115570000Y-136335000D03*
G04 #@! TD*
G04 #@! TO.C,C104*
X162560000Y-97881787D03*
X162560000Y-101881787D03*
G04 #@! TD*
G04 #@! TO.C,C105*
X118110000Y-140335000D03*
X118110000Y-136335000D03*
G04 #@! TD*
D16*
G04 #@! TO.C,C106*
X156076464Y-105818787D03*
X160076464Y-105818787D03*
G04 #@! TD*
G04 #@! TO.C,C107*
X156076464Y-103659787D03*
X160076464Y-103659787D03*
G04 #@! TD*
G04 #@! TO.C,C108*
X167233277Y-85682081D03*
X171233277Y-85682081D03*
G04 #@! TD*
G04 #@! TO.C,C109*
X153962277Y-85682081D03*
X157962277Y-85682081D03*
G04 #@! TD*
D14*
G04 #@! TO.C,C110*
X95504000Y-105537000D03*
D15*
X98004000Y-105537000D03*
G04 #@! TD*
D14*
G04 #@! TO.C,C111*
X95504000Y-97917000D03*
D15*
X98004000Y-97917000D03*
G04 #@! TD*
D16*
G04 #@! TO.C,C112*
X127260277Y-85809081D03*
X131260277Y-85809081D03*
G04 #@! TD*
G04 #@! TO.C,C113*
X140595277Y-85682081D03*
X144595277Y-85682081D03*
G04 #@! TD*
D14*
G04 #@! TO.C,C114*
X87884000Y-105537000D03*
D15*
X90384000Y-105537000D03*
G04 #@! TD*
D12*
G04 #@! TO.C,CH340_CKO_0*
X116713000Y-125603000D03*
G04 #@! TD*
G04 #@! TO.C,LAYER_VOUT0*
X94056200Y-52344320D03*
D11*
X96596200Y-52344320D03*
X99136200Y-52344320D03*
X101676200Y-52344320D03*
X104216200Y-52344320D03*
X106756200Y-52344320D03*
X109296200Y-52344320D03*
X111836200Y-52344320D03*
G04 #@! TD*
D18*
G04 #@! TO.C,LD33V_0*
X120800000Y-114935000D03*
D19*
X104140000Y-117475000D03*
D20*
X104140000Y-114935000D03*
X104140000Y-112395000D03*
G04 #@! TD*
D12*
G04 #@! TO.C,LED_CH0*
X170662277Y-69680081D03*
D13*
X168122277Y-69680081D03*
X170662277Y-67140081D03*
X168122277Y-67140081D03*
X170662277Y-64600081D03*
X168122277Y-64600081D03*
X170662277Y-62060081D03*
X168122277Y-62060081D03*
X170662277Y-59520081D03*
X168122277Y-59520081D03*
X170662277Y-56980081D03*
X168122277Y-56980081D03*
X170662277Y-54440081D03*
X168122277Y-54440081D03*
X170662277Y-51900081D03*
X168122277Y-51900081D03*
G04 #@! TD*
D12*
G04 #@! TO.C,LED_CH1*
X157327277Y-69680081D03*
D13*
X154787277Y-69680081D03*
X157327277Y-67140081D03*
X154787277Y-67140081D03*
X157327277Y-64600081D03*
X154787277Y-64600081D03*
X157327277Y-62060081D03*
X154787277Y-62060081D03*
X157327277Y-59520081D03*
X154787277Y-59520081D03*
X157327277Y-56980081D03*
X154787277Y-56980081D03*
X157327277Y-54440081D03*
X154787277Y-54440081D03*
X157327277Y-51900081D03*
X154787277Y-51900081D03*
G04 #@! TD*
D12*
G04 #@! TO.C,LED_CH2*
X143992277Y-69680081D03*
D13*
X141452277Y-69680081D03*
X143992277Y-67140081D03*
X141452277Y-67140081D03*
X143992277Y-64600081D03*
X141452277Y-64600081D03*
X143992277Y-62060081D03*
X141452277Y-62060081D03*
X143992277Y-59520081D03*
X141452277Y-59520081D03*
X143992277Y-56980081D03*
X141452277Y-56980081D03*
X143992277Y-54440081D03*
X141452277Y-54440081D03*
X143992277Y-51900081D03*
X141452277Y-51900081D03*
G04 #@! TD*
D12*
G04 #@! TO.C,LED_CH3*
X130657277Y-69680081D03*
D13*
X128117277Y-69680081D03*
X130657277Y-67140081D03*
X128117277Y-67140081D03*
X130657277Y-64600081D03*
X128117277Y-64600081D03*
X130657277Y-62060081D03*
X128117277Y-62060081D03*
X130657277Y-59520081D03*
X128117277Y-59520081D03*
X130657277Y-56980081D03*
X128117277Y-56980081D03*
X130657277Y-54440081D03*
X128117277Y-54440081D03*
X130657277Y-51900081D03*
X128117277Y-51900081D03*
G04 #@! TD*
D21*
G04 #@! TO.C,PWR_JACK0*
X97440000Y-114935000D03*
X91440000Y-114935000D03*
X94440000Y-119635000D03*
G04 #@! TD*
D12*
G04 #@! TO.C,PWR_SEL1*
X99425760Y-125254640D03*
D11*
X96885760Y-125254640D03*
X94345760Y-125254640D03*
G04 #@! TD*
D22*
G04 #@! TO.C,SWDEBUG0*
X177972720Y-123281440D03*
D23*
X179242720Y-123281440D03*
X177972720Y-124551440D03*
X179242720Y-124551440D03*
X177972720Y-125821440D03*
X179242720Y-125821440D03*
X177972720Y-127091440D03*
X179242720Y-127091440D03*
X177972720Y-128361440D03*
X179242720Y-128361440D03*
G04 #@! TD*
D24*
G04 #@! TO.C,USB_CONN_0*
X98680000Y-134905000D03*
X98680000Y-137445000D03*
X96680000Y-137445000D03*
X96680000Y-134905000D03*
D25*
X93980000Y-130175000D03*
X93980000Y-142175000D03*
G04 #@! TD*
D12*
G04 #@! TO.C,Wireless/SPI_1*
X176530000Y-133350000D03*
D11*
X179070000Y-133350000D03*
X176530000Y-135890000D03*
X179070000Y-135890000D03*
X176530000Y-138430000D03*
X179070000Y-138430000D03*
X176530000Y-140970000D03*
X179070000Y-140970000D03*
G04 #@! TD*
D26*
G04 #@! TO.C,Y101*
X108150000Y-140335000D03*
X113030000Y-140335000D03*
G04 #@! TD*
G04 #@! TO.C,Y102*
X153472464Y-107396787D03*
X153472464Y-102516787D03*
G04 #@! TD*
D27*
G04 #@! TO.C,RESET0*
X175549560Y-111094520D03*
X180629560Y-111094520D03*
X175549560Y-118714520D03*
X180629560Y-118714520D03*
G04 #@! TD*
D14*
G04 #@! TO.C,MODE_SELECT_0*
X158044464Y-95785787D03*
D28*
X150424464Y-93245787D03*
X158044464Y-93245787D03*
X150424464Y-95785787D03*
G04 #@! TD*
M02*
