M48
;DRILL file {KiCad (5.0.0)} date 11/17/18 20:33:21
;FORMAT={-:-/ absolute / inch / decimal}
FMAT,2
INCH,TZ
T1C0.0157
T2C0.0256
T3C0.0315
T4C0.0319
T5C0.0320
T6C0.0394
T7C0.0906
T8C0.1378
%
G90
G05
M72
T1
X3.48Y-2.425
X3.6097Y-3.91
X3.62Y-2.79
X3.655Y-2.34
X3.7003Y-3.855
X3.765Y-2.44
X3.815Y-3.14
X3.88Y-2.485
X3.925Y-2.795
X3.93Y-2.33
X4.Y-2.53
X4.115Y-3.12
X4.16Y-2.48
X4.215Y-2.795
X4.24Y-2.33
X4.275Y-2.54
X4.305Y-5.265
X4.405Y-3.145
X4.45Y-2.5
X4.515Y-2.82
X4.54Y-2.33
X4.6Y-2.525
X4.61Y-5.265
X4.705Y-3.145
X4.8Y-3.29
X4.939Y-3.3408
X4.9411Y-3.4216
X5.065Y-3.27
X5.068Y-3.213
X5.07Y-3.085
X5.07Y-3.145
X5.075Y-3.365
X5.075Y-3.4216
X5.094Y-3.236
X5.095Y-3.11
X5.095Y-3.175
X5.1Y-3.475
X5.115Y-3.085
X5.12Y-3.145
X5.12Y-3.265
X5.122Y-3.213
X5.2475Y-3.3439
X5.265Y-3.315
X5.31Y-3.3654
X5.396Y-3.289
X5.42Y-3.21
X5.421Y-3.397
X5.421Y-3.342
X5.437Y-3.26
X5.464Y-3.3408
X5.465Y-3.4228
X5.59Y-3.135
X5.59Y-3.175
X5.595Y-3.085
X5.595Y-3.27
X5.6Y-4.2913
X5.605Y-3.3408
X5.605Y-3.4228
X5.61Y-4.395
X5.62Y-3.115
X5.62Y-3.16
X5.625Y-3.48
X5.6334Y-4.2909
X5.6337Y-3.36
X5.635Y-4.4624
X5.64Y-3.085
X5.64Y-3.27
X5.649Y-3.17
X5.651Y-3.128
X5.6558Y-4.4912
X5.6678Y-4.3277
X5.6685Y-4.4624
X5.6859Y-3.24
X5.6859Y-3.28
X5.69Y-3.205
X5.69Y-3.315
X5.7Y-4.4624
X5.7015Y-4.3277
X5.733Y-4.3277
X5.735Y-4.54
X5.774Y-3.3408
X5.8Y-3.315
X5.8Y-4.3277
X5.8Y-4.5146
X5.8315Y-4.515
X5.8325Y-4.3225
X5.8354Y-3.365
X5.858Y-3.943
X5.8628Y-3.8605
X5.87Y-4.5154
X5.872Y-4.3277
X5.897Y-3.939
X5.8974Y-3.8654
X5.91Y-4.3277
X5.91Y-4.5154
X5.915Y-5.33
X5.9321Y-3.9464
X5.9406Y-3.2896
X5.945Y-4.3277
X5.945Y-4.51
X5.947Y-3.349
X5.95Y-3.3982
X5.955Y-3.21
X5.9601Y-3.2649
X5.9628Y-3.9531
X5.9724Y-3.804
X5.9791Y-4.3277
X5.989Y-3.3404
X5.99Y-3.4196
X5.99Y-4.505
X5.9956Y-3.9551
X6.0025Y-3.8132
X6.045Y-3.8132
X6.045Y-3.98
X6.075Y-3.96
X6.0972Y-5.0822
X6.0974Y-5.0124
X6.116Y-3.171
X6.12Y-3.085
X6.12Y-3.135
X6.12Y-3.2796
X6.1239Y-3.3448
X6.13Y-3.43
X6.13Y-3.89
X6.1311Y-3.9641
X6.135Y-3.9954
X6.145Y-3.11
X6.146Y-3.155
X6.15Y-3.475
X6.155Y-3.35
X6.1619Y-3.8719
X6.165Y-3.84
X6.17Y-3.085
X6.17Y-3.14
X6.17Y-3.2796
X6.17Y-4.0176
X6.17Y-4.365
X6.17Y-4.5028
X6.1707Y-3.9598
X6.175Y-3.175
X6.185Y-4.83
X6.2Y-4.7
X6.2052Y-3.3199
X6.2149Y-3.245
X6.215Y-3.21
X6.215Y-3.2899
X6.225Y-4.805
X6.2343Y-3.9219
X6.235Y-4.395
X6.235Y-4.5499
X6.235Y-4.76
X6.2404Y-3.891
X6.2639Y-3.8664
X6.2665Y-4.395
X6.27Y-4.55
X6.2826Y-3.6926
X6.2925Y-4.8173
X6.299Y-3.3408
X6.3Y-4.01
X6.3031Y-4.3931
X6.3034Y-4.5499
X6.305Y-4.905
X6.32Y-3.69
X6.325Y-3.315
X6.33Y-3.815
X6.335Y-4.55
X6.3356Y-4.3906
X6.36Y-3.355
X6.3675Y-4.5925
X6.3703Y-4.3902
X6.3769Y-3.6369
X6.3772Y-4.1611
X6.3788Y-3.7899
X6.38Y-3.5555
X6.395Y-4.635
X6.4041Y-3.76
X6.4074Y-4.8924
X6.4112Y-3.718
X6.4122Y-4.1161
X6.4235Y-4.6484
X6.425Y-4.478
X6.4324Y-4.8674
X6.4472Y-4.1811
X6.45Y-3.29
X6.4525Y-4.6775
X6.457Y-3.555
X6.465Y-3.214
X6.47Y-4.02
X6.47Y-3.2642
X6.4774Y-4.5326
X6.48Y-3.3408
X6.48Y-3.395
X6.4816Y-3.4442
X6.4872Y-4.1011
X6.4972Y-4.2161
X6.5Y-3.5808
X6.5Y-3.68
X6.5104Y-4.4288
X6.515Y-3.3946
X6.5165Y-3.3408
X6.52Y-4.335
X6.5293Y-4.3743
X6.5326Y-3.8622
X6.5331Y-3.7014
X6.6371Y-4.2536
X6.64Y-3.11
X6.645Y-3.165
X6.65Y-3.275
X6.655Y-3.345
X6.655Y-3.3946
X6.6648Y-4.2386
X6.67Y-3.08
X6.67Y-3.14
X6.675Y-3.48
X6.675Y-4.055
X6.6824Y-3.37
X6.6824Y-4.1602
X6.685Y-4.295
X6.685Y-4.21
X6.6943Y-3.2756
X6.695Y-3.115
X6.7Y-3.165
X6.7067Y-3.3158
X6.7073Y-4.3204
X6.71Y-4.145
X6.71Y-4.27
X6.7155Y-3.9654
X6.7381Y-3.2846
X6.7387Y-4.1115
X6.7393Y-4.6343
X6.74Y-3.2146
X6.74Y-3.2461
X6.74Y-3.935
X6.7633Y-4.0641
X6.765Y-4.26
X6.7741Y-4.2241
X6.7851Y-4.0414
X6.8Y-4.695
X6.81Y-3.97
X6.8237Y-3.3435
X6.835Y-4.1664
X6.8637Y-4.1534
X6.865Y-4.345
X6.8871Y-4.1309
X6.9033Y-3.9683
X6.915Y-4.0875
X6.9275Y-4.025
X6.9281Y-3.9435
X6.9296Y-3.8878
X6.95Y-5.055
X7.165Y-5.4
T2
X7.0068Y-4.8536
X7.0068Y-4.9036
X7.0068Y-4.9536
X7.0068Y-5.0036
X7.0068Y-5.0536
X7.0568Y-4.8536
X7.0568Y-4.9036
X7.0568Y-4.9536
X7.0568Y-5.0036
X7.0568Y-5.0536
T3
X3.46Y-3.855
X3.5584Y-3.855
X3.46Y-4.155
X3.5584Y-4.155
X4.2579Y-5.525
X4.45Y-5.525
X5.9222Y-3.6711
X5.9222Y-3.7711
X6.2222Y-3.6711
X6.2222Y-3.7711
X3.76Y-4.155
X3.8584Y-4.155
X3.76Y-3.855
X3.8584Y-3.855
X6.0422Y-4.0361
X6.0422Y-4.2282
T4
X3.8063Y-5.3112
X3.8063Y-5.4112
X3.885Y-5.3112
X3.885Y-5.4112
T5
X6.9114Y-4.3738
X6.9114Y-4.6738
X7.1114Y-4.3738
X7.1114Y-4.6738
T6
X5.88Y-3.4716
X6.619Y-2.0433
X6.619Y-2.1433
X6.619Y-2.2433
X6.619Y-2.3433
X6.619Y-2.4433
X6.619Y-2.5433
X6.619Y-2.6433
X6.619Y-2.7433
X6.719Y-2.0433
X6.719Y-2.1433
X6.719Y-2.2433
X6.719Y-2.3433
X6.719Y-2.4433
X6.719Y-2.5433
X6.719Y-2.6433
X6.719Y-2.7433
X6.405Y-3.4716
X4.1Y-4.425
X4.1Y-4.525
X4.1Y-4.625
X4.595Y-4.945
X4.885Y-3.48
X4.885Y-3.58
X5.569Y-2.0433
X5.569Y-2.1433
X5.569Y-2.2433
X5.569Y-2.3433
X5.569Y-2.4433
X5.569Y-2.5433
X5.569Y-2.6433
X5.569Y-2.7433
X5.669Y-2.0433
X5.669Y-2.1433
X5.669Y-2.2433
X5.669Y-2.3433
X5.669Y-2.4433
X5.669Y-2.5433
X5.669Y-2.6433
X5.669Y-2.7433
X5.355Y-3.16
X6.95Y-5.25
X6.95Y-5.35
X6.95Y-5.45
X6.95Y-5.55
X7.05Y-5.25
X7.05Y-5.35
X7.05Y-5.45
X7.05Y-5.55
X5.55Y-5.4
X5.55Y-5.5
X5.65Y-5.4
X5.65Y-5.5
X5.75Y-5.4
X5.75Y-5.5
X5.85Y-5.4
X5.85Y-5.5
X5.95Y-5.4
X5.95Y-5.5
X6.05Y-5.4
X6.05Y-5.5
X6.15Y-5.4
X6.15Y-5.5
X6.25Y-5.4
X6.25Y-5.5
X5.044Y-2.0433
X5.044Y-2.1433
X5.044Y-2.2433
X5.044Y-2.3433
X5.044Y-2.4433
X5.044Y-2.5433
X5.044Y-2.6433
X5.044Y-2.7433
X5.144Y-2.0433
X5.144Y-2.1433
X5.144Y-2.2433
X5.144Y-2.3433
X5.144Y-2.4433
X5.144Y-2.5433
X5.144Y-2.6433
X5.144Y-2.7433
X5.88Y-3.16
X3.703Y-2.0608
X3.803Y-2.0608
X3.903Y-2.0608
X4.003Y-2.0608
X4.103Y-2.0608
X4.203Y-2.0608
X4.303Y-2.0608
X4.403Y-2.0608
X3.7144Y-4.9313
X3.8144Y-4.9313
X3.9144Y-4.9313
X6.094Y-2.0433
X6.094Y-2.1433
X6.094Y-2.2433
X6.094Y-2.3433
X6.094Y-2.4433
X6.094Y-2.5433
X6.094Y-2.6433
X6.094Y-2.7433
X6.194Y-2.0433
X6.194Y-2.1433
X6.194Y-2.2433
X6.194Y-2.3433
X6.194Y-2.4433
X6.194Y-2.5433
X6.194Y-2.6433
X6.194Y-2.7433
X5.355Y-3.4716
X6.405Y-3.165
T7
X3.7Y-5.125
X3.7Y-5.5974
T8
X4.7559Y-4.525
T6
X3.6Y-4.4856G85X3.6Y-4.5644
G05
X3.6787Y-4.71G85X3.7575Y-4.71
G05
X3.8362Y-4.4856G85X3.8362Y-4.5644
G05
T0
M30
